<?xml version="1.0" encoding="UTF-8"?>
<svg width="206px" height="36px" viewBox="0 0 206 36" version="1.1" xmlns="http://www.w3.org/2000/svg" xmlns:xlink="http://www.w3.org/1999/xlink">
    <!-- Generator: Sketch 43.1 (39012) - http://www.bohemiancoding.com/sketch -->
    <title>Logo/Grey-54@1x</title>
    <desc>Created with Sketch.</desc>
    <defs></defs>
    <g id="Logo" stroke="none" stroke-width="1" fill="none" fill-rule="evenodd" fill-opacity="0.54">
        <g id="512" transform="translate(-153.000000, -168.000000)" fill="#000000">
            <g id="Light" transform="translate(0.000000, 84.000000)">
                <g id="Stacked-Group" transform="translate(153.000000, 24.000000)">
                    <g id="Logo/Grey-54" transform="translate(0.000000, 60.000000)">
                        <path d="M193.691299,12 C197.016196,12 199.848878,13.1710551 202.189431,15.5132004 C204.529984,17.8553458 205.700242,20.6847895 205.700242,24.0016164 C205.700242,27.3038958 204.529984,30.1260659 202.189431,32.4682112 C199.848878,34.8103565 197.016196,35.9814116 193.691299,35.9814116 C190.380985,35.9814116 187.551948,34.8103565 185.204104,32.4682112 C182.85626,30.1260659 181.682356,27.3038958 181.682356,24.0016164 C181.682356,20.6847895 182.85626,17.8553458 185.204104,15.5132004 C187.551948,13.1710551 190.380985,12 193.691299,12 Z M186.669677,16.9970366 C184.730153,18.9318523 183.760406,21.2666889 183.760406,24.0016164 C183.760406,26.7365438 184.730153,29.0677436 186.669677,30.9952856 C188.6092,32.9228275 190.949717,33.8865841 193.691299,33.8865841 C196.432881,33.8865841 198.773398,32.9228275 200.712922,30.9952856 C202.652445,29.0677436 203.622192,26.7365438 203.622192,24.0016164 C203.622192,21.2666889 202.652445,18.9318523 200.712922,16.9970366 C198.773398,15.0622209 196.432881,14.0948276 193.691299,14.0948276 C190.949717,14.0948276 188.6092,15.0622209 186.669677,16.9970366 Z" id="Combined-Shape" opacity="0.900000036"></path>
                        <path d="M175.924577,14.4937592 L175.924577,35.9220997 L173.955898,35.9220997 L173.955898,14.4937592 L175.924577,14.4937592 Z M176.32925,7.46735829 C176.715696,7.84559294 176.908916,8.3038319 176.908916,8.8420889 C176.908916,9.39489338 176.715696,9.86040597 176.32925,10.2386406 C175.942803,10.6168753 175.479804,10.8059898 174.940237,10.8059898 C174.400671,10.8059898 173.937671,10.6168753 173.551225,10.2386406 C173.164778,9.86040597 172.971558,9.39489338 172.971558,8.8420889 C172.971558,8.3038319 173.164778,7.84559294 173.551225,7.46735829 C173.937671,7.08912364 174.400671,6.90000916 174.940237,6.90000916 C175.479804,6.90000916 175.942803,7.08912364 176.32925,7.46735829 Z" id="Combined-Shape"></path>
                        <path d="M166.839487,35.2887931 L164.870808,35.2887931 L164.870808,30.924569 C164.491653,31.433731 164.076047,31.9210645 163.623977,32.3865841 C161.276133,34.7287294 158.439806,35.8997845 155.114908,35.8997845 C151.804594,35.8997845 148.975558,34.7287294 146.627714,32.3865841 C144.27987,30.0444387 143.105965,27.2222687 143.105965,23.9199892 C143.105965,20.6031623 144.27987,17.7737186 146.627714,15.4315733 C148.975558,13.0894279 151.804594,11.9183728 155.114908,11.9183728 C158.439806,11.9183728 161.276133,13.0894279 163.623977,15.4315733 C164.076047,15.8970928 164.491653,16.3844263 164.870808,16.8935884 L164.870808,0.375 L166.839487,0.375 L166.839487,35.2887931 Z M164.870808,25.862069 L164.870808,21.9779095 C164.506236,20.0576413 163.594819,18.3701581 162.136531,16.9154095 C160.197008,14.9805938 157.85649,14.0132004 155.114908,14.0132004 C152.373327,14.0132004 150.032809,14.9805938 148.093286,16.9154095 C146.153763,18.8502252 145.184016,21.1850618 145.184016,23.9199892 C145.184016,26.6549167 146.153763,28.9861164 148.093286,30.9136584 C150.032809,32.8412004 152.373327,33.8049569 155.114908,33.8049569 C157.85649,33.8049569 160.197008,32.8375636 162.136531,30.9027478 C163.594819,29.4479992 164.506236,27.7677897 164.870808,25.862069 Z" id="Combined-Shape"></path>
                        <path d="M129.565827,35.9838362 C126.882577,35.9838362 124.746217,35.1910101 123.156683,33.6053341 C121.567148,32.019658 120.750519,30.0194086 120.706771,27.6045259 L120.706771,14.25 L122.67545,14.25 L122.67545,27.4299569 C122.67545,29.2483927 123.338961,30.7976768 124.666003,32.0778556 C125.978463,33.3725819 127.60443,34.0199353 129.543953,34.0199353 C131.35223,34.0199353 132.916221,33.3762187 134.235972,32.0887662 C135.555723,30.8013136 136.215588,29.2483927 136.215588,27.4299569 L136.215588,14.25 L138.184267,14.25 L138.184267,27.6045259 C138.140519,30.0194086 137.323889,32.019658 135.734355,33.6053341 C134.144821,35.1910101 132.088666,35.9838362 129.565827,35.9838362 Z" id="Path"></path>
                        <polygon id="Path" points="108.904417 14.5212376 108.904417 5.40000916 110.873097 5.40000916 110.873097 14.5212376 115.247939 14.5212376 115.247939 16.4851385 110.873097 16.4851385 110.873097 35.9495781 108.904417 35.9495781 108.904417 16.4851385 104.529575 16.4851385 104.529575 14.5212376"></polygon>
                        <path d="M93.779614,24.3819596 C92.1025825,23.4800154 90.9432608,22.7090102 90.301614,22.0689208 C89.2953952,21.0651442 88.7922933,19.857721 88.7922933,18.4466148 C88.7922933,17.0209611 89.2953952,15.8026274 90.301614,14.791577 C91.3078329,13.7805267 92.5181939,13.2750092 93.9327335,13.2750092 C95.3618559,13.2750092 96.5430516,13.7405217 97.476356,14.6715609 C98.3804947,15.5880525 98.8325573,16.6281822 98.8325573,17.7919811 L98.8325573,17.9010867 L97.1263686,18.5775415 C96.9805398,17.4719325 96.6342015,16.6427382 96.0873435,16.0899337 C95.5404854,15.5371292 94.8222892,15.2607311 93.9327335,15.2607311 C93.0577605,15.2607311 92.3067534,15.5698606 91.6796895,16.1881288 C91.0526255,16.8063969 90.7390983,17.5592181 90.7390983,18.4466148 C90.7390983,19.319464 91.0526255,20.0686483 91.6796895,20.6941902 C92.0442615,21.0578774 92.8171427,21.6106735 93.9983561,22.3525954 C95.864965,23.3709194 97.1919873,24.2728501 97.9794629,25.0584143 C99.2190079,26.3094982 99.8387711,27.8005932 99.8387711,29.5317441 C99.8387711,31.3065374 99.2190079,32.8158165 97.9794629,34.0596266 C96.739918,35.3034367 95.2379037,35.9253324 93.473375,35.9253324 C91.7088463,35.9253324 90.206832,35.3034367 88.967287,34.0596266 C87.727742,32.8158165 87.1079789,31.4520101 87.1079789,29.9681665 L89.0547839,29.4662807 C89.0547839,30.7464595 89.4886181,31.8156837 90.3562996,32.6739854 C91.223981,33.5322872 92.2629958,33.9614316 93.473375,33.9614316 C94.6837542,33.9614316 95.7227689,33.5322872 96.5904504,32.6739854 C97.4581319,31.8156837 97.8919661,30.7682804 97.8919661,29.5317441 C97.8919661,28.3243027 97.4617775,27.2914466 96.6013875,26.4331449 C96.1347353,25.9676254 95.1941535,25.2839038 93.779614,24.3819596 Z" id="Path"></path>
                        <path d="M70.9506932,10.5191288 C74.2657905,10.5191288 77.0283303,11.6884964 79.2383952,14.0272667 C81.4484601,16.366037 82.553476,19.4049032 82.553476,23.1439564 C82.553476,26.8830095 81.4409938,29.9516685 79.215996,32.3500253 C76.9909982,34.7483821 74.2359248,35.9475426 70.9506932,35.9475426 C69.0094199,35.9475426 67.3070982,35.4932023 65.8436768,34.5845081 C64.3802555,33.6758139 63.215509,32.4617571 62.3494025,30.9423012 L62.3494025,35.5453357 L57.2423861,35.5453357 L57.2423861,2.47499084 L62.3494025,2.47499084 L62.3494025,15.3009219 C63.1856432,13.8708458 64.3429234,12.7163745 65.8212776,11.8374736 C67.2996319,10.9585727 69.0094199,10.5191288 70.9506932,10.5191288 Z M78.6012625,23.1216115 C78.6012625,20.5891851 77.8620965,18.5930671 76.3837423,17.1331977 C74.905388,15.6733284 73.1433357,14.9434046 71.0975323,14.9434046 C69.051729,14.9434046 67.2896767,15.6882248 65.8113224,17.1778874 C64.3329682,18.66755 63.5938022,20.6785644 63.5938022,23.2109908 C63.5938022,25.7434173 64.3329682,27.7618799 65.8113224,29.2664391 C67.2896767,30.7709984 69.0442627,31.5232667 71.0751331,31.5232667 C73.1060036,31.5232667 74.868056,30.756102 76.3613431,29.2217495 C77.8546302,27.687397 78.6012625,25.654038 78.6012625,23.1216115 Z" id="Combined-Shape"></path>
                        <path d="M40.7167581,35.9284138 C37.1328691,35.9284138 34.2210029,34.7664944 31.9810722,32.4426207 C29.7411416,30.118747 28.6211931,27.0351916 28.6211931,23.1918621 C28.6211931,19.3485325 29.7560742,16.2724253 32.0258706,13.9634483 C34.295667,11.6544712 37.2299322,10.5 40.8287541,10.5 C44.427576,10.5 47.3469085,11.609782 49.5868392,13.8293793 C51.8267698,16.0489766 52.9467183,18.946327 52.9467183,22.5215172 C52.9467183,23.3855216 52.8869878,24.1899273 52.7675248,24.9347586 L33.8626046,24.9347586 C33.9820675,26.990493 34.6764356,28.6216491 35.9457297,29.8282759 C37.2150237,31.0349026 38.8053506,31.6382069 40.7167581,31.6382069 C43.4942721,31.6382069 45.4504489,30.4911839 46.5853471,28.1971034 L52.095549,28.1971034 C51.3489054,30.4613906 49.9900345,32.3159928 48.0188955,33.7609655 C46.0477566,35.2059383 43.6137351,35.9284138 40.7167581,35.9284138 Z M45.5997825,16.6001379 C44.2856899,15.3935112 42.6878966,14.7902069 40.8063549,14.7902069 C38.9248131,14.7902069 37.3494189,15.3935112 36.0801248,16.6001379 C34.8108308,17.8067647 34.0865974,19.4230244 33.907403,21.4489655 L47.61571,21.4489655 C47.5858443,19.4230244 46.9138752,17.8067647 45.5997825,16.6001379 Z" id="Combined-Shape"></path>
                        <path d="M16.2170169,35.9265517 L16.2170169,29.1337241 L-2.13681465e-14,29.1337241 L-2.13681465e-14,25.2904138 L15.0522587,3.75 L21.2344364,3.75 L21.2344364,24.7094483 L25.4006866,24.7094483 L25.4006866,29.1337241 L21.2344364,29.1337241 L21.2344364,35.9265517 L16.2170169,35.9265517 Z M16.4410088,24.7094483 L16.4410088,8.934 L5.86858898,24.7094483 L16.4410088,24.7094483 Z" id="Combined-Shape"></path>
                    </g>
                </g>
            </g>
        </g>
    </g>
</svg>