<?xml version="1.0" encoding="iso-8859-1"?>
<!-- Generator: Adobe Illustrator 15.1.0, SVG Export Plug-In . SVG Version: 6.00 Build 0)  -->
<!DOCTYPE svg PUBLIC "-//W3C//DTD SVG 1.1//EN" "http://www.w3.org/Graphics/SVG/1.1/DTD/svg11.dtd">
<svg version="1.1" id="Layer_1" xmlns="http://www.w3.org/2000/svg" xmlns:xlink="http://www.w3.org/1999/xlink" x="0px" y="0px"
	 width="570px" height="78px" viewBox="0 0 570 78" style="enable-background:new 0 0 570 78;" xml:space="preserve">
<g>
	<path style="fill:#F8F1E9;" d="M226.817,61.475c-0.067-0.152-0.148-0.299-0.242-0.443c-0.095-0.145-0.216-0.285-0.364-0.424
		c-0.404-0.33-0.89-0.494-1.456-0.494c-0.633,0-1.108,0.162-1.425,0.486s-0.475,0.701-0.475,1.135c0,0.107,0.013,0.227,0.04,0.354
		c0.027,0.129,0.091,0.268,0.191,0.416s0.248,0.297,0.443,0.445c0.194,0.148,0.453,0.291,0.775,0.426l1.35,0.541
		c0.618,0.252,1.132,0.525,1.542,0.82c0.409,0.293,0.734,0.607,0.977,0.939c0.242,0.334,0.41,0.684,0.504,1.051
		s0.141,0.738,0.141,1.111c0,0.641-0.106,1.221-0.319,1.74c-0.214,0.521-0.511,0.971-0.891,1.352
		c-0.381,0.379-0.834,0.674-1.361,0.881c-0.527,0.205-1.104,0.309-1.73,0.309c-0.774,0-1.404-0.127-1.892-0.379
		c-0.487-0.254-0.904-0.574-1.251-0.961c-0.36-0.4-0.627-0.816-0.8-1.25c-0.174-0.434-0.28-0.885-0.32-1.352l2.021-0.439
		c0,0.338,0.054,0.656,0.162,0.955c0.107,0.299,0.242,0.555,0.403,0.771c0.188,0.244,0.428,0.441,0.717,0.59
		c0.289,0.15,0.636,0.225,1.04,0.225c0.633,0,1.161-0.203,1.585-0.611c0.424-0.406,0.636-0.949,0.636-1.631
		c0-0.332-0.061-0.623-0.182-0.869c-0.12-0.248-0.271-0.461-0.453-0.641c-0.182-0.182-0.389-0.33-0.624-0.451
		c-0.235-0.119-0.461-0.227-0.676-0.32l-1.289-0.539c-0.282-0.121-0.581-0.27-0.896-0.443s-0.611-0.398-0.887-0.674
		s-0.503-0.598-0.685-0.967s-0.272-0.809-0.272-1.318c0-0.457,0.087-0.896,0.261-1.318c0.173-0.424,0.423-0.799,0.75-1.127
		c0.327-0.33,0.733-0.594,1.221-0.795s1.044-0.303,1.671-0.303c0.721,0,1.294,0.104,1.722,0.311c0.427,0.207,0.747,0.404,0.96,0.59
		c0.188,0.16,0.367,0.354,0.541,0.58c0.173,0.229,0.333,0.48,0.48,0.762L226.817,61.475z"/>
	<path style="fill:#F8F1E9;" d="M233.551,65.276v6.584h-2.001v-6.584h-0.82v-1.84h0.82v-3.082h2.001v3.082h1.501v1.84H233.551z"/>
	<path style="fill:#F8F1E9;" d="M238.854,63.436v4.822c0,0.254,0.016,0.514,0.049,0.781c0.032,0.266,0.133,0.514,0.303,0.74
		c0.13,0.174,0.302,0.313,0.517,0.42s0.459,0.16,0.732,0.16s0.518-0.053,0.732-0.16s0.387-0.246,0.518-0.42
		c0.169-0.227,0.27-0.475,0.303-0.74c0.032-0.268,0.049-0.527,0.049-0.781v-4.822h2.001v4.883c0,0.547-0.054,1.047-0.16,1.5
		c-0.107,0.453-0.354,0.875-0.74,1.262c-0.388,0.387-0.824,0.656-1.312,0.811c-0.487,0.152-0.964,0.229-1.431,0.229
		c-0.427,0-0.881-0.076-1.36-0.229c-0.48-0.154-0.914-0.424-1.301-0.811c-0.388-0.387-0.634-0.809-0.741-1.262
		c-0.106-0.453-0.159-0.953-0.159-1.5v-4.883H238.854z"/>
	<path style="fill:#F8F1E9;" d="M253.03,57.272h2.001V71.86h-2.001v-0.881c-0.212,0.254-0.435,0.455-0.666,0.602
		c-0.232,0.146-0.461,0.26-0.687,0.34s-0.438,0.133-0.637,0.16c-0.198,0.027-0.371,0.039-0.517,0.039
		c-0.65,0-1.227-0.123-1.73-0.369c-0.505-0.246-0.929-0.58-1.273-1c-0.344-0.422-0.606-0.898-0.785-1.432
		c-0.18-0.533-0.269-1.094-0.269-1.682c0-0.68,0.108-1.293,0.328-1.84c0.219-0.547,0.514-1.012,0.885-1.391
		c0.371-0.381,0.802-0.674,1.293-0.881c0.49-0.207,1.015-0.311,1.571-0.311c0.159,0,0.338,0.014,0.537,0.039
		c0.199,0.027,0.411,0.084,0.637,0.172c0.226,0.086,0.45,0.209,0.676,0.369s0.438,0.367,0.637,0.621V57.272z M250.789,64.977
		c-0.357,0-0.678,0.068-0.962,0.209c-0.285,0.141-0.526,0.334-0.725,0.58c-0.198,0.248-0.354,0.535-0.466,0.861
		c-0.113,0.326-0.169,0.678-0.169,1.051c0,0.359,0.056,0.703,0.169,1.029c0.112,0.328,0.268,0.615,0.466,0.861
		c0.198,0.248,0.439,0.439,0.725,0.58c0.284,0.141,0.604,0.211,0.962,0.211c0.305,0,0.599-0.057,0.883-0.17
		c0.285-0.113,0.536-0.281,0.755-0.5c0.218-0.221,0.393-0.498,0.525-0.832c0.132-0.332,0.198-0.721,0.198-1.16
		c0-0.453-0.066-0.854-0.198-1.201c-0.133-0.346-0.308-0.629-0.525-0.85c-0.219-0.221-0.47-0.387-0.755-0.5
		C251.388,65.034,251.094,64.977,250.789,64.977z"/>
	<path style="fill:#F8F1E9;" d="M257.674,59.954c0-0.361,0.12-0.66,0.359-0.9c0.24-0.24,0.541-0.361,0.901-0.361
		c0.359,0,0.66,0.121,0.9,0.361s0.36,0.539,0.36,0.9c0,0.359-0.12,0.66-0.36,0.9s-0.541,0.359-0.9,0.359
		c-0.36,0-0.661-0.119-0.901-0.359C257.794,60.614,257.674,60.313,257.674,59.954z M259.915,63.436v8.424h-2.001v-8.424H259.915z"/>
	<path style="fill:#F8F1E9;" d="M266.76,63.215c0.641,0,1.234,0.109,1.781,0.33s1.021,0.527,1.421,0.92
		c0.4,0.395,0.717,0.861,0.951,1.402c0.232,0.539,0.35,1.137,0.35,1.791c0,0.639-0.117,1.232-0.35,1.779
		c-0.234,0.549-0.551,1.021-0.951,1.422s-0.874,0.711-1.421,0.93c-0.547,0.221-1.141,0.33-1.781,0.33c-0.64,0-1.233-0.109-1.78-0.33
		c-0.548-0.219-1.021-0.529-1.421-0.93s-0.718-0.873-0.951-1.422c-0.233-0.547-0.35-1.141-0.35-1.779
		c0-0.654,0.116-1.252,0.35-1.791c0.233-0.541,0.551-1.008,0.951-1.402c0.4-0.393,0.873-0.699,1.421-0.92
		C265.526,63.325,266.12,63.215,266.76,63.215z M266.76,70.36c0.774,0,1.385-0.244,1.831-0.73c0.447-0.486,0.671-1.137,0.671-1.951
		c0-0.48-0.073-0.891-0.22-1.23c-0.147-0.342-0.338-0.621-0.57-0.842c-0.234-0.219-0.501-0.379-0.801-0.48
		c-0.301-0.1-0.604-0.148-0.911-0.148c-0.307,0-0.61,0.049-0.91,0.148c-0.3,0.102-0.567,0.262-0.801,0.48
		c-0.233,0.221-0.423,0.5-0.57,0.842c-0.146,0.34-0.22,0.75-0.22,1.23c0,0.814,0.224,1.465,0.67,1.951
		C265.376,70.116,265.986,70.36,266.76,70.36z"/>
	<path style="fill:#F8F1E9;" d="M281.129,58.512V69.94h3.962v1.92h-5.964V58.512H281.129z"/>
	<path style="fill:#F8F1E9;" d="M291.168,63.215c0.641,0,1.234,0.109,1.781,0.33s1.021,0.527,1.421,0.92
		c0.4,0.395,0.717,0.861,0.951,1.402c0.232,0.539,0.35,1.137,0.35,1.791c0,0.639-0.117,1.232-0.35,1.779
		c-0.234,0.549-0.551,1.021-0.951,1.422s-0.874,0.711-1.421,0.93c-0.547,0.221-1.141,0.33-1.781,0.33c-0.64,0-1.233-0.109-1.78-0.33
		c-0.548-0.219-1.021-0.529-1.421-0.93s-0.718-0.873-0.951-1.422c-0.233-0.547-0.35-1.141-0.35-1.779
		c0-0.654,0.116-1.252,0.35-1.791c0.233-0.541,0.551-1.008,0.951-1.402c0.4-0.393,0.873-0.699,1.421-0.92
		C289.935,63.325,290.528,63.215,291.168,63.215z M291.168,70.36c0.774,0,1.385-0.244,1.831-0.73
		c0.447-0.486,0.671-1.137,0.671-1.951c0-0.48-0.073-0.891-0.22-1.23c-0.147-0.342-0.338-0.621-0.57-0.842
		c-0.234-0.219-0.501-0.379-0.801-0.48c-0.301-0.1-0.604-0.148-0.911-0.148c-0.307,0-0.61,0.049-0.91,0.148
		c-0.3,0.102-0.567,0.262-0.801,0.48c-0.233,0.221-0.423,0.5-0.57,0.842c-0.146,0.34-0.22,0.75-0.22,1.23
		c0,0.814,0.224,1.465,0.67,1.951C289.784,70.116,290.395,70.36,291.168,70.36z"/>
	<path style="fill:#F8F1E9;" d="M298.829,63.436l2.162,4.803l2.161-4.803h2.201l-4.362,9.025l-4.363-9.025H298.829z"/>
	<path style="fill:#F8F1E9;" d="M314.284,69.94c-0.187,0.32-0.403,0.613-0.65,0.879c-0.247,0.268-0.504,0.488-0.771,0.662
		c-0.347,0.227-0.733,0.389-1.16,0.49c-0.428,0.1-0.868,0.148-1.321,0.148c-0.561,0-1.074-0.08-1.541-0.24
		c-0.467-0.158-0.9-0.439-1.301-0.84s-0.707-0.877-0.92-1.43c-0.214-0.555-0.32-1.152-0.32-1.791c0-0.654,0.113-1.281,0.34-1.883
		c0.227-0.6,0.561-1.127,1.001-1.58c0.347-0.348,0.753-0.623,1.221-0.83c0.467-0.207,1-0.311,1.601-0.311
		c0.681,0,1.237,0.117,1.671,0.35c0.434,0.234,0.777,0.484,1.031,0.75c0.267,0.281,0.479,0.584,0.64,0.912
		c0.16,0.326,0.28,0.65,0.36,0.971s0.13,0.627,0.15,0.92c0.02,0.293,0.03,0.547,0.03,0.76v0.24h-6.044
		c0.026,0.307,0.1,0.613,0.22,0.922c0.12,0.307,0.287,0.566,0.501,0.779c0.227,0.227,0.473,0.373,0.74,0.441
		c0.267,0.066,0.521,0.1,0.761,0.1c0.52,0,0.967-0.141,1.341-0.42c0.173-0.135,0.323-0.281,0.45-0.441
		c0.126-0.16,0.236-0.32,0.33-0.48L314.284,69.94z M312.343,66.518c-0.08-0.467-0.28-0.848-0.6-1.141
		c-0.134-0.121-0.308-0.23-0.521-0.332c-0.214-0.1-0.48-0.148-0.801-0.148c-0.347,0-0.63,0.057-0.851,0.17
		c-0.22,0.113-0.396,0.236-0.53,0.369c-0.294,0.268-0.493,0.627-0.601,1.082H312.343z"/>
	<path style="fill:#F8F1E9;" d="M318.806,57.272V71.86h-2.001V57.272H318.806z"/>
	<path style="fill:#F8F1E9;" d="M325.736,63.215c0.641,0,1.234,0.109,1.781,0.33s1.021,0.527,1.421,0.92
		c0.4,0.395,0.717,0.861,0.951,1.402c0.232,0.539,0.35,1.137,0.35,1.791c0,0.639-0.117,1.232-0.35,1.779
		c-0.234,0.549-0.551,1.021-0.951,1.422s-0.874,0.711-1.421,0.93c-0.547,0.221-1.141,0.33-1.781,0.33c-0.64,0-1.233-0.109-1.78-0.33
		c-0.548-0.219-1.021-0.529-1.421-0.93s-0.718-0.873-0.951-1.422c-0.233-0.547-0.35-1.141-0.35-1.779
		c0-0.654,0.116-1.252,0.35-1.791c0.233-0.541,0.551-1.008,0.951-1.402c0.4-0.393,0.873-0.699,1.421-0.92
		C324.503,63.325,325.097,63.215,325.736,63.215z M325.736,70.36c0.774,0,1.385-0.244,1.831-0.73
		c0.447-0.486,0.671-1.137,0.671-1.951c0-0.48-0.073-0.891-0.22-1.23c-0.147-0.342-0.338-0.621-0.57-0.842
		c-0.234-0.219-0.501-0.379-0.801-0.48c-0.301-0.1-0.604-0.148-0.911-0.148c-0.307,0-0.61,0.049-0.91,0.148
		c-0.3,0.102-0.567,0.262-0.801,0.48c-0.233,0.221-0.423,0.5-0.57,0.842c-0.146,0.34-0.22,0.75-0.22,1.23
		c0,0.814,0.224,1.465,0.67,1.951C324.353,70.116,324.963,70.36,325.736,70.36z"/>
	<path style="fill:#F8F1E9;" d="M339.153,66.016c-0.454-0.439-0.888-0.723-1.301-0.85c-0.414-0.127-0.773-0.189-1.081-0.189
		c-0.467,0-0.847,0.076-1.141,0.229c-0.293,0.154-0.533,0.324-0.72,0.512c-0.188,0.186-0.354,0.439-0.501,0.76
		c-0.146,0.32-0.22,0.715-0.22,1.182c0,0.492,0.08,0.906,0.24,1.24s0.333,0.594,0.521,0.779c0.227,0.215,0.49,0.381,0.79,0.502
		c0.3,0.119,0.631,0.18,0.99,0.18c0.4,0,0.817-0.084,1.251-0.25c0.434-0.168,0.824-0.443,1.171-0.832v2.182
		c-0.24,0.148-0.563,0.295-0.971,0.441s-0.938,0.219-1.591,0.219c-0.707,0-1.317-0.1-1.831-0.299
		c-0.514-0.201-0.971-0.514-1.371-0.941c-0.307-0.307-0.584-0.717-0.83-1.23c-0.247-0.514-0.37-1.156-0.37-1.932
		c0-0.801,0.137-1.467,0.41-2s0.563-0.955,0.87-1.262c0.334-0.332,0.771-0.623,1.311-0.871c0.541-0.246,1.231-0.369,2.071-0.369
		c0.32,0,0.671,0.037,1.051,0.109c0.381,0.074,0.797,0.238,1.251,0.49V66.016z"/>
	<path style="fill:#F8F1E9;" d="M343.668,57.272v8.984l2.701-2.82h2.602l-3.622,3.502l3.883,4.922h-2.481l-2.762-3.602l-0.32,0.359
		v3.242h-2.001V57.272H343.668z"/>
</g>
<g>
	<path style="fill:#F8F1E9;" d="M295.105,4.016c-3.878,0-7.39,1.55-9.942,4.081l-0.049,40.058l20.029-20.071
		c2.531-2.553,4.087-6.064,4.087-9.943C309.23,10.341,302.907,4.016,295.105,4.016z M290.405,13.341
		c1.232-1.223,2.928-1.981,4.801-1.981c3.764,0,6.817,3.051,6.817,6.816c0,1.873-0.759,3.569-1.984,4.802L290.405,13.341z"/>
	<path style="fill:#F8F1E9;" d="M275.082,11.36c-3.764,0-6.815,3.051-6.815,6.816c0,1.875,0.759,3.573,1.986,4.806l-5.103,5.102
		c-2.53-2.553-4.093-6.064-4.093-9.943c0-7.8,6.324-14.125,14.125-14.125c3.877,0,7.43,1.55,9.982,4.081l-5.276,5.249
		C278.655,12.12,276.957,11.36,275.082,11.36z"/>
	<path style="fill:#F8F1E9;" d="M270.297,40.159c3.765,0,6.816-3.051,6.816-6.816c0-1.875-0.759-3.573-1.986-4.806l5.103-5.102
		c2.53,2.553,4.093,6.065,4.093,9.943c0,7.799-6.324,14.125-14.125,14.125c-3.878,0-7.389-1.563-9.942-4.094l5.236-5.235
		C266.724,39.398,268.422,40.159,270.297,40.159z"/>
</g>
<g>
	<line style="fill:none;stroke:#F8F1E9;stroke-miterlimit:10;" x1="374.206" y1="66.516" x2="567.206" y2="66.516"/>
	<line style="fill:none;stroke:#F8F1E9;stroke-miterlimit:10;" x1="3.206" y1="66.516" x2="196.206" y2="66.516"/>
</g>
</svg>
