<?xml version="1.0" encoding="iso-8859-1"?>
<!-- Generator: Adobe Illustrator 15.1.0, SVG Export Plug-In . SVG Version: 6.00 Build 0)  -->
<!DOCTYPE svg PUBLIC "-//W3C//DTD SVG 1.1//EN" "http://www.w3.org/Graphics/SVG/1.1/DTD/svg11.dtd">
<svg version="1.1" id="Layer_1" xmlns="http://www.w3.org/2000/svg" xmlns:xlink="http://www.w3.org/1999/xlink" x="0px" y="0px"
	 width="900px" height="515px" viewBox="0 0 900 515" style="enable-background:new 0 0 900 515;" xml:space="preserve">
<g>
	<path style="fill:#333332;" d="M9.565,430.432l4.17,10.567L18,429.673l4.123,11.326l4.313-10.567h2.606l-7.061,16.822
		l-4.123-11.207l-4.17,11.207l-6.73-16.822H9.565z"/>
	<path style="fill:#333332;" d="M38.827,443.961c-0.222,0.38-0.478,0.727-0.771,1.043c-0.292,0.316-0.596,0.576-0.912,0.781
		c-0.411,0.27-0.869,0.463-1.374,0.58c-0.506,0.119-1.028,0.179-1.564,0.179c-0.664,0-1.271-0.096-1.825-0.285
		c-0.553-0.188-1.066-0.521-1.54-0.995c-0.475-0.474-0.838-1.038-1.09-1.694c-0.253-0.655-0.379-1.361-0.379-2.12
		c0-0.774,0.134-1.517,0.403-2.228c0.268-0.71,0.664-1.335,1.185-1.871c0.41-0.411,0.892-0.738,1.445-0.983
		c0.552-0.245,1.185-0.368,1.896-0.368c0.805,0,1.464,0.139,1.978,0.414c0.513,0.278,0.92,0.574,1.221,0.89
		c0.315,0.331,0.568,0.691,0.758,1.077c0.19,0.388,0.332,0.771,0.426,1.149c0.095,0.38,0.154,0.743,0.178,1.091
		c0.023,0.348,0.036,0.647,0.036,0.9v0.284h-7.156c0.031,0.363,0.119,0.728,0.26,1.09c0.142,0.364,0.339,0.672,0.592,0.924
		c0.269,0.27,0.561,0.443,0.877,0.522c0.315,0.079,0.616,0.117,0.901,0.117c0.616,0,1.144-0.166,1.587-0.497
		c0.205-0.158,0.383-0.332,0.533-0.521c0.15-0.19,0.28-0.38,0.391-0.569L38.827,443.961z M36.529,439.909
		c-0.095-0.554-0.332-1.003-0.71-1.351c-0.158-0.142-0.364-0.272-0.616-0.391c-0.254-0.119-0.569-0.178-0.948-0.178
		c-0.412,0-0.747,0.067-1.008,0.201c-0.26,0.135-0.469,0.28-0.627,0.438c-0.348,0.316-0.584,0.743-0.71,1.28H36.529z"/>
	<path style="fill:#333332;" d="M54.559,439.317c-0.537-0.522-1.05-0.858-1.54-1.008s-0.916-0.225-1.279-0.225
		c-0.553,0-1.003,0.091-1.351,0.272c-0.347,0.181-0.632,0.384-0.854,0.604c-0.221,0.222-0.418,0.522-0.592,0.9
		c-0.174,0.38-0.26,0.846-0.26,1.397c0,0.586,0.094,1.075,0.284,1.47c0.189,0.396,0.395,0.704,0.616,0.924
		c0.268,0.253,0.581,0.451,0.935,0.593c0.356,0.142,0.747,0.213,1.173,0.213c0.474,0,0.967-0.099,1.481-0.296
		c0.513-0.197,0.975-0.525,1.386-0.983v2.583c-0.284,0.174-0.667,0.347-1.148,0.521c-0.482,0.174-1.111,0.262-1.884,0.262
		c-0.838,0-1.56-0.119-2.168-0.356s-1.149-0.607-1.623-1.112c-0.364-0.364-0.691-0.85-0.983-1.458
		c-0.293-0.607-0.439-1.371-0.439-2.287c0-0.947,0.162-1.737,0.486-2.369c0.323-0.631,0.667-1.128,1.03-1.493
		c0.395-0.394,0.912-0.738,1.552-1.029c0.64-0.293,1.457-0.439,2.452-0.439c0.379,0,0.794,0.044,1.244,0.131
		c0.45,0.087,0.944,0.28,1.481,0.58V439.317z"/>
	<path style="fill:#333332;" d="M56.787,436.26h2.369v0.9c0.125-0.156,0.274-0.311,0.446-0.461c0.171-0.15,0.343-0.273,0.516-0.369
		c0.218-0.125,0.44-0.212,0.667-0.26s0.473-0.071,0.738-0.071c0.281,0,0.575,0.031,0.879,0.094c0.304,0.062,0.613,0.186,0.925,0.371
		l-0.937,2.07c-0.266-0.173-0.497-0.275-0.691-0.308c-0.196-0.031-0.355-0.047-0.48-0.047c-0.25,0-0.497,0.031-0.739,0.095
		c-0.242,0.064-0.472,0.215-0.69,0.453c-0.313,0.35-0.497,0.739-0.552,1.168c-0.055,0.429-0.082,0.811-0.082,1.144v5.197h-2.369
		V436.26z"/>
	<path style="fill:#333332;" d="M72.852,443.961c-0.222,0.38-0.479,0.727-0.771,1.043s-0.596,0.576-0.912,0.781
		c-0.411,0.27-0.869,0.463-1.374,0.58c-0.506,0.119-1.027,0.179-1.563,0.179c-0.665,0-1.272-0.096-1.825-0.285
		c-0.553-0.188-1.066-0.521-1.54-0.995c-0.475-0.474-0.838-1.038-1.091-1.694c-0.252-0.655-0.379-1.361-0.379-2.12
		c0-0.774,0.134-1.517,0.403-2.228c0.268-0.71,0.663-1.335,1.185-1.871c0.41-0.411,0.892-0.738,1.445-0.983
		c0.553-0.245,1.185-0.368,1.896-0.368c0.805,0,1.465,0.139,1.979,0.414c0.513,0.278,0.92,0.574,1.221,0.89
		c0.315,0.331,0.568,0.691,0.758,1.077c0.19,0.388,0.332,0.771,0.426,1.149c0.095,0.38,0.154,0.743,0.178,1.091
		c0.023,0.348,0.036,0.647,0.036,0.9v0.284h-7.156c0.031,0.363,0.119,0.728,0.26,1.09c0.142,0.364,0.339,0.672,0.592,0.924
		c0.269,0.27,0.562,0.443,0.877,0.522c0.315,0.079,0.616,0.117,0.9,0.117c0.616,0,1.145-0.166,1.587-0.497
		c0.205-0.158,0.382-0.332,0.533-0.521c0.15-0.19,0.281-0.38,0.392-0.569L72.852,443.961z M70.553,439.909
		c-0.094-0.554-0.332-1.003-0.71-1.351c-0.158-0.142-0.363-0.272-0.616-0.391c-0.254-0.119-0.569-0.178-0.948-0.178
		c-0.412,0-0.747,0.067-1.008,0.201c-0.26,0.135-0.469,0.28-0.627,0.438c-0.348,0.316-0.584,0.743-0.711,1.28H70.553z"/>
	<path style="fill:#333332;" d="M82.59,436.26h2.37v9.977h-2.37v-1.044c-0.252,0.301-0.514,0.538-0.789,0.712
		c-0.275,0.174-0.546,0.308-0.813,0.402s-0.518,0.158-0.754,0.189c-0.235,0.031-0.44,0.048-0.612,0.048
		c-0.77,0-1.452-0.146-2.049-0.439c-0.597-0.291-1.099-0.687-1.507-1.184c-0.409-0.497-0.718-1.063-0.931-1.695
		c-0.212-0.631-0.318-1.295-0.318-1.989c0-0.807,0.129-1.532,0.389-2.181c0.259-0.646,0.608-1.196,1.048-1.646
		s0.95-0.797,1.531-1.042c0.58-0.245,1.2-0.368,1.859-0.368c0.189,0,0.401,0.017,0.637,0.048c0.235,0.032,0.487,0.099,0.754,0.201
		c0.266,0.104,0.533,0.249,0.8,0.439c0.267,0.188,0.519,0.434,0.754,0.733V436.26z M79.937,438.085c-0.423,0-0.803,0.083-1.14,0.249
		c-0.337,0.166-0.623,0.395-0.857,0.687c-0.235,0.293-0.419,0.633-0.552,1.019c-0.134,0.387-0.2,0.802-0.2,1.244
		c0,0.427,0.066,0.834,0.2,1.221c0.133,0.387,0.317,0.726,0.552,1.019c0.234,0.293,0.52,0.521,0.857,0.687
		c0.336,0.166,0.716,0.249,1.14,0.249c0.359,0,0.708-0.066,1.045-0.2c0.336-0.135,0.634-0.332,0.893-0.593
		c0.258-0.262,0.465-0.589,0.623-0.983c0.156-0.395,0.234-0.854,0.234-1.374c0-0.537-0.078-1.011-0.234-1.423
		c-0.157-0.409-0.364-0.746-0.623-1.007c-0.259-0.261-0.557-0.457-0.893-0.592C80.645,438.151,80.296,438.085,79.937,438.085z"/>
	<path style="fill:#333332;" d="M90.338,438.44v7.796h-2.37v-7.796h-0.971v-2.181h0.971v-3.648h2.37v3.648h1.777v2.181H90.338z"/>
	<path style="fill:#333332;" d="M102.564,443.961c-0.222,0.38-0.478,0.727-0.77,1.043c-0.292,0.316-0.596,0.576-0.912,0.781
		c-0.411,0.27-0.869,0.463-1.374,0.58c-0.506,0.119-1.028,0.179-1.564,0.179c-0.664,0-1.271-0.096-1.825-0.285
		c-0.554-0.188-1.066-0.521-1.54-0.995c-0.474-0.474-0.838-1.038-1.09-1.694c-0.252-0.655-0.379-1.361-0.379-2.12
		c0-0.774,0.134-1.517,0.403-2.228c0.268-0.71,0.664-1.335,1.185-1.871c0.41-0.411,0.892-0.738,1.445-0.983
		c0.552-0.245,1.185-0.368,1.896-0.368c0.805,0,1.464,0.139,1.979,0.414c0.513,0.278,0.919,0.574,1.22,0.89
		c0.315,0.331,0.568,0.691,0.758,1.077c0.19,0.388,0.332,0.771,0.426,1.149c0.096,0.38,0.154,0.743,0.178,1.091
		c0.023,0.348,0.036,0.647,0.036,0.9v0.284h-7.156c0.031,0.363,0.119,0.728,0.261,1.09c0.142,0.364,0.339,0.672,0.592,0.924
		c0.269,0.27,0.561,0.443,0.877,0.522c0.315,0.079,0.616,0.117,0.9,0.117c0.616,0,1.145-0.166,1.587-0.497
		c0.206-0.158,0.383-0.332,0.533-0.521c0.15-0.19,0.281-0.38,0.392-0.569L102.564,443.961z M100.266,439.909
		c-0.094-0.554-0.332-1.003-0.71-1.351c-0.158-0.142-0.364-0.272-0.616-0.391c-0.253-0.119-0.569-0.178-0.948-0.178
		c-0.412,0-0.746,0.067-1.007,0.201c-0.26,0.135-0.47,0.28-0.628,0.438c-0.348,0.316-0.584,0.743-0.71,1.28H100.266z"/>
	<path style="fill:#333332;" d="M117.824,428.963h2.37v17.273h-2.37v-1.044c-0.252,0.301-0.514,0.538-0.789,0.712
		c-0.274,0.174-0.545,0.308-0.813,0.402s-0.518,0.158-0.754,0.189c-0.235,0.031-0.44,0.048-0.612,0.048
		c-0.77,0-1.452-0.146-2.049-0.439c-0.597-0.291-1.099-0.687-1.507-1.184c-0.409-0.497-0.718-1.063-0.931-1.695
		c-0.212-0.631-0.318-1.295-0.318-1.989c0-0.807,0.129-1.532,0.388-2.181c0.26-0.646,0.608-1.196,1.048-1.646
		c0.439-0.45,0.95-0.797,1.531-1.042c0.581-0.245,1.201-0.368,1.86-0.368c0.189,0,0.401,0.017,0.636,0.048
		c0.235,0.032,0.487,0.099,0.754,0.201c0.266,0.104,0.533,0.249,0.8,0.439c0.267,0.188,0.519,0.434,0.754,0.733V428.963z
		 M115.17,438.085c-0.423,0-0.803,0.083-1.14,0.249c-0.337,0.166-0.623,0.395-0.857,0.687c-0.235,0.293-0.419,0.633-0.552,1.019
		c-0.134,0.387-0.2,0.802-0.2,1.244c0,0.427,0.065,0.834,0.2,1.221c0.133,0.387,0.317,0.726,0.552,1.019
		c0.234,0.293,0.52,0.521,0.857,0.687c0.336,0.166,0.716,0.249,1.14,0.249c0.359,0,0.708-0.066,1.045-0.2
		c0.336-0.135,0.634-0.332,0.893-0.593c0.259-0.262,0.466-0.589,0.623-0.983c0.156-0.395,0.234-0.854,0.234-1.374
		c0-0.537-0.078-1.011-0.234-1.423c-0.157-0.409-0.364-0.746-0.623-1.007c-0.258-0.261-0.556-0.457-0.893-0.592
		C115.878,438.151,115.53,438.085,115.17,438.085z"/>
	<path style="fill:#333332;" d="M122.847,432.138c0-0.428,0.142-0.782,0.426-1.066c0.284-0.284,0.64-0.428,1.066-0.428
		c0.426,0,0.782,0.144,1.066,0.428c0.285,0.284,0.426,0.639,0.426,1.066c0,0.426-0.142,0.781-0.426,1.065
		c-0.284,0.285-0.64,0.427-1.066,0.427c-0.426,0-0.782-0.142-1.066-0.427C122.988,432.919,122.847,432.563,122.847,432.138z
		 M125.5,436.26v9.977h-2.369v-9.977H125.5z"/>
	<path style="fill:#333332;" d="M132.75,438.891c-0.127-0.19-0.305-0.379-0.533-0.569c-0.229-0.189-0.526-0.284-0.889-0.284
		c-0.3,0-0.537,0.087-0.71,0.26c-0.143,0.144-0.213,0.316-0.213,0.522c0,0.236,0.11,0.427,0.332,0.568
		c0.079,0.047,0.166,0.096,0.26,0.142c0.094,0.049,0.268,0.135,0.521,0.262l1.185,0.592c0.268,0.126,0.521,0.261,0.758,0.403
		c0.237,0.142,0.45,0.315,0.64,0.521c0.268,0.268,0.458,0.556,0.568,0.863c0.111,0.309,0.166,0.637,0.166,0.983
		c0,0.459-0.079,0.878-0.236,1.257c-0.158,0.379-0.373,0.719-0.64,1.019c-0.396,0.427-0.83,0.72-1.304,0.877
		c-0.474,0.158-0.971,0.237-1.493,0.237c-0.316,0-0.663-0.04-1.042-0.119s-0.751-0.253-1.114-0.521
		c-0.284-0.222-0.537-0.49-0.759-0.806c-0.221-0.316-0.394-0.656-0.521-1.02l1.896-0.9c0.063,0.175,0.142,0.352,0.236,0.533
		c0.095,0.182,0.198,0.32,0.309,0.415c0.079,0.078,0.201,0.161,0.367,0.248s0.383,0.131,0.652,0.131
		c0.173,0,0.347-0.027,0.521-0.082c0.173-0.057,0.316-0.14,0.427-0.249c0.221-0.222,0.332-0.482,0.332-0.783
		c0-0.283-0.103-0.536-0.309-0.758c-0.142-0.143-0.296-0.26-0.462-0.354c-0.166-0.096-0.343-0.183-0.533-0.262l-0.853-0.402
		c-0.221-0.111-0.458-0.232-0.71-0.367c-0.253-0.135-0.474-0.297-0.664-0.486c-0.269-0.253-0.454-0.517-0.557-0.794
		c-0.102-0.276-0.153-0.571-0.153-0.888c0-0.41,0.07-0.802,0.213-1.173c0.142-0.372,0.347-0.691,0.616-0.96
		c0.221-0.237,0.529-0.454,0.924-0.651c0.395-0.198,0.9-0.297,1.517-0.297c0.363,0,0.691,0.04,0.983,0.119
		c0.292,0.079,0.58,0.212,0.865,0.403c0.173,0.109,0.363,0.264,0.569,0.461c0.205,0.198,0.394,0.455,0.569,0.771L132.75,438.891z"/>
	<path style="fill:#333332;" d="M139.36,438.44v7.796h-2.37v-7.796h-0.971v-2.181h0.971v-3.648h2.37v3.648h1.777v2.181H139.36z"/>
	<path style="fill:#333332;" d="M142.37,432.138c0-0.428,0.142-0.782,0.426-1.066c0.285-0.284,0.64-0.428,1.066-0.428
		s0.782,0.144,1.066,0.428c0.284,0.284,0.426,0.639,0.426,1.066c0,0.426-0.142,0.781-0.426,1.065
		c-0.285,0.285-0.64,0.427-1.066,0.427s-0.782-0.142-1.066-0.427C142.512,432.919,142.37,432.563,142.37,432.138z M145.023,436.26
		v9.977h-2.369v-9.977H145.023z"/>
	<path style="fill:#333332;" d="M147.89,436.26h2.37v0.925c0.251-0.285,0.505-0.505,0.764-0.663s0.505-0.277,0.741-0.356
		c0.235-0.078,0.454-0.126,0.658-0.143c0.205-0.015,0.377-0.023,0.518-0.023c0.455,0,0.851,0.052,1.188,0.154
		c0.336,0.103,0.619,0.226,0.847,0.368c0.228,0.142,0.412,0.287,0.552,0.438s0.25,0.28,0.33,0.392
		c0.188,0.268,0.337,0.604,0.447,1.007c0.109,0.402,0.165,0.991,0.165,1.765v6.114h-2.37v-5.546c0-0.631-0.054-1.124-0.162-1.481
		c-0.108-0.354-0.247-0.615-0.416-0.78c-0.169-0.166-0.358-0.265-0.567-0.297c-0.208-0.031-0.42-0.047-0.636-0.047
		c-0.261,0-0.512,0.023-0.751,0.07c-0.239,0.048-0.459,0.183-0.66,0.403s-0.358,0.557-0.474,1.008
		c-0.115,0.449-0.173,1.077-0.173,1.883v4.787h-2.37V436.26z"/>
	<path style="fill:#333332;" d="M167.129,439.317c-0.537-0.522-1.05-0.858-1.54-1.008c-0.49-0.149-0.916-0.225-1.279-0.225
		c-0.553,0-1.003,0.091-1.351,0.272c-0.347,0.181-0.631,0.384-0.854,0.604c-0.221,0.222-0.418,0.522-0.592,0.9
		c-0.174,0.38-0.26,0.846-0.26,1.397c0,0.586,0.094,1.075,0.284,1.47c0.189,0.396,0.395,0.704,0.616,0.924
		c0.268,0.253,0.581,0.451,0.935,0.593c0.356,0.142,0.747,0.213,1.173,0.213c0.474,0,0.967-0.099,1.481-0.296
		c0.513-0.197,0.975-0.525,1.386-0.983v2.583c-0.284,0.174-0.667,0.347-1.148,0.521c-0.482,0.174-1.111,0.262-1.884,0.262
		c-0.838,0-1.56-0.119-2.168-0.356s-1.149-0.607-1.623-1.112c-0.363-0.364-0.691-0.85-0.983-1.458
		c-0.293-0.607-0.439-1.371-0.439-2.287c0-0.947,0.162-1.737,0.486-2.369c0.323-0.631,0.667-1.128,1.03-1.493
		c0.395-0.394,0.912-0.738,1.552-1.029c0.64-0.293,1.457-0.439,2.452-0.439c0.379,0,0.794,0.044,1.244,0.131
		c0.45,0.087,0.944,0.28,1.481,0.58V439.317z"/>
	<path style="fill:#333332;" d="M171.798,438.44v7.796h-2.37v-7.796h-0.971v-2.181h0.971v-3.648h2.37v3.648h1.777v2.181H171.798z"/>
	<path style="fill:#333332;" d="M174.807,432.138c0-0.428,0.142-0.782,0.426-1.066c0.284-0.284,0.64-0.428,1.066-0.428
		c0.426,0,0.782,0.144,1.066,0.428c0.284,0.284,0.426,0.639,0.426,1.066c0,0.426-0.142,0.781-0.426,1.065
		c-0.285,0.285-0.641,0.427-1.066,0.427c-0.426,0-0.782-0.142-1.066-0.427C174.948,432.919,174.807,432.563,174.807,432.138z
		 M177.46,436.26v9.977h-2.369v-9.977H177.46z"/>
	<path style="fill:#333332;" d="M181.642,436.26l2.559,5.687l2.56-5.687h2.606l-5.166,10.687l-5.165-10.687H181.642z"/>
	<path style="fill:#333332;" d="M199.615,443.961c-0.222,0.38-0.478,0.727-0.77,1.043c-0.292,0.316-0.596,0.576-0.912,0.781
		c-0.411,0.27-0.869,0.463-1.374,0.58c-0.506,0.119-1.028,0.179-1.564,0.179c-0.664,0-1.271-0.096-1.825-0.285
		c-0.553-0.188-1.066-0.521-1.54-0.995c-0.475-0.474-0.838-1.038-1.09-1.694c-0.253-0.655-0.379-1.361-0.379-2.12
		c0-0.774,0.134-1.517,0.403-2.228c0.268-0.71,0.664-1.335,1.185-1.871c0.41-0.411,0.892-0.738,1.445-0.983
		c0.552-0.245,1.185-0.368,1.896-0.368c0.805,0,1.464,0.139,1.978,0.414c0.513,0.278,0.92,0.574,1.221,0.89
		c0.315,0.331,0.568,0.691,0.758,1.077c0.19,0.388,0.332,0.771,0.426,1.149c0.095,0.38,0.154,0.743,0.178,1.091
		c0.023,0.348,0.036,0.647,0.036,0.9v0.284h-7.156c0.031,0.363,0.119,0.728,0.26,1.09c0.142,0.364,0.339,0.672,0.592,0.924
		c0.269,0.27,0.561,0.443,0.877,0.522c0.315,0.079,0.616,0.117,0.9,0.117c0.616,0,1.145-0.166,1.587-0.497
		c0.205-0.158,0.383-0.332,0.533-0.521c0.15-0.19,0.28-0.38,0.391-0.569L199.615,443.961z M197.316,439.909
		c-0.095-0.554-0.332-1.003-0.71-1.351c-0.158-0.142-0.364-0.272-0.616-0.391c-0.253-0.119-0.569-0.178-0.948-0.178
		c-0.412,0-0.746,0.067-1.008,0.201c-0.26,0.135-0.469,0.28-0.627,0.438c-0.348,0.316-0.584,0.743-0.71,1.28H197.316z"/>
	<path style="fill:#333332;" d="M207.338,432.138c0-0.428,0.142-0.782,0.426-1.066s0.64-0.428,1.066-0.428s0.782,0.144,1.066,0.428
		c0.284,0.284,0.426,0.639,0.426,1.066c0,0.426-0.142,0.781-0.426,1.065c-0.285,0.285-0.64,0.427-1.066,0.427
		s-0.782-0.142-1.066-0.427C207.48,432.919,207.338,432.563,207.338,432.138z M209.992,436.26v9.977h-2.369v-9.977H209.992z"/>
	<path style="fill:#333332;" d="M220.133,428.963h2.37v17.273h-2.37v-1.044c-0.251,0.301-0.514,0.538-0.789,0.712
		c-0.274,0.174-0.545,0.308-0.813,0.402s-0.518,0.158-0.754,0.189c-0.235,0.031-0.44,0.048-0.612,0.048
		c-0.77,0-1.452-0.146-2.049-0.439c-0.597-0.291-1.099-0.687-1.507-1.184c-0.409-0.497-0.718-1.063-0.931-1.695
		c-0.212-0.631-0.318-1.295-0.318-1.989c0-0.807,0.129-1.532,0.388-2.181c0.26-0.646,0.608-1.196,1.048-1.646
		c0.439-0.45,0.95-0.797,1.531-1.042c0.581-0.245,1.201-0.368,1.86-0.368c0.189,0,0.401,0.017,0.636,0.048
		c0.235,0.032,0.487,0.099,0.754,0.201c0.266,0.104,0.533,0.249,0.8,0.439c0.267,0.188,0.519,0.434,0.754,0.733V428.963z
		 M217.48,438.085c-0.423,0-0.803,0.083-1.14,0.249c-0.338,0.166-0.623,0.395-0.857,0.687c-0.235,0.293-0.419,0.633-0.552,1.019
		c-0.134,0.387-0.2,0.802-0.2,1.244c0,0.427,0.065,0.834,0.2,1.221c0.133,0.387,0.317,0.726,0.552,1.019
		c0.234,0.293,0.52,0.521,0.857,0.687c0.336,0.166,0.716,0.249,1.14,0.249c0.359,0,0.708-0.066,1.045-0.2
		c0.336-0.135,0.634-0.332,0.893-0.593c0.259-0.262,0.466-0.589,0.623-0.983c0.156-0.395,0.234-0.854,0.234-1.374
		c0-0.537-0.078-1.011-0.234-1.423c-0.157-0.409-0.364-0.746-0.623-1.007c-0.258-0.261-0.556-0.457-0.893-0.592
		C218.188,438.151,217.84,438.085,217.48,438.085z"/>
	<path style="fill:#333332;" d="M234.374,443.961c-0.222,0.38-0.479,0.727-0.771,1.043s-0.596,0.576-0.912,0.781
		c-0.411,0.27-0.869,0.463-1.374,0.58c-0.506,0.119-1.028,0.179-1.564,0.179c-0.664,0-1.271-0.096-1.825-0.285
		c-0.554-0.188-1.066-0.521-1.54-0.995c-0.474-0.474-0.838-1.038-1.09-1.694c-0.252-0.655-0.379-1.361-0.379-2.12
		c0-0.774,0.134-1.517,0.403-2.228c0.268-0.71,0.664-1.335,1.185-1.871c0.41-0.411,0.892-0.738,1.445-0.983
		c0.552-0.245,1.185-0.368,1.896-0.368c0.805,0,1.464,0.139,1.979,0.414c0.513,0.278,0.919,0.574,1.221,0.89
		c0.315,0.331,0.568,0.691,0.758,1.077c0.19,0.388,0.332,0.771,0.426,1.149c0.096,0.38,0.154,0.743,0.179,1.091
		c0.023,0.348,0.036,0.647,0.036,0.9v0.284h-7.156c0.031,0.363,0.118,0.728,0.26,1.09c0.142,0.364,0.339,0.672,0.592,0.924
		c0.269,0.27,0.561,0.443,0.877,0.522c0.315,0.079,0.616,0.117,0.9,0.117c0.616,0,1.145-0.166,1.587-0.497
		c0.206-0.158,0.383-0.332,0.533-0.521c0.15-0.19,0.281-0.38,0.392-0.569L234.374,443.961z M232.075,439.909
		c-0.094-0.554-0.332-1.003-0.71-1.351c-0.158-0.142-0.363-0.272-0.616-0.391c-0.253-0.119-0.569-0.178-0.948-0.178
		c-0.412,0-0.746,0.067-1.007,0.201c-0.26,0.135-0.47,0.28-0.628,0.438c-0.348,0.316-0.584,0.743-0.71,1.28H232.075z"/>
	<path style="fill:#333332;" d="M236.837,436.26h2.37v0.925c0.25-0.285,0.505-0.505,0.764-0.663s0.505-0.277,0.741-0.356
		c0.235-0.078,0.454-0.126,0.658-0.143c0.204-0.015,0.377-0.023,0.518-0.023c0.455,0,0.851,0.052,1.188,0.154
		c0.336,0.103,0.619,0.226,0.846,0.368c0.228,0.142,0.412,0.287,0.553,0.438s0.25,0.28,0.33,0.392
		c0.188,0.268,0.336,0.604,0.446,1.007c0.109,0.402,0.165,0.991,0.165,1.765v6.114h-2.37v-5.546c0-0.631-0.054-1.124-0.162-1.481
		c-0.108-0.354-0.247-0.615-0.416-0.78c-0.17-0.166-0.359-0.265-0.567-0.297c-0.208-0.031-0.42-0.047-0.636-0.047
		c-0.262,0-0.512,0.023-0.751,0.07c-0.239,0.048-0.458,0.183-0.659,0.403s-0.359,0.557-0.475,1.008
		c-0.115,0.449-0.172,1.077-0.172,1.883v4.787h-2.37V436.26z"/>
	<path style="fill:#333332;" d="M250.793,438.44v7.796h-2.37v-7.796h-0.971v-2.181h0.971v-3.648h2.37v3.648h1.777v2.181H250.793z"/>
	<path style="fill:#333332;" d="M253.803,432.138c0-0.428,0.142-0.782,0.426-1.066c0.285-0.284,0.64-0.428,1.066-0.428
		s0.782,0.144,1.066,0.428s0.426,0.639,0.426,1.066c0,0.426-0.142,0.781-0.426,1.065c-0.285,0.285-0.64,0.427-1.066,0.427
		s-0.782-0.142-1.066-0.427C253.945,432.919,253.803,432.563,253.803,432.138z M256.456,436.26v9.977h-2.369v-9.977H256.456z"/>
	<path style="fill:#333332;" d="M261.787,438.44v7.796h-2.37v-7.796h-0.971v-2.181h0.971v-3.648h2.37v3.648h1.777v2.181H261.787z"/>
	<path style="fill:#333332;" d="M264.796,432.138c0-0.428,0.142-0.782,0.426-1.066c0.285-0.284,0.64-0.428,1.066-0.428
		s0.782,0.144,1.066,0.428c0.284,0.284,0.426,0.639,0.426,1.066c0,0.426-0.142,0.781-0.426,1.065
		c-0.285,0.285-0.64,0.427-1.066,0.427s-0.782-0.142-1.066-0.427C264.938,432.919,264.796,432.563,264.796,432.138z M267.449,436.26
		v9.977h-2.369v-9.977H267.449z"/>
	<path style="fill:#333332;" d="M279.273,443.961c-0.222,0.38-0.478,0.727-0.771,1.043c-0.292,0.316-0.596,0.576-0.912,0.781
		c-0.411,0.27-0.869,0.463-1.374,0.58c-0.506,0.119-1.028,0.179-1.564,0.179c-0.664,0-1.271-0.096-1.825-0.285
		c-0.553-0.188-1.066-0.521-1.54-0.995c-0.475-0.474-0.838-1.038-1.09-1.694c-0.253-0.655-0.379-1.361-0.379-2.12
		c0-0.774,0.134-1.517,0.403-2.228c0.268-0.71,0.664-1.335,1.185-1.871c0.41-0.411,0.892-0.738,1.445-0.983
		c0.552-0.245,1.185-0.368,1.896-0.368c0.805,0,1.464,0.139,1.978,0.414c0.513,0.278,0.92,0.574,1.221,0.89
		c0.315,0.331,0.568,0.691,0.758,1.077c0.19,0.388,0.332,0.771,0.426,1.149c0.095,0.38,0.154,0.743,0.178,1.091
		c0.023,0.348,0.036,0.647,0.036,0.9v0.284h-7.156c0.031,0.363,0.119,0.728,0.26,1.09c0.142,0.364,0.339,0.672,0.592,0.924
		c0.269,0.27,0.561,0.443,0.877,0.522c0.315,0.079,0.616,0.117,0.9,0.117c0.616,0,1.145-0.166,1.587-0.497
		c0.205-0.158,0.383-0.332,0.533-0.521c0.15-0.19,0.28-0.38,0.391-0.569L279.273,443.961z M276.975,439.909
		c-0.095-0.554-0.332-1.003-0.71-1.351c-0.158-0.142-0.364-0.272-0.616-0.391c-0.253-0.119-0.569-0.178-0.948-0.178
		c-0.412,0-0.746,0.067-1.008,0.201c-0.26,0.135-0.469,0.28-0.627,0.438c-0.348,0.316-0.584,0.743-0.71,1.28H276.975z"/>
	<path style="fill:#333332;" d="M286.121,438.891c-0.127-0.19-0.305-0.379-0.533-0.569c-0.229-0.189-0.525-0.284-0.889-0.284
		c-0.3,0-0.537,0.087-0.71,0.26c-0.143,0.144-0.213,0.316-0.213,0.522c0,0.236,0.11,0.427,0.332,0.568
		c0.079,0.047,0.166,0.096,0.261,0.142c0.094,0.049,0.268,0.135,0.521,0.262l1.185,0.592c0.268,0.126,0.521,0.261,0.758,0.403
		c0.237,0.142,0.45,0.315,0.64,0.521c0.268,0.268,0.458,0.556,0.568,0.863c0.111,0.309,0.166,0.637,0.166,0.983
		c0,0.459-0.079,0.878-0.236,1.257c-0.158,0.379-0.373,0.719-0.641,1.019c-0.395,0.427-0.829,0.72-1.303,0.877
		c-0.474,0.158-0.971,0.237-1.493,0.237c-0.316,0-0.663-0.04-1.042-0.119s-0.751-0.253-1.114-0.521
		c-0.284-0.222-0.537-0.49-0.759-0.806c-0.221-0.316-0.394-0.656-0.521-1.02l1.896-0.9c0.063,0.175,0.142,0.352,0.236,0.533
		c0.095,0.182,0.197,0.32,0.309,0.415c0.079,0.078,0.201,0.161,0.367,0.248c0.166,0.087,0.383,0.131,0.652,0.131
		c0.173,0,0.347-0.027,0.521-0.082c0.173-0.057,0.316-0.14,0.427-0.249c0.221-0.222,0.332-0.482,0.332-0.783
		c0-0.283-0.103-0.536-0.309-0.758c-0.142-0.143-0.296-0.26-0.462-0.354c-0.166-0.096-0.343-0.183-0.533-0.262l-0.853-0.402
		c-0.221-0.111-0.458-0.232-0.71-0.367c-0.253-0.135-0.474-0.297-0.664-0.486c-0.269-0.253-0.454-0.517-0.557-0.794
		c-0.102-0.276-0.153-0.571-0.153-0.888c0-0.41,0.07-0.802,0.213-1.173c0.142-0.372,0.347-0.691,0.616-0.96
		c0.221-0.237,0.529-0.454,0.924-0.651c0.395-0.198,0.9-0.297,1.516-0.297c0.364,0,0.691,0.04,0.984,0.119
		c0.292,0.079,0.58,0.212,0.865,0.403c0.173,0.109,0.363,0.264,0.569,0.461c0.205,0.198,0.394,0.455,0.569,0.771L286.121,438.891z"
		/>
	<path style="fill:#333332;" d="M291.476,443.274l2.084,0.805l-2.938,5.854l-1.563-0.641L291.476,443.274z"/>
	<path style="fill:#333332;" d="M9.624,463.078l2.583,5.711l2.796-6.563l2.796,6.563l2.583-5.711h2.606l-5.189,10.687l-2.796-6.374
		l-2.796,6.374l-5.189-10.687H9.624z"/>
	<path style="fill:#333332;" d="M33.259,470.779c-0.222,0.38-0.478,0.727-0.771,1.043c-0.292,0.316-0.596,0.576-0.912,0.781
		c-0.411,0.27-0.869,0.463-1.374,0.58c-0.506,0.119-1.028,0.179-1.564,0.179c-0.664,0-1.271-0.096-1.825-0.285
		c-0.553-0.188-1.066-0.521-1.54-0.995c-0.475-0.474-0.838-1.038-1.09-1.694c-0.253-0.655-0.379-1.361-0.379-2.12
		c0-0.774,0.134-1.517,0.403-2.228c0.268-0.71,0.664-1.335,1.185-1.871c0.41-0.411,0.892-0.738,1.445-0.983
		c0.552-0.245,1.185-0.368,1.896-0.368c0.805,0,1.464,0.139,1.978,0.414c0.513,0.278,0.92,0.574,1.221,0.89
		c0.315,0.331,0.568,0.691,0.758,1.077c0.19,0.388,0.332,0.771,0.426,1.149c0.095,0.38,0.154,0.743,0.178,1.091
		c0.023,0.348,0.036,0.647,0.036,0.9v0.284h-7.156c0.031,0.363,0.119,0.727,0.26,1.09c0.142,0.364,0.339,0.672,0.592,0.924
		c0.269,0.27,0.561,0.443,0.877,0.522c0.315,0.079,0.616,0.117,0.901,0.117c0.616,0,1.144-0.166,1.587-0.497
		c0.205-0.158,0.383-0.332,0.533-0.521c0.15-0.19,0.28-0.38,0.391-0.569L33.259,470.779z M30.961,466.728
		c-0.095-0.554-0.332-1.003-0.71-1.351c-0.158-0.142-0.364-0.272-0.616-0.391c-0.254-0.119-0.569-0.178-0.948-0.178
		c-0.412,0-0.747,0.067-1.008,0.201c-0.26,0.135-0.469,0.28-0.627,0.438c-0.348,0.316-0.584,0.743-0.71,1.28H30.961z"/>
	<path style="fill:#333332;" d="M38.116,464.239c0.236-0.3,0.487-0.545,0.754-0.733c0.267-0.19,0.533-0.336,0.8-0.439
		c0.267-0.103,0.519-0.169,0.754-0.201c0.235-0.031,0.447-0.048,0.636-0.048c0.659,0,1.279,0.123,1.86,0.368
		c0.582,0.245,1.091,0.592,1.531,1.042c0.439,0.45,0.789,1,1.048,1.646c0.259,0.648,0.389,1.374,0.389,2.181
		c0,0.694-0.106,1.358-0.318,1.989c-0.212,0.633-0.521,1.198-0.93,1.695c-0.408,0.497-0.91,0.893-1.507,1.184
		c-0.597,0.294-1.279,0.439-2.048,0.439c-0.173,0-0.377-0.017-0.612-0.048c-0.235-0.031-0.487-0.095-0.754-0.189
		s-0.537-0.229-0.812-0.402s-0.538-0.411-0.79-0.712v1.044h-2.369v-17.273h2.369V464.239z M40.769,464.903
		c-0.36,0-0.708,0.066-1.045,0.201c-0.336,0.135-0.634,0.331-0.893,0.592s-0.466,0.598-0.623,1.007
		c-0.156,0.412-0.234,0.886-0.234,1.423c0,0.521,0.078,0.979,0.234,1.374c0.157,0.395,0.365,0.722,0.623,0.983
		c0.258,0.261,0.556,0.458,0.893,0.593c0.337,0.134,0.686,0.2,1.045,0.2c0.423,0,0.803-0.083,1.14-0.249
		c0.336-0.165,0.623-0.394,0.858-0.687c0.234-0.293,0.418-0.632,0.552-1.019c0.134-0.387,0.2-0.794,0.2-1.221
		c0-0.442-0.066-0.857-0.2-1.244c-0.133-0.387-0.317-0.726-0.552-1.019c-0.235-0.292-0.521-0.521-0.858-0.687
		S41.192,464.903,40.769,464.903z"/>
	<path style="fill:#333332;" d="M52.666,465.709c-0.127-0.19-0.305-0.379-0.533-0.569c-0.229-0.189-0.525-0.284-0.889-0.284
		c-0.3,0-0.537,0.087-0.71,0.26c-0.143,0.144-0.213,0.316-0.213,0.522c0,0.236,0.11,0.427,0.332,0.568
		c0.079,0.047,0.166,0.096,0.26,0.142c0.095,0.049,0.268,0.135,0.521,0.262l1.185,0.592c0.268,0.126,0.521,0.261,0.758,0.403
		c0.237,0.142,0.45,0.315,0.64,0.521c0.268,0.268,0.458,0.556,0.568,0.863c0.111,0.309,0.166,0.637,0.166,0.983
		c0,0.459-0.079,0.878-0.236,1.257c-0.158,0.379-0.372,0.719-0.64,1.019c-0.396,0.427-0.829,0.72-1.304,0.877
		c-0.473,0.158-0.971,0.237-1.492,0.237c-0.316,0-0.664-0.04-1.042-0.119s-0.751-0.253-1.113-0.521
		c-0.285-0.222-0.537-0.49-0.759-0.806c-0.221-0.316-0.395-0.656-0.521-1.02l1.896-0.9c0.063,0.175,0.142,0.352,0.236,0.533
		c0.096,0.182,0.198,0.32,0.309,0.415c0.079,0.078,0.202,0.161,0.367,0.248c0.166,0.087,0.383,0.131,0.652,0.131
		c0.173,0,0.347-0.027,0.521-0.082c0.174-0.057,0.316-0.14,0.427-0.249c0.221-0.222,0.332-0.482,0.332-0.783
		c0-0.283-0.103-0.536-0.309-0.758c-0.142-0.143-0.296-0.26-0.461-0.354c-0.166-0.096-0.343-0.183-0.533-0.262l-0.854-0.402
		c-0.221-0.111-0.458-0.232-0.71-0.367s-0.474-0.297-0.664-0.486c-0.269-0.253-0.454-0.517-0.557-0.794
		c-0.102-0.276-0.153-0.571-0.153-0.888c0-0.41,0.07-0.802,0.213-1.173c0.142-0.372,0.347-0.691,0.616-0.96
		c0.221-0.237,0.529-0.454,0.924-0.651c0.395-0.198,0.9-0.297,1.517-0.297c0.363,0,0.691,0.04,0.983,0.119s0.581,0.212,0.865,0.403
		c0.174,0.109,0.364,0.264,0.569,0.461c0.206,0.198,0.395,0.455,0.569,0.771L52.666,465.709z"/>
	<path style="fill:#333332;" d="M56.551,458.956c0-0.428,0.142-0.782,0.426-1.066c0.284-0.284,0.64-0.428,1.066-0.428
		s0.782,0.144,1.066,0.428c0.284,0.284,0.426,0.639,0.426,1.066c0,0.426-0.142,0.781-0.426,1.065
		c-0.285,0.285-0.64,0.427-1.066,0.427s-0.782-0.142-1.066-0.427C56.692,459.737,56.551,459.382,56.551,458.956z M59.204,463.078
		v9.977h-2.369v-9.977H59.204z"/>
	<path style="fill:#333332;" d="M64.535,465.259v7.796h-2.37v-7.796h-0.971v-2.181h0.971v-3.648h2.37v3.648h1.777v2.181H64.535z"/>
	<path style="fill:#333332;" d="M76.761,470.779c-0.222,0.38-0.479,0.727-0.771,1.043s-0.596,0.576-0.912,0.781
		c-0.411,0.27-0.869,0.463-1.374,0.58c-0.506,0.119-1.028,0.179-1.563,0.179c-0.665,0-1.272-0.096-1.825-0.285
		c-0.554-0.188-1.066-0.521-1.54-0.995c-0.474-0.474-0.837-1.038-1.09-1.694c-0.252-0.655-0.379-1.361-0.379-2.12
		c0-0.774,0.134-1.517,0.403-2.228c0.268-0.71,0.663-1.335,1.185-1.871c0.41-0.411,0.892-0.738,1.445-0.983
		c0.553-0.245,1.185-0.368,1.896-0.368c0.805,0,1.464,0.139,1.979,0.414c0.513,0.278,0.92,0.574,1.221,0.89
		c0.315,0.331,0.568,0.691,0.758,1.077c0.19,0.388,0.332,0.771,0.426,1.149c0.096,0.38,0.154,0.743,0.179,1.091
		c0.023,0.348,0.036,0.647,0.036,0.9v0.284h-7.156c0.031,0.363,0.118,0.727,0.26,1.09c0.142,0.364,0.339,0.672,0.592,0.924
		c0.269,0.27,0.561,0.443,0.877,0.522c0.315,0.079,0.616,0.117,0.9,0.117c0.616,0,1.145-0.166,1.587-0.497
		c0.206-0.158,0.383-0.332,0.533-0.521c0.15-0.19,0.281-0.38,0.392-0.569L76.761,470.779z M74.462,466.728
		c-0.094-0.554-0.332-1.003-0.71-1.351c-0.158-0.142-0.363-0.272-0.616-0.391c-0.253-0.119-0.569-0.178-0.948-0.178
		c-0.412,0-0.746,0.067-1.007,0.201c-0.26,0.135-0.47,0.28-0.628,0.438c-0.348,0.316-0.584,0.743-0.71,1.28H74.462z"/>
	<path style="fill:#333332;" d="M83.609,465.709c-0.127-0.19-0.305-0.379-0.533-0.569c-0.229-0.189-0.525-0.284-0.889-0.284
		c-0.3,0-0.537,0.087-0.71,0.26c-0.143,0.144-0.213,0.316-0.213,0.522c0,0.236,0.11,0.427,0.332,0.568
		c0.079,0.047,0.166,0.096,0.26,0.142c0.095,0.049,0.268,0.135,0.521,0.262l1.185,0.592c0.268,0.126,0.521,0.261,0.758,0.403
		c0.237,0.142,0.45,0.315,0.64,0.521c0.268,0.268,0.458,0.556,0.568,0.863c0.111,0.309,0.166,0.637,0.166,0.983
		c0,0.459-0.079,0.878-0.236,1.257c-0.158,0.379-0.372,0.719-0.64,1.019c-0.396,0.427-0.829,0.72-1.304,0.877
		c-0.473,0.158-0.971,0.237-1.492,0.237c-0.316,0-0.664-0.04-1.042-0.119s-0.751-0.253-1.113-0.521
		c-0.285-0.222-0.537-0.49-0.759-0.806c-0.221-0.316-0.395-0.656-0.521-1.02l1.896-0.9c0.063,0.175,0.142,0.352,0.236,0.533
		c0.096,0.182,0.198,0.32,0.309,0.415c0.079,0.078,0.202,0.161,0.367,0.248c0.166,0.087,0.383,0.131,0.652,0.131
		c0.173,0,0.347-0.027,0.521-0.082c0.174-0.057,0.316-0.14,0.427-0.249c0.221-0.222,0.332-0.482,0.332-0.783
		c0-0.283-0.103-0.536-0.309-0.758c-0.142-0.143-0.296-0.26-0.461-0.354c-0.166-0.096-0.343-0.183-0.533-0.262l-0.854-0.402
		c-0.221-0.111-0.458-0.232-0.71-0.367s-0.474-0.297-0.663-0.486c-0.269-0.253-0.455-0.517-0.558-0.794
		c-0.102-0.276-0.153-0.571-0.153-0.888c0-0.41,0.07-0.802,0.213-1.173c0.142-0.372,0.347-0.691,0.616-0.96
		c0.221-0.237,0.529-0.454,0.924-0.651c0.396-0.198,0.9-0.297,1.517-0.297c0.363,0,0.691,0.04,0.983,0.119s0.581,0.212,0.865,0.403
		c0.174,0.109,0.364,0.264,0.569,0.461c0.206,0.198,0.395,0.455,0.569,0.771L83.609,465.709z"/>
	<path style="fill:#333332;" d="M100.55,463.078h2.37v9.977h-2.37v-1.044c-0.252,0.301-0.514,0.538-0.789,0.712
		c-0.274,0.174-0.545,0.308-0.813,0.402s-0.518,0.158-0.754,0.189c-0.235,0.031-0.44,0.048-0.612,0.048
		c-0.77,0-1.452-0.146-2.049-0.439c-0.597-0.291-1.099-0.687-1.507-1.184c-0.409-0.497-0.718-1.063-0.931-1.695
		c-0.212-0.631-0.318-1.295-0.318-1.989c0-0.807,0.129-1.532,0.388-2.181c0.26-0.646,0.608-1.196,1.048-1.646
		c0.439-0.45,0.95-0.797,1.531-1.042c0.581-0.245,1.201-0.368,1.86-0.368c0.189,0,0.401,0.017,0.636,0.048
		c0.235,0.032,0.487,0.099,0.754,0.201c0.266,0.104,0.533,0.249,0.8,0.439c0.267,0.188,0.519,0.434,0.754,0.733V463.078z
		 M97.897,464.903c-0.423,0-0.803,0.083-1.14,0.249c-0.337,0.166-0.623,0.395-0.857,0.687c-0.235,0.293-0.419,0.632-0.552,1.019
		c-0.134,0.387-0.2,0.802-0.2,1.244c0,0.427,0.065,0.834,0.2,1.221c0.133,0.387,0.317,0.726,0.552,1.019
		c0.234,0.293,0.52,0.521,0.857,0.687c0.336,0.166,0.716,0.249,1.14,0.249c0.359,0,0.708-0.066,1.045-0.2
		c0.336-0.135,0.634-0.332,0.893-0.593c0.259-0.262,0.466-0.589,0.623-0.983c0.156-0.395,0.234-0.854,0.234-1.374
		c0-0.537-0.078-1.011-0.234-1.423c-0.157-0.409-0.364-0.746-0.623-1.007c-0.258-0.261-0.556-0.457-0.893-0.592
		C98.604,464.97,98.256,464.903,97.897,464.903z"/>
	<path style="fill:#333332;" d="M105.833,463.078h2.37v0.925c0.251-0.285,0.505-0.505,0.764-0.663
		c0.259-0.158,0.505-0.277,0.742-0.356c0.235-0.078,0.454-0.126,0.657-0.143c0.205-0.015,0.377-0.023,0.518-0.023
		c0.455,0,0.85,0.052,1.188,0.154c0.336,0.103,0.619,0.226,0.847,0.368c0.228,0.142,0.412,0.287,0.552,0.438
		c0.141,0.15,0.251,0.28,0.33,0.392c0.188,0.268,0.336,0.604,0.446,1.007c0.109,0.402,0.165,0.991,0.165,1.765v6.114h-2.37v-5.546
		c0-0.631-0.054-1.124-0.162-1.481c-0.108-0.354-0.247-0.615-0.416-0.78c-0.169-0.166-0.358-0.265-0.567-0.297
		c-0.208-0.031-0.42-0.047-0.636-0.047c-0.261,0-0.512,0.023-0.751,0.07c-0.239,0.048-0.459,0.183-0.66,0.403
		c-0.2,0.221-0.358,0.557-0.474,1.008c-0.115,0.449-0.173,1.077-0.173,1.883v4.787h-2.37V463.078z"/>
	<path style="fill:#333332;" d="M124.6,455.781h2.37v17.273h-2.37v-1.044c-0.252,0.301-0.514,0.538-0.789,0.712
		c-0.274,0.174-0.545,0.308-0.813,0.402s-0.518,0.158-0.754,0.189c-0.235,0.031-0.44,0.048-0.612,0.048
		c-0.77,0-1.452-0.146-2.049-0.439c-0.597-0.291-1.099-0.687-1.507-1.184c-0.409-0.497-0.718-1.063-0.931-1.695
		c-0.212-0.631-0.318-1.295-0.318-1.989c0-0.807,0.129-1.532,0.389-2.181c0.259-0.646,0.608-1.196,1.048-1.646
		c0.439-0.45,0.95-0.797,1.531-1.042c0.581-0.245,1.201-0.368,1.86-0.368c0.189,0,0.401,0.017,0.637,0.048
		c0.235,0.032,0.487,0.099,0.754,0.201c0.266,0.104,0.533,0.249,0.8,0.439c0.267,0.188,0.519,0.434,0.754,0.733V455.781z
		 M121.946,464.903c-0.423,0-0.803,0.083-1.14,0.249c-0.337,0.166-0.623,0.395-0.857,0.687c-0.235,0.293-0.419,0.632-0.552,1.019
		c-0.134,0.387-0.2,0.802-0.2,1.244c0,0.427,0.065,0.834,0.2,1.221c0.133,0.387,0.317,0.726,0.552,1.019
		c0.234,0.293,0.52,0.521,0.857,0.687c0.336,0.166,0.716,0.249,1.14,0.249c0.359,0,0.708-0.066,1.045-0.2
		c0.336-0.135,0.634-0.332,0.893-0.593c0.259-0.262,0.466-0.589,0.623-0.983c0.156-0.395,0.234-0.854,0.234-1.374
		c0-0.537-0.078-1.011-0.234-1.423c-0.157-0.409-0.364-0.746-0.623-1.007c-0.258-0.261-0.556-0.457-0.893-0.592
		C122.654,464.97,122.306,464.903,121.946,464.903z"/>
	<path style="fill:#333332;" d="M142.678,463.078h2.37v9.977h-2.37v-1.044c-0.251,0.301-0.514,0.538-0.789,0.712
		s-0.545,0.308-0.813,0.402s-0.518,0.158-0.754,0.189c-0.235,0.031-0.44,0.048-0.612,0.048c-0.77,0-1.452-0.146-2.049-0.439
		c-0.597-0.291-1.099-0.687-1.507-1.184c-0.409-0.497-0.718-1.063-0.931-1.695c-0.212-0.631-0.318-1.295-0.318-1.989
		c0-0.807,0.129-1.532,0.388-2.181c0.259-0.646,0.608-1.196,1.048-1.646c0.439-0.45,0.95-0.797,1.531-1.042
		c0.581-0.245,1.2-0.368,1.86-0.368c0.189,0,0.401,0.017,0.636,0.048c0.235,0.032,0.487,0.099,0.754,0.201
		c0.266,0.104,0.533,0.249,0.8,0.439c0.267,0.188,0.519,0.434,0.754,0.733V463.078z M140.024,464.903
		c-0.423,0-0.803,0.083-1.14,0.249c-0.337,0.166-0.623,0.395-0.857,0.687c-0.235,0.293-0.419,0.632-0.552,1.019
		c-0.134,0.387-0.2,0.802-0.2,1.244c0,0.427,0.065,0.834,0.2,1.221c0.133,0.387,0.317,0.726,0.552,1.019
		c0.234,0.293,0.52,0.521,0.857,0.687c0.337,0.166,0.717,0.249,1.14,0.249c0.36,0,0.708-0.066,1.045-0.2
		c0.336-0.135,0.634-0.332,0.893-0.593c0.258-0.262,0.466-0.589,0.623-0.983c0.156-0.395,0.234-0.854,0.234-1.374
		c0-0.537-0.078-1.011-0.234-1.423c-0.157-0.409-0.365-0.746-0.623-1.007s-0.556-0.457-0.893-0.592
		C140.732,464.97,140.384,464.903,140.024,464.903z"/>
	<path style="fill:#333332;" d="M147.961,463.078h2.37v0.925c0.251-0.285,0.505-0.505,0.764-0.663s0.505-0.277,0.742-0.356
		c0.235-0.078,0.454-0.126,0.657-0.143c0.205-0.015,0.377-0.023,0.518-0.023c0.455,0,0.85,0.052,1.188,0.154
		c0.336,0.103,0.619,0.226,0.847,0.368c0.228,0.142,0.412,0.287,0.552,0.438c0.141,0.15,0.251,0.28,0.33,0.392
		c0.188,0.268,0.336,0.604,0.446,1.007c0.109,0.402,0.165,0.991,0.165,1.765v6.114h-2.37v-5.546c0-0.631-0.054-1.124-0.162-1.481
		c-0.108-0.354-0.247-0.615-0.416-0.78c-0.169-0.166-0.358-0.265-0.567-0.297c-0.208-0.031-0.42-0.047-0.636-0.047
		c-0.261,0-0.512,0.023-0.751,0.07c-0.239,0.048-0.459,0.183-0.66,0.403s-0.358,0.557-0.474,1.008
		c-0.115,0.449-0.173,1.077-0.173,1.883v4.787h-2.37V463.078z"/>
	<path style="fill:#333332;" d="M159.192,458.956c0-0.428,0.142-0.782,0.426-1.066c0.285-0.284,0.64-0.428,1.066-0.428
		s0.782,0.144,1.066,0.428c0.284,0.284,0.426,0.639,0.426,1.066c0,0.426-0.142,0.781-0.426,1.065
		c-0.285,0.285-0.64,0.427-1.066,0.427s-0.782-0.142-1.066-0.427C159.334,459.737,159.192,459.382,159.192,458.956z
		 M161.846,463.078v9.977h-2.369v-9.977H161.846z"/>
	<path style="fill:#333332;" d="M164.737,463.078h2.369v0.925c0.391-0.475,0.8-0.79,1.229-0.948
		c0.429-0.157,0.831-0.237,1.205-0.237c0.516,0,1,0.123,1.452,0.368s0.819,0.611,1.1,1.101c0.409-0.584,0.892-0.975,1.449-1.172
		c0.558-0.198,1.057-0.297,1.497-0.297c0.597,0,1.146,0.135,1.649,0.402c0.502,0.27,0.896,0.656,1.178,1.161
		c0.094,0.175,0.204,0.455,0.33,0.842c0.125,0.388,0.188,0.944,0.188,1.671v6.161h-2.369v-5.498c0-0.553-0.023-0.96-0.069-1.221
		c-0.046-0.26-0.093-0.445-0.138-0.557c-0.077-0.189-0.211-0.382-0.403-0.581c-0.192-0.196-0.488-0.295-0.887-0.295
		c-0.276,0-0.529,0.066-0.76,0.201c-0.229,0.135-0.422,0.312-0.576,0.533c-0.2,0.284-0.323,0.627-0.368,1.03
		c-0.046,0.403-0.069,0.817-0.069,1.244v5.143h-2.369v-5.498c0-0.553-0.023-0.96-0.069-1.221c-0.046-0.26-0.093-0.445-0.138-0.557
		c-0.077-0.189-0.212-0.382-0.403-0.581c-0.192-0.196-0.488-0.295-0.887-0.295c-0.276,0-0.529,0.066-0.76,0.201
		s-0.422,0.312-0.576,0.533c-0.2,0.284-0.323,0.627-0.368,1.03c-0.046,0.403-0.07,0.817-0.07,1.244v5.143h-2.369V463.078z"/>
	<path style="fill:#333332;" d="M188.621,463.078h2.37v9.977h-2.37v-1.044c-0.251,0.301-0.514,0.538-0.789,0.712
		c-0.274,0.174-0.545,0.308-0.813,0.402s-0.518,0.158-0.754,0.189c-0.235,0.031-0.44,0.048-0.612,0.048
		c-0.77,0-1.452-0.146-2.049-0.439c-0.597-0.291-1.099-0.687-1.507-1.184c-0.409-0.497-0.718-1.063-0.931-1.695
		c-0.212-0.631-0.318-1.295-0.318-1.989c0-0.807,0.129-1.532,0.388-2.181c0.26-0.646,0.608-1.196,1.048-1.646
		c0.439-0.45,0.95-0.797,1.531-1.042c0.581-0.245,1.201-0.368,1.86-0.368c0.189,0,0.401,0.017,0.636,0.048
		c0.235,0.032,0.487,0.099,0.754,0.201c0.266,0.104,0.533,0.249,0.8,0.439c0.267,0.188,0.519,0.434,0.754,0.733V463.078z
		 M185.967,464.903c-0.423,0-0.803,0.083-1.139,0.249c-0.338,0.166-0.623,0.395-0.857,0.687c-0.235,0.293-0.419,0.632-0.552,1.019
		c-0.134,0.387-0.2,0.802-0.2,1.244c0,0.427,0.065,0.834,0.2,1.221c0.133,0.387,0.317,0.726,0.552,1.019
		c0.234,0.293,0.52,0.521,0.857,0.687c0.336,0.166,0.716,0.249,1.139,0.249c0.36,0,0.708-0.066,1.045-0.2
		c0.336-0.135,0.634-0.332,0.893-0.593c0.258-0.262,0.466-0.589,0.623-0.983c0.156-0.395,0.234-0.854,0.234-1.374
		c0-0.537-0.078-1.011-0.234-1.423c-0.157-0.409-0.365-0.746-0.623-1.007s-0.556-0.457-0.893-0.592
		C186.675,464.97,186.327,464.903,185.967,464.903z"/>
	<path style="fill:#333332;" d="M196.369,465.259v7.796h-2.37v-7.796h-0.971v-2.181h0.971v-3.648h2.37v3.648h1.777v2.181H196.369z"
		/>
	<path style="fill:#333332;" d="M199.377,458.956c0-0.428,0.142-0.782,0.426-1.066c0.285-0.284,0.64-0.428,1.066-0.428
		s0.782,0.144,1.066,0.428c0.284,0.284,0.426,0.639,0.426,1.066c0,0.426-0.142,0.781-0.426,1.065
		c-0.285,0.285-0.64,0.427-1.066,0.427s-0.782-0.142-1.066-0.427C199.52,459.737,199.377,459.382,199.377,458.956z M202.031,463.078
		v9.977h-2.369v-9.977H202.031z"/>
	<path style="fill:#333332;" d="M209.732,462.817c0.758,0,1.461,0.131,2.108,0.392c0.648,0.26,1.208,0.624,1.683,1.089
		c0.473,0.467,0.849,1.021,1.125,1.659c0.277,0.64,0.415,1.348,0.415,2.12c0,0.759-0.138,1.462-0.415,2.11
		c-0.276,0.647-0.652,1.207-1.125,1.681c-0.475,0.475-1.035,0.842-1.683,1.104c-0.647,0.26-1.351,0.391-2.108,0.391
		c-0.759,0-1.461-0.131-2.109-0.391c-0.648-0.262-1.208-0.629-1.683-1.104c-0.473-0.474-0.848-1.033-1.125-1.681
		c-0.277-0.648-0.415-1.352-0.415-2.11c0-0.772,0.138-1.48,0.415-2.12c0.277-0.639,0.652-1.192,1.125-1.659
		c0.475-0.465,1.035-0.829,1.683-1.089C208.271,462.948,208.974,462.817,209.732,462.817z M209.732,471.276
		c0.916,0,1.638-0.287,2.167-0.864c0.529-0.576,0.794-1.348,0.794-2.311c0-0.568-0.088-1.054-0.261-1.457
		c-0.174-0.402-0.399-0.734-0.675-0.995c-0.277-0.261-0.593-0.451-0.948-0.568c-0.356-0.119-0.716-0.178-1.078-0.178
		c-0.363,0-0.723,0.059-1.079,0.178c-0.355,0.117-0.671,0.308-0.948,0.568c-0.276,0.261-0.501,0.593-0.675,0.995
		c-0.174,0.403-0.26,0.889-0.26,1.457c0,0.963,0.264,1.734,0.793,2.311C208.093,470.989,208.815,471.276,209.732,471.276z"/>
	<path style="fill:#333332;" d="M217.456,463.078h2.37v0.925c0.25-0.285,0.505-0.505,0.763-0.663
		c0.259-0.158,0.505-0.277,0.742-0.356c0.235-0.078,0.454-0.126,0.657-0.143c0.205-0.015,0.377-0.023,0.518-0.023
		c0.455,0,0.85,0.052,1.188,0.154c0.337,0.103,0.619,0.226,0.847,0.368c0.228,0.142,0.412,0.287,0.553,0.438
		c0.141,0.15,0.25,0.28,0.33,0.392c0.188,0.268,0.336,0.604,0.446,1.007c0.109,0.402,0.165,0.991,0.165,1.765v6.114h-2.37v-5.546
		c0-0.631-0.054-1.124-0.162-1.481c-0.108-0.354-0.247-0.615-0.416-0.78c-0.17-0.166-0.359-0.265-0.567-0.297
		c-0.208-0.031-0.42-0.047-0.636-0.047c-0.261,0-0.512,0.023-0.751,0.07c-0.239,0.048-0.459,0.183-0.66,0.403
		c-0.2,0.221-0.358,0.557-0.474,1.008c-0.115,0.449-0.172,1.077-0.172,1.883v4.787h-2.37V463.078z"/>
	<path style="fill:#333332;" d="M233.332,465.709c-0.127-0.19-0.305-0.379-0.533-0.569c-0.229-0.189-0.525-0.284-0.889-0.284
		c-0.3,0-0.537,0.087-0.711,0.26c-0.143,0.144-0.213,0.316-0.213,0.522c0,0.236,0.11,0.427,0.332,0.568
		c0.079,0.047,0.166,0.096,0.26,0.142c0.095,0.049,0.268,0.135,0.522,0.262l1.185,0.592c0.268,0.126,0.521,0.261,0.758,0.403
		c0.237,0.142,0.45,0.315,0.64,0.521c0.268,0.268,0.458,0.556,0.568,0.863c0.111,0.309,0.166,0.637,0.166,0.983
		c0,0.459-0.079,0.878-0.236,1.257c-0.158,0.379-0.372,0.719-0.64,1.019c-0.395,0.427-0.829,0.72-1.303,0.877
		c-0.474,0.158-0.971,0.237-1.493,0.237c-0.316,0-0.664-0.04-1.042-0.119s-0.751-0.253-1.113-0.521
		c-0.285-0.222-0.537-0.49-0.759-0.806c-0.221-0.316-0.395-0.656-0.521-1.02l1.896-0.9c0.063,0.175,0.142,0.352,0.236,0.533
		c0.096,0.182,0.198,0.32,0.309,0.415c0.079,0.078,0.202,0.161,0.368,0.248c0.166,0.087,0.382,0.131,0.651,0.131
		c0.174,0,0.347-0.027,0.521-0.082c0.173-0.057,0.316-0.14,0.427-0.249c0.221-0.222,0.332-0.482,0.332-0.783
		c0-0.283-0.104-0.536-0.309-0.758c-0.142-0.143-0.296-0.26-0.462-0.354c-0.166-0.096-0.343-0.183-0.533-0.262l-0.854-0.402
		c-0.221-0.111-0.458-0.232-0.71-0.367c-0.252-0.135-0.473-0.297-0.663-0.486c-0.269-0.253-0.454-0.517-0.558-0.794
		c-0.102-0.276-0.153-0.571-0.153-0.888c0-0.41,0.071-0.802,0.213-1.173c0.142-0.372,0.347-0.691,0.616-0.96
		c0.221-0.237,0.529-0.454,0.923-0.651c0.396-0.198,0.9-0.297,1.517-0.297c0.364,0,0.691,0.04,0.983,0.119s0.581,0.212,0.865,0.403
		c0.174,0.109,0.364,0.264,0.569,0.461c0.206,0.198,0.395,0.455,0.569,0.771L233.332,465.709z"/>
	<path style="fill:#333332;" d="M245.462,465.259v7.796h-2.37v-7.796h-0.971v-2.181h0.971v-3.648h2.37v3.648h1.777v2.181H245.462z"
		/>
	<path style="fill:#333332;" d="M248.756,455.781h2.369v8.15c0.501-0.505,0.996-0.817,1.482-0.937
		c0.486-0.118,0.877-0.178,1.175-0.178c0.455,0,0.847,0.052,1.176,0.154c0.329,0.103,0.611,0.226,0.847,0.368
		c0.235,0.142,0.423,0.291,0.564,0.449c0.142,0.158,0.25,0.284,0.33,0.38c0.313,0.458,0.498,0.942,0.553,1.457
		c0.054,0.514,0.082,0.951,0.082,1.314v6.114h-2.369v-5.9c0-0.301-0.02-0.601-0.058-0.901c-0.039-0.3-0.166-0.576-0.381-0.829
		c-0.124-0.143-0.293-0.264-0.509-0.367c-0.216-0.103-0.47-0.153-0.763-0.153c-0.386,0-0.721,0.083-1.006,0.249
		c-0.285,0.166-0.504,0.358-0.659,0.58c-0.169,0.237-0.289,0.553-0.358,0.947c-0.07,0.396-0.104,0.917-0.104,1.563v4.812h-2.369
		V455.781z"/>
	<path style="fill:#333332;" d="M267.521,463.078h2.37v9.977h-2.37v-1.044c-0.251,0.301-0.514,0.538-0.789,0.712
		s-0.545,0.308-0.813,0.402s-0.518,0.158-0.754,0.189c-0.235,0.031-0.44,0.048-0.612,0.048c-0.77,0-1.452-0.146-2.049-0.439
		c-0.597-0.291-1.099-0.687-1.507-1.184c-0.409-0.497-0.718-1.063-0.931-1.695c-0.212-0.631-0.318-1.295-0.318-1.989
		c0-0.807,0.129-1.532,0.388-2.181c0.259-0.646,0.608-1.196,1.048-1.646c0.439-0.45,0.95-0.797,1.531-1.042
		c0.581-0.245,1.201-0.368,1.86-0.368c0.189,0,0.401,0.017,0.636,0.048c0.235,0.032,0.487,0.099,0.754,0.201
		c0.266,0.104,0.533,0.249,0.8,0.439c0.267,0.188,0.519,0.434,0.754,0.733V463.078z M264.868,464.903
		c-0.423,0-0.803,0.083-1.14,0.249c-0.337,0.166-0.623,0.395-0.857,0.687c-0.235,0.293-0.419,0.632-0.552,1.019
		c-0.134,0.387-0.2,0.802-0.2,1.244c0,0.427,0.065,0.834,0.2,1.221c0.133,0.387,0.317,0.726,0.552,1.019
		c0.234,0.293,0.52,0.521,0.857,0.687c0.337,0.166,0.717,0.249,1.14,0.249c0.36,0,0.708-0.066,1.045-0.2
		c0.336-0.135,0.634-0.332,0.893-0.593c0.258-0.262,0.466-0.589,0.623-0.983c0.156-0.395,0.234-0.854,0.234-1.374
		c0-0.537-0.078-1.011-0.234-1.423c-0.157-0.409-0.365-0.746-0.623-1.007s-0.556-0.457-0.893-0.592
		C265.576,464.97,265.228,464.903,264.868,464.903z"/>
	<path style="fill:#333332;" d="M275.27,465.259v7.796h-2.37v-7.796h-0.971v-2.181h0.971v-3.648h2.37v3.648h1.777v2.181H275.27z"/>
	<path style="fill:#333332;" d="M8.333,482.599h2.369v8.15c0.501-0.505,0.996-0.816,1.481-0.937
		c0.486-0.117,0.877-0.177,1.175-0.177c0.455,0,0.847,0.052,1.176,0.154c0.329,0.102,0.611,0.226,0.847,0.367
		s0.423,0.292,0.564,0.45c0.142,0.158,0.251,0.283,0.33,0.379c0.313,0.458,0.498,0.943,0.553,1.457
		c0.054,0.514,0.082,0.952,0.082,1.314v6.114h-2.369v-5.899c0-0.301-0.019-0.602-0.058-0.901c-0.039-0.301-0.166-0.576-0.382-0.829
		c-0.124-0.143-0.293-0.264-0.509-0.368c-0.216-0.102-0.469-0.153-0.763-0.153c-0.385,0-0.721,0.083-1.006,0.249
		c-0.284,0.166-0.504,0.359-0.659,0.58c-0.169,0.237-0.289,0.553-0.358,0.948s-0.104,0.916-0.104,1.563v4.811H8.333V482.599z"/>
	<path style="fill:#333332;" d="M28.521,497.598c-0.222,0.379-0.478,0.727-0.77,1.042c-0.292,0.316-0.596,0.577-0.912,0.782
		c-0.411,0.269-0.869,0.462-1.374,0.58c-0.506,0.118-1.028,0.178-1.564,0.178c-0.664,0-1.271-0.095-1.825-0.284
		c-0.553-0.189-1.066-0.521-1.54-0.995c-0.475-0.474-0.838-1.039-1.09-1.694c-0.253-0.655-0.379-1.362-0.379-2.121
		c0-0.773,0.134-1.516,0.403-2.228c0.268-0.71,0.664-1.334,1.185-1.871c0.41-0.411,0.892-0.737,1.445-0.983
		c0.552-0.244,1.185-0.367,1.896-0.367c0.805,0,1.464,0.139,1.978,0.414c0.513,0.277,0.92,0.573,1.221,0.89
		c0.315,0.331,0.568,0.69,0.758,1.077c0.19,0.388,0.332,0.771,0.426,1.149c0.095,0.379,0.154,0.742,0.178,1.09
		c0.023,0.348,0.036,0.647,0.036,0.9v0.285h-7.156c0.031,0.362,0.119,0.727,0.26,1.09c0.142,0.363,0.339,0.671,0.592,0.924
		c0.269,0.269,0.561,0.442,0.877,0.521c0.315,0.079,0.616,0.118,0.9,0.118c0.616,0,1.145-0.166,1.587-0.497
		c0.205-0.158,0.383-0.332,0.533-0.521c0.15-0.19,0.28-0.379,0.391-0.569L28.521,497.598z M26.222,493.545
		c-0.095-0.553-0.332-1.003-0.71-1.351c-0.158-0.142-0.364-0.271-0.616-0.391c-0.253-0.118-0.569-0.179-0.948-0.179
		c-0.412,0-0.746,0.068-1.008,0.203c-0.26,0.134-0.469,0.279-0.627,0.438c-0.348,0.316-0.584,0.742-0.71,1.279H26.222z"/>
	<path style="fill:#333332;" d="M33.377,482.599v17.273h-2.369v-17.273H33.377z"/>
	<path style="fill:#333332;" d="M38.637,505.298h-2.369v-15.402h2.369v1.091c0.424-0.505,0.895-0.857,1.414-1.054
		c0.518-0.199,1.028-0.297,1.531-0.297c0.659,0,1.28,0.123,1.86,0.367c0.582,0.246,1.091,0.593,1.531,1.042
		c0.439,0.451,0.789,0.995,1.048,1.636c0.259,0.64,0.389,1.354,0.389,2.144c0,0.838-0.141,1.588-0.423,2.252
		c-0.283,0.663-0.648,1.224-1.095,1.682c-0.448,0.459-0.962,0.811-1.542,1.055c-0.582,0.245-1.162,0.367-1.743,0.367
		c-0.142,0-0.326-0.016-0.554-0.047c-0.228-0.032-0.475-0.1-0.742-0.202c-0.266-0.103-0.549-0.253-0.848-0.449
		c-0.298-0.198-0.573-0.455-0.824-0.771V505.298z M41.291,491.721c-0.359,0-0.708,0.066-1.045,0.202
		c-0.336,0.134-0.635,0.331-0.893,0.592c-0.258,0.26-0.466,0.597-0.623,1.006c-0.156,0.412-0.234,0.886-0.234,1.423
		c0,0.521,0.078,0.98,0.234,1.374c0.157,0.395,0.364,0.723,0.623,0.983s0.557,0.459,0.893,0.593s0.686,0.201,1.045,0.201
		c0.423,0,0.803-0.083,1.14-0.249c0.336-0.165,0.623-0.395,0.858-0.688c0.234-0.292,0.418-0.631,0.552-1.019
		c0.134-0.387,0.2-0.794,0.2-1.221c0-0.441-0.066-0.856-0.2-1.244c-0.133-0.386-0.317-0.726-0.552-1.018
		c-0.235-0.293-0.521-0.521-0.858-0.688S41.714,491.721,41.291,491.721z"/>
	<path style="fill:#333332;" d="M56.716,491.057c0.236-0.299,0.487-0.544,0.754-0.733c0.267-0.19,0.533-0.336,0.8-0.439
		c0.267-0.102,0.519-0.169,0.754-0.2c0.235-0.032,0.447-0.048,0.636-0.048c0.659,0,1.279,0.123,1.86,0.367
		c0.582,0.246,1.091,0.593,1.531,1.042c0.439,0.451,0.789,1,1.048,1.646c0.259,0.648,0.389,1.375,0.389,2.182
		c0,0.693-0.106,1.357-0.318,1.989c-0.212,0.633-0.521,1.197-0.93,1.694c-0.408,0.497-0.91,0.893-1.507,1.185
		c-0.597,0.292-1.279,0.438-2.049,0.438c-0.172,0-0.377-0.016-0.612-0.047c-0.235-0.032-0.487-0.096-0.754-0.19
		c-0.267-0.095-0.537-0.228-0.812-0.402c-0.275-0.174-0.538-0.411-0.79-0.711v1.043h-2.369v-17.273h2.369V491.057z M59.369,491.721
		c-0.36,0-0.709,0.066-1.045,0.202c-0.336,0.134-0.634,0.331-0.893,0.592c-0.258,0.26-0.466,0.597-0.623,1.006
		c-0.156,0.412-0.234,0.886-0.234,1.423c0,0.521,0.078,0.98,0.234,1.374c0.157,0.395,0.365,0.723,0.623,0.983
		s0.556,0.459,0.893,0.593s0.686,0.201,1.045,0.201c0.423,0,0.803-0.083,1.14-0.249c0.336-0.165,0.623-0.395,0.858-0.688
		c0.234-0.292,0.418-0.631,0.551-1.019c0.134-0.387,0.201-0.794,0.201-1.221c0-0.441-0.066-0.856-0.201-1.244
		c-0.133-0.386-0.317-0.726-0.551-1.018c-0.235-0.293-0.521-0.521-0.858-0.688S59.792,491.721,59.369,491.721z"/>
	<path style="fill:#333332;" d="M66.905,489.896h2.369v0.9c0.125-0.157,0.274-0.311,0.445-0.462
		c0.172-0.148,0.343-0.272,0.516-0.367c0.218-0.125,0.44-0.213,0.667-0.26c0.227-0.049,0.473-0.071,0.738-0.071
		c0.281,0,0.575,0.03,0.879,0.093c0.304,0.062,0.613,0.186,0.925,0.372l-0.937,2.07c-0.266-0.173-0.497-0.275-0.691-0.309
		c-0.196-0.03-0.355-0.047-0.48-0.047c-0.251,0-0.497,0.032-0.739,0.096c-0.242,0.063-0.472,0.214-0.69,0.453
		c-0.313,0.349-0.497,0.738-0.552,1.167c-0.055,0.43-0.082,0.812-0.082,1.145v5.196h-2.369V489.896z"/>
	<path style="fill:#333332;" d="M81.524,489.896h2.37v9.977h-2.37v-1.043c-0.252,0.3-0.514,0.537-0.789,0.711
		c-0.275,0.175-0.546,0.308-0.813,0.402s-0.518,0.158-0.754,0.19c-0.235,0.031-0.439,0.047-0.612,0.047
		c-0.769,0-1.452-0.146-2.049-0.438c-0.597-0.292-1.099-0.688-1.507-1.185c-0.409-0.497-0.718-1.062-0.93-1.694
		c-0.212-0.632-0.318-1.296-0.318-1.989c0-0.807,0.129-1.533,0.389-2.182c0.259-0.646,0.608-1.195,1.048-1.646
		c0.439-0.449,0.95-0.796,1.531-1.042c0.58-0.244,1.2-0.367,1.86-0.367c0.189,0,0.401,0.016,0.636,0.048
		c0.235,0.031,0.487,0.099,0.754,0.2c0.266,0.104,0.533,0.249,0.8,0.439c0.267,0.189,0.519,0.435,0.754,0.733V489.896z
		 M78.871,491.721c-0.423,0-0.803,0.083-1.14,0.249c-0.337,0.166-0.623,0.395-0.857,0.688c-0.235,0.292-0.419,0.632-0.553,1.018
		c-0.134,0.388-0.2,0.803-0.2,1.244c0,0.427,0.066,0.834,0.2,1.221c0.133,0.388,0.317,0.727,0.553,1.019
		c0.234,0.293,0.52,0.522,0.857,0.688c0.336,0.166,0.716,0.249,1.14,0.249c0.359,0,0.708-0.067,1.045-0.201
		c0.336-0.134,0.635-0.332,0.893-0.593s0.465-0.589,0.623-0.983c0.156-0.394,0.234-0.853,0.234-1.374
		c0-0.537-0.078-1.011-0.234-1.423c-0.157-0.409-0.364-0.746-0.623-1.006c-0.258-0.261-0.557-0.458-0.893-0.592
		C79.578,491.787,79.23,491.721,78.871,491.721z"/>
	<path style="fill:#333332;" d="M86.807,489.896h2.37v0.925c0.25-0.284,0.505-0.505,0.764-0.663
		c0.258-0.157,0.505-0.276,0.741-0.355c0.235-0.079,0.454-0.126,0.658-0.144c0.204-0.015,0.377-0.022,0.518-0.022
		c0.455,0,0.851,0.052,1.188,0.154c0.336,0.102,0.619,0.226,0.846,0.367s0.412,0.288,0.553,0.438c0.141,0.15,0.25,0.279,0.33,0.391
		c0.188,0.269,0.336,0.604,0.446,1.008c0.109,0.402,0.165,0.991,0.165,1.764v6.114h-2.37v-5.545c0-0.632-0.054-1.125-0.162-1.481
		c-0.108-0.354-0.247-0.615-0.416-0.781c-0.17-0.166-0.359-0.265-0.567-0.296c-0.208-0.031-0.42-0.048-0.637-0.048
		c-0.261,0-0.512,0.024-0.751,0.07c-0.239,0.049-0.459,0.183-0.659,0.403c-0.201,0.222-0.359,0.558-0.475,1.008
		c-0.115,0.45-0.172,1.077-0.172,1.883v4.787h-2.37V489.896z"/>
	<path style="fill:#333332;" d="M105.573,482.599h2.37v17.273h-2.37v-1.043c-0.251,0.3-0.514,0.537-0.789,0.711
		c-0.275,0.175-0.546,0.308-0.813,0.402s-0.518,0.158-0.754,0.19c-0.235,0.031-0.439,0.047-0.612,0.047
		c-0.769,0-1.452-0.146-2.049-0.438c-0.597-0.292-1.099-0.688-1.507-1.185c-0.409-0.497-0.718-1.062-0.93-1.694
		c-0.212-0.632-0.318-1.296-0.318-1.989c0-0.807,0.129-1.533,0.389-2.182c0.259-0.646,0.608-1.195,1.048-1.646
		c0.44-0.449,0.95-0.796,1.531-1.042c0.58-0.244,1.2-0.367,1.86-0.367c0.189,0,0.401,0.016,0.636,0.048
		c0.235,0.031,0.487,0.099,0.754,0.2c0.266,0.104,0.533,0.249,0.8,0.439c0.267,0.189,0.519,0.435,0.754,0.733V482.599z
		 M102.92,491.721c-0.423,0-0.803,0.083-1.14,0.249c-0.337,0.166-0.623,0.395-0.857,0.688c-0.235,0.292-0.419,0.632-0.553,1.018
		c-0.134,0.388-0.199,0.803-0.199,1.244c0,0.427,0.065,0.834,0.199,1.221c0.133,0.388,0.317,0.727,0.553,1.019
		c0.234,0.293,0.52,0.522,0.857,0.688c0.336,0.166,0.716,0.249,1.14,0.249c0.359,0,0.708-0.067,1.045-0.201
		c0.337-0.134,0.635-0.332,0.893-0.593s0.466-0.589,0.623-0.983c0.156-0.394,0.234-0.853,0.234-1.374
		c0-0.537-0.078-1.011-0.234-1.423c-0.157-0.409-0.364-0.746-0.623-1.006c-0.258-0.261-0.556-0.458-0.893-0.592
		C103.627,491.787,103.279,491.721,102.92,491.721z"/>
	<path style="fill:#333332;" d="M115.241,492.526c-0.127-0.189-0.305-0.379-0.533-0.569c-0.229-0.188-0.525-0.283-0.889-0.283
		c-0.3,0-0.537,0.087-0.71,0.26c-0.143,0.143-0.213,0.316-0.213,0.521c0,0.236,0.11,0.427,0.332,0.568
		c0.079,0.048,0.166,0.096,0.26,0.143s0.268,0.135,0.521,0.261l1.185,0.592c0.268,0.127,0.521,0.261,0.758,0.403
		s0.45,0.315,0.64,0.521c0.268,0.269,0.458,0.556,0.568,0.864c0.111,0.309,0.166,0.637,0.166,0.983c0,0.459-0.079,0.878-0.236,1.256
		c-0.158,0.38-0.372,0.719-0.64,1.02c-0.396,0.427-0.829,0.719-1.304,0.876c-0.473,0.158-0.971,0.237-1.492,0.237
		c-0.316,0-0.664-0.039-1.042-0.118s-0.751-0.253-1.113-0.521c-0.285-0.221-0.537-0.489-0.759-0.805
		c-0.221-0.316-0.395-0.656-0.521-1.021l1.896-0.9c0.063,0.175,0.142,0.353,0.236,0.534c0.096,0.182,0.198,0.32,0.309,0.414
		c0.079,0.079,0.202,0.162,0.367,0.249c0.166,0.087,0.383,0.13,0.652,0.13c0.173,0,0.347-0.027,0.521-0.082
		c0.174-0.056,0.316-0.139,0.427-0.249c0.221-0.221,0.332-0.481,0.332-0.782c0-0.284-0.103-0.537-0.309-0.758
		c-0.142-0.143-0.296-0.261-0.461-0.355c-0.166-0.096-0.343-0.183-0.533-0.262l-0.854-0.402c-0.221-0.11-0.458-0.232-0.71-0.367
		s-0.474-0.297-0.664-0.485c-0.269-0.253-0.454-0.517-0.557-0.795c-0.102-0.275-0.153-0.571-0.153-0.888
		c0-0.411,0.07-0.801,0.213-1.173c0.142-0.371,0.347-0.69,0.616-0.96c0.221-0.236,0.529-0.454,0.924-0.65
		c0.395-0.199,0.9-0.297,1.517-0.297c0.363,0,0.691,0.04,0.983,0.118c0.292,0.079,0.581,0.213,0.865,0.403
		c0.173,0.11,0.363,0.265,0.569,0.462s0.395,0.454,0.569,0.771L115.241,492.526z"/>
	<path style="fill:#333332;" d="M127.371,492.076v7.796h-2.37v-7.796h-0.971v-2.181h0.971v-3.647h2.37v3.647h1.777v2.181H127.371z"
		/>
	<path style="fill:#333332;" d="M130.665,482.599h2.369v8.15c0.501-0.505,0.996-0.816,1.482-0.937
		c0.486-0.117,0.877-0.177,1.175-0.177c0.455,0,0.846,0.052,1.176,0.154c0.329,0.102,0.611,0.226,0.846,0.367
		c0.235,0.142,0.423,0.292,0.564,0.45c0.142,0.158,0.251,0.283,0.33,0.379c0.313,0.458,0.498,0.943,0.552,1.457
		c0.054,0.514,0.082,0.952,0.082,1.314v6.114h-2.369v-5.899c0-0.301-0.02-0.602-0.058-0.901c-0.039-0.301-0.166-0.576-0.382-0.829
		c-0.124-0.143-0.293-0.264-0.509-0.368c-0.216-0.102-0.47-0.153-0.763-0.153c-0.386,0-0.721,0.083-1.007,0.249
		c-0.284,0.166-0.504,0.359-0.658,0.58c-0.17,0.237-0.29,0.553-0.359,0.948s-0.104,0.916-0.104,1.563v4.811h-2.369V482.599z"/>
	<path style="fill:#333332;" d="M142.18,489.896h2.369v0.9c0.125-0.157,0.274-0.311,0.445-0.462
		c0.172-0.148,0.343-0.272,0.516-0.367c0.218-0.125,0.44-0.213,0.667-0.26c0.227-0.049,0.472-0.071,0.737-0.071
		c0.282,0,0.575,0.03,0.879,0.093c0.304,0.062,0.613,0.186,0.926,0.372l-0.937,2.07c-0.266-0.173-0.497-0.275-0.691-0.309
		c-0.196-0.03-0.356-0.047-0.48-0.047c-0.25,0-0.496,0.032-0.738,0.096s-0.473,0.214-0.69,0.453
		c-0.313,0.349-0.497,0.738-0.551,1.167c-0.055,0.43-0.082,0.812-0.082,1.145v5.196h-2.369V489.896z"/>
	<path style="fill:#333332;" d="M149.762,485.773c0-0.427,0.142-0.781,0.426-1.066c0.285-0.283,0.64-0.427,1.066-0.427
		s0.782,0.144,1.066,0.427c0.284,0.285,0.426,0.64,0.426,1.066c0,0.426-0.142,0.782-0.426,1.066
		c-0.285,0.284-0.64,0.426-1.066,0.426s-0.782-0.142-1.066-0.426C149.904,486.556,149.762,486.199,149.762,485.773z
		 M152.416,489.896v9.977h-2.369v-9.977H152.416z"/>
	<path style="fill:#333332;" d="M156.598,489.896l2.559,5.687l2.56-5.687h2.606l-5.166,10.687l-5.165-10.687H156.598z"/>
	<path style="fill:#333332;" d="M174.57,497.598c-0.222,0.379-0.478,0.727-0.77,1.042c-0.292,0.316-0.596,0.577-0.912,0.782
		c-0.411,0.269-0.869,0.462-1.374,0.58c-0.506,0.118-1.028,0.178-1.564,0.178c-0.664,0-1.271-0.095-1.825-0.284
		c-0.553-0.189-1.066-0.521-1.54-0.995c-0.474-0.474-0.838-1.039-1.09-1.694s-0.379-1.362-0.379-2.121
		c0-0.773,0.134-1.516,0.403-2.228c0.268-0.71,0.664-1.334,1.185-1.871c0.41-0.411,0.892-0.737,1.445-0.983
		c0.552-0.244,1.185-0.367,1.896-0.367c0.805,0,1.464,0.139,1.979,0.414c0.513,0.277,0.919,0.573,1.22,0.89
		c0.315,0.331,0.568,0.69,0.758,1.077c0.19,0.388,0.332,0.771,0.426,1.149c0.096,0.379,0.154,0.742,0.178,1.09
		c0.023,0.348,0.036,0.647,0.036,0.9v0.285h-7.156c0.031,0.362,0.119,0.727,0.26,1.09c0.142,0.363,0.34,0.671,0.592,0.924
		c0.269,0.269,0.561,0.442,0.877,0.521c0.315,0.079,0.616,0.118,0.9,0.118c0.616,0,1.145-0.166,1.587-0.497
		c0.206-0.158,0.383-0.332,0.533-0.521c0.15-0.19,0.281-0.379,0.392-0.569L174.57,497.598z M172.272,493.545
		c-0.094-0.553-0.332-1.003-0.71-1.351c-0.158-0.142-0.364-0.271-0.616-0.391c-0.253-0.118-0.569-0.179-0.948-0.179
		c-0.412,0-0.746,0.068-1.007,0.203c-0.26,0.134-0.47,0.279-0.628,0.438c-0.348,0.316-0.584,0.742-0.71,1.279H172.272z"/>
</g>
<rect x="8.412" y="367.707" style="fill:#333332;" width="126.371" height="23.694"/>
<g>
	<g>
		<path style="fill:#F8F1E9;" d="M85.734,21.979v17.75c-8.677-7.258-17.653-10.888-26.93-10.888
			c-10.223,0-18.834,3.672-25.835,11.017c-7.044,7.302-10.565,16.235-10.565,26.801c0,10.438,3.521,19.242,10.565,26.415
			c7.044,7.173,15.677,10.759,25.9,10.759c5.283,0,9.77-0.858,13.464-2.577c2.063-0.858,4.198-2.018,6.412-3.479
			c2.212-1.46,4.542-3.221,6.99-5.283v18.135c-8.591,4.876-17.611,7.313-27.06,7.313c-14.217,0-26.35-4.961-36.4-14.882
			C12.266,93.053,7.263,80.984,7.263,66.853c0-12.669,4.188-23.966,12.563-33.888C30.134,20.811,43.47,14.732,59.834,14.732
			C68.768,14.732,77.401,17.147,85.734,21.979z"/>
		<path style="fill:#F8F1E9;" d="M98.941,84.312c0-9.062,3.243-16.771,9.728-23.129c6.484-6.355,14.388-9.535,23.709-9.535
			c9.363,0,17.309,3.2,23.838,9.599c6.443,6.401,9.664,14.261,9.664,23.581c0,9.406-3.244,17.288-9.729,23.644
			c-6.529,6.314-14.539,9.471-24.031,9.471c-9.407,0-17.289-3.222-23.644-9.664C102.119,101.922,98.941,93.934,98.941,84.312z
			 M113.76,84.57c0,6.271,1.675,11.232,5.024,14.882c3.436,3.695,7.968,5.541,13.594,5.541c5.67,0,10.2-1.825,13.594-5.476
			c3.393-3.65,5.09-8.525,5.09-14.625c0-6.098-1.697-10.973-5.09-14.625c-3.436-3.693-7.968-5.541-13.594-5.541
			c-5.54,0-10.029,1.847-13.465,5.541C115.477,73.962,113.76,78.729,113.76,84.57z"/>
		<path style="fill:#F8F1E9;" d="M181.213,53.388h14.561v5.798c5.067-5.026,10.78-7.538,17.137-7.538
			c7.301,0,12.992,2.298,17.073,6.893c3.521,3.909,5.283,10.287,5.283,19.134v38.463h-14.561V81.135
			c0-6.177-0.86-10.445-2.577-12.805c-1.675-2.402-4.725-3.604-9.148-3.604c-4.811,0-8.225,1.588-10.244,4.762
			c-1.976,3.131-2.963,8.601-2.963,16.408v30.242h-14.561V53.388z"/>
		<path style="fill:#F8F1E9;" d="M290.028,64.082l-11.982,6.378c-1.891-3.822-4.231-5.734-7.023-5.734
			c-1.332,0-2.47,0.44-3.414,1.32c-0.945,0.879-1.417,2.005-1.417,3.377c0,2.403,2.791,4.784,8.375,7.144
			c7.687,3.304,12.863,6.349,15.526,9.137c2.663,2.789,3.995,6.542,3.995,11.26c0,6.049-2.234,11.111-6.701,15.187
			c-4.339,3.861-9.579,5.791-15.72,5.791c-10.524,0-17.975-5.132-22.356-15.398l12.37-5.734c1.717,3.007,3.028,4.919,3.93,5.734
			c1.761,1.633,3.866,2.448,6.314,2.448c4.896,0,7.345-2.233,7.345-6.7c0-2.577-1.891-4.982-5.669-7.215
			c-1.462-0.73-2.922-1.439-4.381-2.126c-1.461-0.687-2.943-1.396-4.446-2.126c-4.21-2.062-7.174-4.123-8.891-6.185
			c-2.19-2.619-3.286-5.992-3.286-10.115c0-5.454,1.869-9.964,5.604-13.53c3.823-3.564,8.462-5.347,13.917-5.347
			C280.149,51.648,286.12,55.793,290.028,64.082z"/>
		<path style="fill:#F8F1E9;" d="M304.912,35.193c0-2.534,0.923-4.725,2.77-6.571c1.846-1.847,4.059-2.771,6.636-2.771
			c2.62,0,4.854,0.924,6.701,2.771c1.846,1.804,2.771,4.017,2.771,6.636c0,2.62-0.924,4.854-2.771,6.7
			c-1.803,1.847-4.016,2.77-6.636,2.77c-2.621,0-4.854-0.923-6.701-2.77C305.834,40.112,304.912,37.857,304.912,35.193z
			 M321.598,53.388v62.751h-14.496V53.388H321.598z"/>
		<path style="fill:#F8F1E9;" d="M386.217,7.323h14.56v108.816h-14.56v-6.572c-5.713,5.584-12.177,8.376-19.393,8.376
			c-8.591,0-15.719-3.135-21.389-9.406c-5.627-6.399-8.44-14.388-8.44-23.966c0-9.364,2.813-17.18,8.44-23.451
			c5.583-6.314,12.605-9.471,21.067-9.471c7.344,0,13.916,3.006,19.714,9.02V7.323z M351.813,84.57
			c0,6.013,1.611,10.909,4.832,14.689c3.307,3.823,7.473,5.733,12.499,5.733c5.369,0,9.707-1.846,13.014-5.541
			c3.307-3.822,4.961-8.675,4.961-14.561c0-5.884-1.654-10.737-4.961-14.56c-3.308-3.737-7.602-5.605-12.886-5.605
			c-4.982,0-9.147,1.891-12.498,5.669C353.465,74.219,351.813,78.944,351.813,84.57z"/>
		<path style="fill:#F8F1E9;" d="M476.22,88.177h-44.97c0.387,5.155,2.062,9.256,5.026,12.306c2.964,3.007,6.765,4.51,11.403,4.51
			c3.607,0,6.593-0.858,8.956-2.577c2.318-1.717,4.96-4.896,7.924-9.535L476.8,99.71c-1.891,3.221-3.888,5.981-5.991,8.279
			c-2.105,2.298-4.36,4.187-6.765,5.669c-2.406,1.481-5.005,2.566-7.796,3.253c-2.793,0.687-5.82,1.031-9.085,1.031
			c-9.364,0-16.879-3.006-22.549-9.021c-5.669-6.056-8.504-14.086-8.504-24.094c0-9.922,2.749-17.953,8.246-24.095
			c5.541-6.056,12.886-9.084,22.034-9.084c9.234,0,16.536,2.942,21.905,8.826c5.325,5.841,7.987,13.938,7.987,24.288L476.22,88.177z
			 M461.337,76.323c-2.02-7.731-6.894-11.597-14.624-11.597c-1.762,0-3.415,0.269-4.961,0.805c-1.546,0.538-2.954,1.311-4.22,2.319
			c-1.267,1.01-2.352,2.223-3.253,3.64c-0.902,1.417-1.589,3.028-2.063,4.832H461.337z"/>
		<path style="fill:#F8F1E9;" d="M492.069,53.388h14.495v5.605c2.663-2.792,5.025-4.703,7.087-5.734
			c2.104-1.073,4.597-1.61,7.474-1.61c3.821,0,7.816,1.246,11.982,3.736l-6.636,13.272c-2.749-1.975-5.434-2.964-8.053-2.964
			c-7.903,0-11.854,5.971-11.854,17.911v32.535h-14.495V53.388z"/>
		<path style="fill:#F8F1E9;" d="M597.663,88.177h-44.97c0.387,5.155,2.063,9.256,5.025,12.306c2.964,3.007,6.765,4.51,11.403,4.51
			c3.607,0,6.593-0.858,8.956-2.577c2.318-1.717,4.959-4.896,7.923-9.535l12.241,6.829c-1.891,3.221-3.887,5.981-5.991,8.279
			c-2.105,2.298-4.36,4.187-6.765,5.669c-2.406,1.481-5.004,2.566-7.796,3.253s-5.819,1.031-9.084,1.031
			c-9.364,0-16.879-3.006-22.55-9.021c-5.669-6.056-8.503-14.086-8.503-24.094c0-9.922,2.747-17.953,8.246-24.095
			c5.541-6.056,12.886-9.084,22.034-9.084c9.233,0,16.535,2.942,21.904,8.826c5.326,5.841,7.988,13.938,7.988,24.288L597.663,88.177
			z M582.78,76.323c-2.02-7.731-6.894-11.597-14.625-11.597c-1.762,0-3.414,0.269-4.961,0.805c-1.545,0.538-2.953,1.311-4.22,2.319
			c-1.267,1.01-2.352,2.223-3.253,3.64c-0.902,1.417-1.589,3.028-2.063,4.832H582.78z"/>
		<path style="fill:#F8F1E9;" d="M659.769,7.323h14.561v108.816h-14.561v-6.572c-5.712,5.584-12.175,8.376-19.392,8.376
			c-8.59,0-15.719-3.135-21.389-9.406c-5.627-6.399-8.44-14.388-8.44-23.966c0-9.364,2.813-17.18,8.44-23.451
			c5.582-6.314,12.604-9.471,21.067-9.471c7.344,0,13.915,3.006,19.713,9.02V7.323z M625.367,84.57
			c0,6.013,1.609,10.909,4.832,14.689c3.306,3.823,7.472,5.733,12.497,5.733c5.369,0,9.707-1.846,13.015-5.541
			c3.306-3.822,4.961-8.675,4.961-14.561c0-5.884-1.655-10.737-4.961-14.56c-3.308-3.737-7.603-5.605-12.886-5.605
			c-4.982,0-9.147,1.891-12.498,5.669C627.02,74.219,625.367,78.944,625.367,84.57z"/>
		<path style="fill:#F8F1E9;" d="M55.711,139.268h14.561v108.815H55.711v-6.572c-5.713,5.584-12.176,8.376-19.392,8.376
			c-8.59,0-15.719-3.135-21.389-9.406c-5.627-6.399-8.44-14.388-8.44-23.966c0-9.363,2.813-17.18,8.44-23.45
			c5.583-6.315,12.604-9.472,21.067-9.472c7.344,0,13.915,3.007,19.713,9.021V139.268z M21.308,216.515
			c0,6.014,1.611,10.91,4.832,14.688c3.307,3.824,7.473,5.733,12.498,5.733c5.369,0,9.707-1.845,13.014-5.54
			c3.307-3.822,4.961-8.676,4.961-14.561c0-5.884-1.654-10.736-4.961-14.561c-3.307-3.736-7.602-5.604-12.885-5.604
			c-4.982,0-9.147,1.891-12.498,5.67C22.96,206.164,21.308,210.888,21.308,216.515z"/>
		<path style="fill:#F8F1E9;" d="M145.715,220.122h-44.97c0.387,5.154,2.063,9.256,5.026,12.306
			c2.963,3.006,6.764,4.509,11.403,4.509c3.608,0,6.593-0.857,8.956-2.577c2.319-1.717,4.96-4.896,7.924-9.534l12.241,6.829
			c-1.891,3.222-3.888,5.981-5.991,8.279c-2.105,2.298-4.36,4.188-6.765,5.669c-2.406,1.481-5.004,2.566-7.796,3.253
			c-2.793,0.687-5.82,1.031-9.084,1.031c-9.364,0-16.879-3.006-22.548-9.02c-5.67-6.056-8.505-14.087-8.505-24.095
			c0-9.922,2.749-17.953,8.247-24.096c5.541-6.056,12.885-9.084,22.034-9.084c9.234,0,16.535,2.942,21.904,8.826
			c5.326,5.842,7.988,13.938,7.988,24.288L145.715,220.122z M130.832,208.268c-2.019-7.731-6.894-11.597-14.624-11.597
			c-1.762,0-3.415,0.269-4.961,0.805c-1.546,0.538-2.954,1.312-4.22,2.32s-2.352,2.222-3.253,3.641
			c-0.902,1.416-1.589,3.027-2.062,4.831H130.832z"/>
		<path style="fill:#F8F1E9;" d="M198.028,196.025l-11.982,6.379c-1.891-3.821-4.231-5.733-7.023-5.733
			c-1.332,0-2.47,0.44-3.415,1.32c-0.945,0.879-1.417,2.005-1.417,3.377c0,2.402,2.792,4.783,8.375,7.144
			c7.687,3.303,12.863,6.349,15.526,9.137c2.662,2.789,3.995,6.543,3.995,11.26c0,6.051-2.234,11.112-6.7,15.188
			c-4.339,3.861-9.579,5.791-15.72,5.791c-10.524,0-17.975-5.132-22.356-15.397l12.37-5.734c1.717,3.008,3.028,4.919,3.93,5.734
			c1.76,1.633,3.866,2.447,6.314,2.447c4.896,0,7.345-2.231,7.345-6.699c0-2.577-1.891-4.982-5.669-7.216
			c-1.461-0.729-2.922-1.439-4.382-2.126c-1.46-0.688-2.942-1.396-4.445-2.127c-4.21-2.062-7.174-4.122-8.891-6.185
			c-2.19-2.619-3.286-5.991-3.286-10.115c0-5.454,1.869-9.964,5.605-13.529c3.822-3.564,8.461-5.347,13.917-5.347
			C188.149,183.593,194.12,187.738,198.028,196.025z"/>
		<path style="fill:#F8F1E9;" d="M212.911,167.139c0-2.534,0.923-4.726,2.77-6.572c1.846-1.847,4.059-2.771,6.636-2.771
			c2.62,0,4.854,0.924,6.701,2.771c1.846,1.804,2.771,4.017,2.771,6.636c0,2.62-0.925,4.854-2.771,6.701
			c-1.804,1.847-4.016,2.77-6.636,2.77c-2.621,0-4.854-0.923-6.701-2.77C213.834,172.056,212.911,169.802,212.911,167.139z
			 M229.597,185.332v62.751h-14.496v-62.751H229.597z"/>
		<path style="fill:#F8F1E9;" d="M308.648,246.602c0,2.963-0.097,5.572-0.29,7.828c-0.194,2.255-0.462,4.24-0.806,5.959
			c-1.031,4.725-3.05,8.782-6.056,12.176c-5.669,6.528-13.465,9.793-23.386,9.793c-8.376,0-15.27-2.266-20.682-6.797
			c-5.584-4.661-8.806-11.093-9.664-19.296h14.561c0.558,3.093,1.481,5.477,2.771,7.152c3.006,3.907,7.387,5.862,13.143,5.862
			c10.608,0,15.914-6.486,15.914-19.457v-8.762c-5.757,5.885-12.393,8.826-19.908,8.826c-8.547,0-15.549-3.093-21.003-9.277
			c-5.498-6.27-8.246-14.109-8.246-23.516c0-9.148,2.555-16.922,7.667-23.322c5.497-6.785,12.755-10.179,21.775-10.179
			c7.902,0,14.474,2.942,19.715,8.826v-7.087h14.495V246.602z M294.732,216.868c0-6.089-1.633-10.956-4.896-14.601
			c-3.309-3.731-7.538-5.597-12.693-5.597c-5.498,0-9.836,2.037-13.014,6.109c-2.878,3.646-4.316,8.364-4.316,14.153
			c0,5.703,1.438,10.378,4.316,14.021c3.134,3.989,7.473,5.981,13.014,5.981c5.542,0,9.922-2.015,13.143-6.046
			C293.25,227.246,294.732,222.572,294.732,216.868z"/>
		<path style="fill:#F8F1E9;" d="M326.945,185.332h14.56v5.798c5.067-5.025,10.781-7.537,17.138-7.537
			c7.301,0,12.992,2.298,17.073,6.894c3.521,3.908,5.283,10.287,5.283,19.134v38.463h-14.561v-35.004
			c0-6.177-0.859-10.445-2.577-12.805c-1.676-2.401-4.726-3.604-9.149-3.604c-4.811,0-8.225,1.588-10.244,4.762
			c-1.976,3.132-2.964,8.601-2.964,16.408v30.242h-14.56V185.332z"/>
		<path style="fill:#F8F1E9;" d="M455.023,198.862v49.221h-14.56v-49.221h-5.154v-13.53h5.154v-24.225
			c0-7.902,1.374-13.486,4.124-16.749c3.779-4.553,9.277-6.83,16.493-6.83c2.576,0,5.819,0.752,9.729,2.255v14.817l-1.482-0.772
			c-3.135-1.59-5.712-2.384-7.731-2.384c-2.576,0-4.315,0.924-5.218,2.77c-0.901,1.805-1.354,5.283-1.354,10.438v20.681h15.785
			v13.53H455.023z"/>
		<path style="fill:#F8F1E9;" d="M477.831,216.256c0-9.062,3.241-16.771,9.729-23.128c6.483-6.355,14.387-9.535,23.708-9.535
			c9.363,0,17.309,3.199,23.838,9.599c6.442,6.4,9.663,14.261,9.663,23.581c0,9.405-3.243,17.287-9.728,23.645
			c-6.529,6.313-14.539,9.47-24.031,9.47c-9.407,0-17.288-3.221-23.644-9.664C481.009,233.867,477.831,225.878,477.831,216.256z
			 M492.647,216.515c0,6.271,1.676,11.232,5.025,14.882c3.437,3.695,7.968,5.54,13.595,5.54c5.669,0,10.2-1.824,13.594-5.476
			c3.392-3.649,5.09-8.525,5.09-14.625c0-6.099-1.698-10.973-5.09-14.624c-3.436-3.693-7.968-5.541-13.594-5.541
			c-5.54,0-10.029,1.848-13.466,5.541C494.366,205.906,492.647,210.673,492.647,216.515z"/>
		<path style="fill:#F8F1E9;" d="M560.103,185.332h14.496v5.605c2.663-2.792,5.025-4.703,7.087-5.735
			c2.104-1.071,4.595-1.609,7.473-1.609c3.823,0,7.817,1.246,11.983,3.736l-6.635,13.271c-2.75-1.975-5.434-2.963-8.055-2.963
			c-7.903,0-11.854,5.97-11.854,17.91v32.535h-14.496V185.332z"/>
	</g>
	<g>
		<g>
			<path style="fill:#F8F1E9;" d="M487.309,307.231v19.263c-3.307-4.036-6.271-6.808-8.891-8.311
				c-2.577-1.547-5.604-2.319-9.084-2.319c-5.455,0-9.985,1.911-13.593,5.733c-3.608,3.822-5.413,8.611-5.413,14.367
				c0,5.885,1.739,10.717,5.219,14.496c3.522,3.779,8.01,5.669,13.465,5.669c3.48,0,6.55-0.751,9.213-2.255
				c2.578-1.46,5.605-4.295,9.084-8.504v19.135c-5.884,3.049-11.769,4.574-17.652,4.574c-9.707,0-17.825-3.135-24.353-9.407
				c-6.529-6.313-9.793-14.151-9.793-23.515s3.307-17.266,9.922-23.709c6.613-6.442,14.731-9.664,24.353-9.664
				C475.971,302.785,481.811,304.268,487.309,307.231z"/>
			<path style="fill:#F8F1E9;" d="M501.354,304.524h14.495v5.605c2.663-2.792,5.025-4.703,7.088-5.733
				c2.104-1.074,4.595-1.611,7.473-1.611c3.822,0,7.816,1.246,11.983,3.737l-6.637,13.271c-2.748-1.976-5.434-2.964-8.053-2.964
				c-7.903,0-11.854,5.971-11.854,17.91v32.535h-14.495V304.524z"/>
			<path style="fill:#F8F1E9;" d="M606.172,339.314h-44.969c0.386,5.154,2.062,9.257,5.024,12.307
				c2.964,3.006,6.766,4.509,11.404,4.509c3.607,0,6.593-0.859,8.954-2.577c2.32-1.717,4.961-4.896,7.925-9.534l12.24,6.829
				c-1.89,3.221-3.887,5.981-5.991,8.277c-2.104,2.299-4.359,4.188-6.764,5.671c-2.407,1.481-5.004,2.565-7.797,3.253
				c-2.792,0.688-5.819,1.031-9.084,1.031c-9.363,0-16.88-3.006-22.549-9.021c-5.669-6.056-8.504-14.087-8.504-24.095
				c0-9.922,2.748-17.953,8.246-24.096c5.541-6.056,12.886-9.084,22.034-9.084c9.234,0,16.535,2.942,21.905,8.827
				c5.325,5.841,7.988,13.938,7.988,24.288L606.172,339.314z M591.289,327.461c-2.019-7.731-6.894-11.597-14.625-11.597
				c-1.76,0-3.414,0.269-4.96,0.805c-1.547,0.538-2.953,1.311-4.22,2.319c-1.268,1.01-2.352,2.223-3.254,3.64
				c-0.902,1.418-1.59,3.028-2.061,4.833H591.289z"/>
			<path style="fill:#F8F1E9;" d="M669.056,304.524h14.56v62.751h-14.56v-6.571c-5.971,5.584-12.394,8.376-19.264,8.376
				c-8.677,0-15.85-3.135-21.52-9.407c-5.627-6.398-8.438-14.388-8.438-23.966c0-9.406,2.812-17.244,8.438-23.516
				c5.627-6.271,12.671-9.406,21.132-9.406c7.303,0,13.853,3.008,19.651,9.02V304.524z M634.651,335.707
				c0,6.014,1.61,10.91,4.832,14.689c3.308,3.822,7.474,5.733,12.499,5.733c5.368,0,9.706-1.847,13.014-5.541
				c3.308-3.821,4.961-8.675,4.961-14.56c0-5.884-1.653-10.737-4.961-14.56c-3.308-3.737-7.603-5.605-12.885-5.605
				c-4.983,0-9.149,1.891-12.499,5.669C636.304,325.356,634.651,330.081,634.651,335.707z"/>
			<path style="fill:#F8F1E9;" d="M716.859,318.055v49.221h-14.497v-49.221h-6.184v-13.53h6.184v-23h14.497v23h11.274v13.53H716.859
				z"/>
			<path style="fill:#F8F1E9;" d="M735.801,286.33c0-2.533,0.923-4.724,2.77-6.571c1.847-1.846,4.06-2.77,6.637-2.77
				c2.618,0,4.854,0.924,6.7,2.77c1.846,1.804,2.771,4.017,2.771,6.637c0,2.619-0.925,4.854-2.771,6.699
				c-1.805,1.848-4.017,2.771-6.637,2.771s-4.854-0.924-6.7-2.771C736.724,291.249,735.801,288.993,735.801,286.33z
				 M752.486,304.524v62.751h-14.495v-62.751H752.486z"/>
			<path style="fill:#F8F1E9;" d="M777.867,304.524l16.235,35.241l16.172-35.241h16.3l-32.6,67.068l-32.343-67.068H777.867z"/>
			<path style="fill:#F8F1E9;" d="M892.032,339.314h-44.969c0.388,5.154,2.062,9.257,5.025,12.307
				c2.964,3.006,6.765,4.509,11.403,4.509c3.608,0,6.593-0.859,8.955-2.577c2.319-1.717,4.961-4.896,7.925-9.534l12.241,6.829
				c-1.89,3.221-3.888,5.981-5.991,8.277c-2.105,2.299-4.36,4.188-6.766,5.671c-2.405,1.481-5.004,2.565-7.795,3.253
				c-2.792,0.688-5.82,1.031-9.084,1.031c-9.363,0-16.88-3.006-22.549-9.021c-5.671-6.056-8.505-14.087-8.505-24.095
				c0-9.922,2.749-17.953,8.246-24.096c5.541-6.056,12.886-9.084,22.034-9.084c9.234,0,16.535,2.942,21.905,8.827
				c5.325,5.841,7.989,13.938,7.989,24.288L892.032,339.314z M877.15,327.461c-2.02-7.731-6.894-11.597-14.624-11.597
				c-1.762,0-3.415,0.269-4.962,0.805c-1.545,0.538-2.953,1.311-4.22,2.319c-1.267,1.01-2.352,2.223-3.253,3.64
				c-0.901,1.418-1.59,3.028-2.062,4.833H877.15z"/>
			<path style="fill:#F8F1E9;" d="M466.303,449.999v49.221h-14.495v-49.221h-6.186V436.47h6.186v-23.001h14.495v23.001h11.274
				v13.529H466.303z"/>
			<path style="fill:#F8F1E9;" d="M490.853,390.405h14.496v51.283c5.154-4.64,10.845-6.958,17.072-6.958
				c7.088,0,12.757,2.297,17.009,6.893c3.607,3.995,5.412,10.373,5.412,19.135v38.462h-14.496v-37.108
				c0-5.026-0.892-8.666-2.673-10.921c-1.783-2.255-4.651-3.382-8.602-3.382c-5.068,0-8.633,1.567-10.694,4.703
				c-2.021,3.179-3.028,8.633-3.028,16.364v30.344h-14.496V390.405z"/>
			<path style="fill:#F8F1E9;" d="M561.013,418.275c0-2.534,0.923-4.725,2.77-6.572c1.847-1.846,4.06-2.77,6.637-2.77
				c2.619,0,4.854,0.924,6.7,2.77c1.846,1.805,2.771,4.017,2.771,6.637c0,2.619-0.925,4.854-2.771,6.699
				c-1.805,1.848-4.017,2.771-6.637,2.771c-2.619,0-4.854-0.923-6.7-2.771C561.936,423.193,561.013,420.938,561.013,418.275z
				 M577.699,436.47v62.75h-14.496v-62.75H577.699z"/>
			<path style="fill:#F8F1E9;" d="M596.06,436.47h14.561v5.798c5.068-5.025,10.78-7.537,17.138-7.537
				c7.302,0,12.992,2.297,17.073,6.893c3.521,3.909,5.283,10.287,5.283,19.135v38.462h-14.561v-35.003
				c0-6.177-0.86-10.445-2.578-12.805c-1.675-2.401-4.725-3.604-9.147-3.604c-4.812,0-8.227,1.587-10.244,4.761
				c-1.976,3.133-2.964,8.601-2.964,16.408v30.242H596.06V436.47z"/>
			<path style="fill:#F8F1E9;" d="M682.906,390.405v66.358l20.423-20.294h19.458l-27.253,26.35l29.249,36.4h-18.813l-20.745-26.479
				l-2.319,2.319v24.159H668.41V390.405H682.906z"/>
			<path style="fill:#F8F1E9;" d="M789.146,471.259h-44.971c0.388,5.154,2.063,9.257,5.026,12.306
				c2.963,3.007,6.765,4.51,11.402,4.51c3.608,0,6.593-0.858,8.955-2.577c2.32-1.717,4.962-4.896,7.926-9.535l12.24,6.83
				c-1.89,3.222-3.888,5.98-5.991,8.278c-2.105,2.299-4.359,4.188-6.766,5.67c-2.405,1.481-5.004,2.565-7.795,3.253
				c-2.792,0.687-5.82,1.03-9.084,1.03c-9.363,0-16.88-3.006-22.549-9.02c-5.669-6.056-8.505-14.087-8.505-24.094
				c0-9.922,2.749-17.953,8.246-24.096c5.542-6.057,12.886-9.084,22.034-9.084c9.234,0,16.535,2.942,21.905,8.825
				c5.325,5.842,7.989,13.938,7.989,24.289L789.146,471.259z M774.263,459.405c-2.02-7.731-6.894-11.597-14.625-11.597
				c-1.762,0-3.415,0.269-4.96,0.805c-1.547,0.537-2.954,1.311-4.221,2.32c-1.268,1.009-2.352,2.222-3.254,3.64
				c-0.901,1.417-1.59,3.028-2.062,4.832H774.263z"/>
			<path style="fill:#F8F1E9;" d="M804.993,436.47h14.496v5.605c2.663-2.793,5.025-4.703,7.087-5.735
				c2.104-1.073,4.596-1.609,7.474-1.609c3.822,0,7.817,1.245,11.983,3.736l-6.637,13.271c-2.748-1.976-5.434-2.964-8.052-2.964
				c-7.904,0-11.855,5.971-11.855,17.911v32.534h-14.496V436.47z"/>
			<path style="fill:#F8F1E9;" d="M890.81,447.164l-11.983,6.378c-1.89-3.822-4.23-5.733-7.023-5.733
				c-1.331,0-2.47,0.439-3.414,1.318c-0.945,0.881-1.418,2.007-1.418,3.379c0,2.402,2.792,4.783,8.377,7.144
				c7.688,3.303,12.862,6.349,15.526,9.137c2.663,2.788,3.994,6.543,3.994,11.26c0,6.05-2.233,11.112-6.701,15.188
				c-4.338,3.861-9.577,5.79-15.72,5.79c-10.522,0-17.975-5.132-22.355-15.396l12.37-5.735c1.717,3.008,3.028,4.919,3.93,5.735
				c1.762,1.632,3.865,2.447,6.314,2.447c4.896,0,7.345-2.232,7.345-6.7c0-2.577-1.891-4.981-5.671-7.216
				c-1.46-0.729-2.92-1.438-4.381-2.126c-1.46-0.687-2.941-1.395-4.445-2.126c-4.21-2.062-7.173-4.123-8.891-6.185
				c-2.19-2.62-3.285-5.992-3.285-10.115c0-5.454,1.868-9.964,5.604-13.529c3.822-3.564,8.461-5.347,13.916-5.347
				C880.93,434.73,886.9,438.875,890.81,447.164z"/>
		</g>
	</g>
</g>
</svg>
