<?xml version="1.0" encoding="utf-8"?>
<!-- Generator: Adobe Illustrator 15.1.0, SVG Export Plug-In . SVG Version: 6.00 Build 0)  -->
<!DOCTYPE svg PUBLIC "-//W3C//DTD SVG 1.1//EN" "http://www.w3.org/Graphics/SVG/1.1/DTD/svg11.dtd">
<svg version="1.1" id="Layer_1" xmlns="http://www.w3.org/2000/svg" xmlns:xlink="http://www.w3.org/1999/xlink" x="0px" y="0px"
	 width="607.337px" height="843px" viewBox="0 0 607.337 843" enable-background="new 0 0 607.337 843" xml:space="preserve">
<g>
	<path fill="#333332" d="M67.004,778.574l5.28,13.38l5.399-14.34l5.221,14.34l5.46-13.38h3.3l-8.94,21.3l-5.22-14.19l-5.28,14.19
		l-8.52-21.3H67.004z"/>
	<path fill="#333332" d="M104.054,795.704c-0.28,0.479-0.605,0.92-0.975,1.32c-0.371,0.399-0.756,0.729-1.155,0.989
		c-0.521,0.341-1.101,0.585-1.74,0.735s-1.3,0.225-1.979,0.225c-0.84,0-1.61-0.12-2.311-0.359c-0.7-0.24-1.35-0.66-1.95-1.261
		c-0.6-0.6-1.06-1.314-1.38-2.145s-0.479-1.725-0.479-2.685c0-0.98,0.17-1.921,0.51-2.82c0.34-0.9,0.84-1.69,1.5-2.37
		c0.52-0.52,1.13-0.935,1.83-1.245c0.7-0.31,1.5-0.465,2.4-0.465c1.02,0,1.854,0.175,2.505,0.525
		c0.649,0.35,1.164,0.725,1.545,1.125c0.399,0.42,0.72,0.875,0.96,1.364c0.24,0.49,0.42,0.976,0.54,1.455
		c0.12,0.48,0.194,0.94,0.225,1.38c0.03,0.44,0.045,0.82,0.045,1.141v0.359h-9.06c0.04,0.461,0.149,0.921,0.33,1.38
		c0.18,0.461,0.43,0.851,0.75,1.171c0.34,0.34,0.709,0.56,1.109,0.659c0.4,0.101,0.78,0.15,1.141,0.15c0.779,0,1.449-0.21,2.01-0.63
		c0.26-0.2,0.484-0.42,0.675-0.66s0.355-0.479,0.495-0.72L104.054,795.704z M101.144,790.574c-0.12-0.7-0.42-1.271-0.899-1.71
		c-0.2-0.181-0.461-0.346-0.78-0.495c-0.32-0.15-0.72-0.226-1.2-0.226c-0.521,0-0.945,0.086-1.274,0.256
		c-0.33,0.17-0.596,0.354-0.796,0.555c-0.439,0.4-0.739,0.94-0.899,1.62H101.144z"/>
	<path fill="#333332" d="M123.973,789.824c-0.68-0.66-1.33-1.085-1.949-1.275c-0.62-0.189-1.16-0.285-1.62-0.285
		c-0.7,0-1.271,0.115-1.71,0.346c-0.44,0.229-0.801,0.484-1.08,0.765c-0.28,0.28-0.53,0.66-0.75,1.14
		c-0.221,0.48-0.33,1.07-0.33,1.771c0,0.74,0.12,1.36,0.359,1.859c0.24,0.501,0.5,0.891,0.78,1.171
		c0.34,0.319,0.735,0.569,1.186,0.75c0.449,0.18,0.944,0.27,1.484,0.27c0.601,0,1.225-0.125,1.875-0.375s1.235-0.665,1.755-1.245
		v3.271c-0.359,0.22-0.845,0.439-1.455,0.659c-0.61,0.221-1.405,0.33-2.385,0.33c-1.061,0-1.976-0.149-2.745-0.449
		c-0.77-0.301-1.455-0.771-2.055-1.41c-0.46-0.46-0.875-1.075-1.245-1.846c-0.37-0.77-0.555-1.734-0.555-2.895
		c0-1.2,0.205-2.2,0.615-3c0.409-0.8,0.845-1.43,1.305-1.89c0.5-0.5,1.155-0.936,1.965-1.306c0.81-0.369,1.845-0.555,3.105-0.555
		c0.479,0,1.005,0.056,1.574,0.165c0.57,0.11,1.195,0.355,1.875,0.735V789.824z"/>
	<path fill="#333332" d="M126.793,785.954h3v1.14c0.157-0.199,0.346-0.395,0.563-0.585c0.217-0.189,0.435-0.345,0.652-0.465
		c0.276-0.16,0.559-0.27,0.846-0.33c0.286-0.06,0.598-0.09,0.934-0.09c0.356,0,0.727,0.039,1.112,0.117
		c0.386,0.079,0.776,0.235,1.172,0.47l-1.187,2.623c-0.336-0.22-0.628-0.35-0.875-0.39s-0.449-0.061-0.607-0.061
		c-0.317,0-0.628,0.04-0.935,0.121s-0.599,0.271-0.875,0.573c-0.396,0.442-0.628,0.936-0.697,1.479s-0.104,1.026-0.104,1.448v6.579
		h-3V785.954z"/>
	<path fill="#333332" d="M147.133,795.704c-0.28,0.479-0.605,0.92-0.975,1.32c-0.371,0.399-0.756,0.729-1.155,0.989
		c-0.521,0.341-1.101,0.585-1.74,0.735s-1.3,0.225-1.979,0.225c-0.84,0-1.61-0.12-2.311-0.359c-0.7-0.24-1.35-0.66-1.95-1.261
		c-0.6-0.6-1.06-1.314-1.38-2.145s-0.479-1.725-0.479-2.685c0-0.98,0.17-1.921,0.51-2.82c0.34-0.9,0.84-1.69,1.5-2.37
		c0.52-0.52,1.13-0.935,1.83-1.245c0.7-0.31,1.5-0.465,2.4-0.465c1.02,0,1.854,0.175,2.505,0.525
		c0.649,0.35,1.164,0.725,1.545,1.125c0.399,0.42,0.72,0.875,0.96,1.364c0.24,0.49,0.42,0.976,0.54,1.455
		c0.12,0.48,0.194,0.94,0.225,1.38c0.03,0.44,0.045,0.82,0.045,1.141v0.359h-9.06c0.04,0.461,0.149,0.921,0.33,1.38
		c0.18,0.461,0.43,0.851,0.75,1.171c0.34,0.34,0.709,0.56,1.109,0.659c0.4,0.101,0.78,0.15,1.141,0.15c0.779,0,1.449-0.21,2.01-0.63
		c0.26-0.2,0.484-0.42,0.675-0.66s0.355-0.479,0.495-0.72L147.133,795.704z M144.223,790.574c-0.12-0.7-0.42-1.271-0.899-1.71
		c-0.2-0.181-0.461-0.346-0.78-0.495c-0.32-0.15-0.72-0.226-1.2-0.226c-0.521,0-0.945,0.086-1.274,0.256
		c-0.33,0.17-0.596,0.354-0.796,0.555c-0.439,0.4-0.739,0.94-0.899,1.62H144.223z"/>
	<path fill="#333332" d="M159.463,785.954h3v12.63h-3v-1.32c-0.318,0.381-0.651,0.681-0.999,0.9c-0.348,0.221-0.69,0.39-1.029,0.51
		c-0.338,0.12-0.655,0.2-0.953,0.24c-0.299,0.04-0.558,0.06-0.775,0.06c-0.975,0-1.839-0.185-2.595-0.555s-1.392-0.87-1.908-1.5
		s-0.909-1.345-1.178-2.145s-0.402-1.64-0.402-2.521c0-1.02,0.163-1.939,0.491-2.76s0.771-1.516,1.327-2.085
		c0.557-0.57,1.202-1.01,1.938-1.32c0.735-0.31,1.521-0.465,2.355-0.465c0.238,0,0.507,0.021,0.806,0.06
		c0.298,0.041,0.615,0.126,0.953,0.256c0.339,0.13,0.677,0.314,1.015,0.555s0.656,0.55,0.954,0.93V785.954z M156.104,788.264
		c-0.536,0-1.017,0.105-1.443,0.315c-0.426,0.21-0.788,0.5-1.085,0.87c-0.298,0.37-0.531,0.8-0.699,1.29
		c-0.169,0.49-0.253,1.015-0.253,1.575c0,0.539,0.084,1.055,0.253,1.545c0.168,0.49,0.401,0.92,0.699,1.29
		c0.297,0.37,0.659,0.659,1.085,0.869c0.427,0.21,0.907,0.315,1.443,0.315c0.455,0,0.896-0.085,1.323-0.255s0.804-0.42,1.131-0.75
		s0.589-0.745,0.787-1.245c0.199-0.5,0.298-1.08,0.298-1.74c0-0.68-0.099-1.279-0.298-1.8c-0.198-0.52-0.46-0.945-0.787-1.275
		c-0.327-0.329-0.704-0.579-1.131-0.75C157,788.35,156.559,788.264,156.104,788.264z"/>
	<path fill="#333332" d="M169.272,788.714v9.87h-3v-9.87h-1.23v-2.76h1.23v-4.62h3v4.62h2.25v2.76H169.272z"/>
	<path fill="#333332" d="M184.752,795.704c-0.28,0.479-0.605,0.92-0.975,1.32c-0.371,0.399-0.756,0.729-1.155,0.989
		c-0.521,0.341-1.101,0.585-1.74,0.735s-1.3,0.225-1.979,0.225c-0.84,0-1.61-0.12-2.311-0.359c-0.7-0.24-1.35-0.66-1.95-1.261
		c-0.6-0.6-1.06-1.314-1.38-2.145s-0.479-1.725-0.479-2.685c0-0.98,0.17-1.921,0.51-2.82c0.34-0.9,0.84-1.69,1.5-2.37
		c0.52-0.52,1.13-0.935,1.83-1.245c0.7-0.31,1.5-0.465,2.4-0.465c1.02,0,1.854,0.175,2.505,0.525
		c0.649,0.35,1.164,0.725,1.545,1.125c0.399,0.42,0.72,0.875,0.96,1.364c0.24,0.49,0.42,0.976,0.54,1.455
		c0.12,0.48,0.194,0.94,0.225,1.38c0.03,0.44,0.045,0.82,0.045,1.141v0.359h-9.06c0.04,0.461,0.149,0.921,0.33,1.38
		c0.18,0.461,0.43,0.851,0.75,1.171c0.34,0.34,0.709,0.56,1.109,0.659c0.4,0.101,0.78,0.15,1.141,0.15c0.779,0,1.449-0.21,2.01-0.63
		c0.26-0.2,0.484-0.42,0.675-0.66s0.355-0.479,0.495-0.72L184.752,795.704z M181.842,790.574c-0.12-0.7-0.42-1.271-0.899-1.71
		c-0.2-0.181-0.461-0.346-0.78-0.495c-0.32-0.15-0.72-0.226-1.2-0.226c-0.521,0-0.945,0.086-1.274,0.256
		c-0.33,0.17-0.596,0.354-0.796,0.555c-0.439,0.4-0.739,0.94-0.899,1.62H181.842z"/>
	<path fill="#333332" d="M204.072,776.714h3v21.87h-3v-1.32c-0.318,0.381-0.651,0.681-0.999,0.9c-0.348,0.221-0.69,0.39-1.029,0.51
		c-0.338,0.12-0.655,0.2-0.953,0.24c-0.299,0.04-0.558,0.06-0.775,0.06c-0.975,0-1.839-0.185-2.595-0.555s-1.392-0.87-1.908-1.5
		s-0.909-1.345-1.178-2.145s-0.402-1.64-0.402-2.521c0-1.02,0.163-1.939,0.491-2.76s0.771-1.516,1.327-2.085
		c0.557-0.57,1.202-1.01,1.938-1.32c0.735-0.31,1.521-0.465,2.355-0.465c0.238,0,0.507,0.021,0.806,0.06
		c0.298,0.041,0.615,0.126,0.953,0.256c0.339,0.13,0.677,0.314,1.015,0.555s0.656,0.55,0.954,0.93V776.714z M200.713,788.264
		c-0.536,0-1.017,0.105-1.443,0.315c-0.426,0.21-0.788,0.5-1.085,0.87c-0.298,0.37-0.531,0.8-0.699,1.29
		c-0.169,0.49-0.253,1.015-0.253,1.575c0,0.539,0.084,1.055,0.253,1.545c0.168,0.49,0.401,0.92,0.699,1.29
		c0.297,0.37,0.659,0.659,1.085,0.869c0.427,0.21,0.907,0.315,1.443,0.315c0.455,0,0.896-0.085,1.323-0.255s0.804-0.42,1.131-0.75
		s0.589-0.745,0.787-1.245c0.199-0.5,0.298-1.08,0.298-1.74c0-0.68-0.099-1.279-0.298-1.8c-0.198-0.52-0.46-0.945-0.787-1.275
		c-0.327-0.329-0.704-0.579-1.131-0.75C201.609,788.35,201.168,788.264,200.713,788.264z"/>
	<path fill="#333332" d="M210.432,780.734c0-0.54,0.18-0.99,0.54-1.351c0.36-0.359,0.81-0.54,1.35-0.54s0.99,0.181,1.351,0.54
		c0.359,0.36,0.54,0.811,0.54,1.351s-0.181,0.989-0.54,1.35c-0.36,0.36-0.811,0.54-1.351,0.54s-0.989-0.18-1.35-0.54
		S210.432,781.274,210.432,780.734z M213.792,785.954v12.63h-3v-12.63H213.792z"/>
	<path fill="#333332" d="M222.971,789.284c-0.16-0.24-0.385-0.48-0.675-0.72c-0.29-0.24-0.665-0.36-1.125-0.36
		c-0.38,0-0.681,0.11-0.9,0.33c-0.18,0.18-0.27,0.4-0.27,0.66c0,0.3,0.14,0.54,0.42,0.72c0.1,0.06,0.21,0.12,0.33,0.18
		c0.12,0.061,0.34,0.17,0.66,0.33l1.5,0.75c0.34,0.16,0.66,0.33,0.96,0.51c0.3,0.181,0.569,0.4,0.81,0.66
		c0.34,0.341,0.58,0.705,0.72,1.096c0.14,0.39,0.21,0.805,0.21,1.244c0,0.581-0.1,1.11-0.3,1.591c-0.2,0.479-0.47,0.91-0.81,1.29
		c-0.5,0.539-1.05,0.91-1.65,1.109c-0.6,0.2-1.229,0.3-1.89,0.3c-0.4,0-0.84-0.05-1.32-0.149c-0.479-0.101-0.95-0.32-1.41-0.66
		c-0.359-0.28-0.68-0.62-0.96-1.021c-0.28-0.399-0.5-0.829-0.66-1.29l2.4-1.14c0.08,0.221,0.18,0.445,0.3,0.675
		c0.12,0.23,0.25,0.405,0.391,0.525c0.1,0.101,0.255,0.205,0.465,0.314c0.21,0.11,0.484,0.165,0.825,0.165
		c0.22,0,0.439-0.034,0.659-0.104c0.221-0.07,0.4-0.175,0.54-0.315c0.28-0.279,0.42-0.609,0.42-0.989c0-0.36-0.13-0.68-0.39-0.96
		c-0.18-0.181-0.375-0.33-0.585-0.45s-0.435-0.229-0.675-0.33l-1.08-0.51c-0.28-0.14-0.58-0.295-0.9-0.466
		c-0.319-0.169-0.6-0.375-0.84-0.614c-0.34-0.32-0.575-0.655-0.705-1.005c-0.13-0.351-0.194-0.726-0.194-1.125
		c0-0.521,0.09-1.016,0.27-1.485s0.439-0.875,0.78-1.215c0.279-0.3,0.67-0.575,1.17-0.825s1.14-0.375,1.92-0.375
		c0.46,0,0.875,0.05,1.245,0.15c0.37,0.1,0.734,0.27,1.095,0.51c0.22,0.14,0.46,0.335,0.72,0.585s0.5,0.575,0.721,0.975
		L222.971,789.284z"/>
	<path fill="#333332" d="M231.341,788.714v9.87h-3v-9.87h-1.23v-2.76h1.23v-4.62h3v4.62h2.25v2.76H231.341z"/>
	<path fill="#333332" d="M235.15,780.734c0-0.54,0.18-0.99,0.54-1.351c0.36-0.359,0.81-0.54,1.35-0.54s0.99,0.181,1.351,0.54
		c0.359,0.36,0.54,0.811,0.54,1.351s-0.181,0.989-0.54,1.35c-0.36,0.36-0.811,0.54-1.351,0.54s-0.989-0.18-1.35-0.54
		S235.15,781.274,235.15,780.734z M238.511,785.954v12.63h-3v-12.63H238.511z"/>
	<path fill="#333332" d="M242.141,785.954h3v1.17c0.317-0.36,0.64-0.64,0.968-0.84c0.327-0.2,0.64-0.35,0.938-0.45
		c0.298-0.1,0.576-0.16,0.834-0.18s0.476-0.03,0.655-0.03c0.575,0,1.076,0.065,1.503,0.195s0.784,0.284,1.072,0.465
		c0.287,0.18,0.521,0.365,0.699,0.555c0.179,0.19,0.317,0.355,0.417,0.495c0.238,0.34,0.427,0.765,0.565,1.275
		c0.139,0.51,0.209,1.255,0.209,2.234v7.74h-3v-7.02c0-0.8-0.069-1.426-0.205-1.875c-0.137-0.45-0.313-0.78-0.527-0.99
		s-0.454-0.335-0.718-0.375c-0.263-0.04-0.531-0.061-0.805-0.061c-0.332,0-0.649,0.03-0.951,0.09
		c-0.303,0.061-0.581,0.23-0.835,0.511s-0.454,0.705-0.6,1.274c-0.146,0.57-0.22,1.365-0.22,2.386v6.06h-3V785.954z"/>
	<path fill="#333332" d="M266.499,789.824c-0.68-0.66-1.33-1.085-1.949-1.275c-0.62-0.189-1.16-0.285-1.62-0.285
		c-0.7,0-1.271,0.115-1.71,0.346c-0.44,0.229-0.801,0.484-1.08,0.765c-0.28,0.28-0.53,0.66-0.75,1.14
		c-0.221,0.48-0.33,1.07-0.33,1.771c0,0.74,0.12,1.36,0.359,1.859c0.24,0.501,0.5,0.891,0.78,1.171
		c0.34,0.319,0.735,0.569,1.186,0.75c0.449,0.18,0.944,0.27,1.484,0.27c0.601,0,1.225-0.125,1.875-0.375s1.235-0.665,1.755-1.245
		v3.271c-0.359,0.22-0.845,0.439-1.455,0.659c-0.61,0.221-1.405,0.33-2.385,0.33c-1.061,0-1.976-0.149-2.745-0.449
		c-0.77-0.301-1.455-0.771-2.055-1.41c-0.46-0.46-0.875-1.075-1.245-1.846c-0.37-0.77-0.555-1.734-0.555-2.895
		c0-1.2,0.205-2.2,0.615-3c0.409-0.8,0.845-1.43,1.305-1.89c0.5-0.5,1.155-0.936,1.965-1.306c0.81-0.369,1.845-0.555,3.105-0.555
		c0.479,0,1.005,0.056,1.574,0.165c0.57,0.11,1.195,0.355,1.875,0.735V789.824z"/>
	<path fill="#333332" d="M272.41,788.714v9.87h-3v-9.87h-1.23v-2.76h1.23v-4.62h3v4.62h2.25v2.76H272.41z"/>
	<path fill="#333332" d="M276.219,780.734c0-0.54,0.18-0.99,0.54-1.351c0.36-0.359,0.81-0.54,1.35-0.54s0.99,0.181,1.351,0.54
		c0.359,0.36,0.54,0.811,0.54,1.351s-0.181,0.989-0.54,1.35c-0.36,0.36-0.811,0.54-1.351,0.54s-0.989-0.18-1.35-0.54
		S276.219,781.274,276.219,780.734z M279.579,785.954v12.63h-3v-12.63H279.579z"/>
	<path fill="#333332" d="M284.874,785.954l3.24,7.2l3.239-7.2h3.301l-6.54,13.53l-6.54-13.53H284.874z"/>
	<path fill="#333332" d="M307.629,795.704c-0.28,0.479-0.605,0.92-0.975,1.32c-0.371,0.399-0.756,0.729-1.155,0.989
		c-0.521,0.341-1.101,0.585-1.74,0.735s-1.3,0.225-1.979,0.225c-0.84,0-1.61-0.12-2.311-0.359c-0.7-0.24-1.35-0.66-1.95-1.261
		c-0.6-0.6-1.06-1.314-1.38-2.145s-0.479-1.725-0.479-2.685c0-0.98,0.17-1.921,0.51-2.82c0.34-0.9,0.84-1.69,1.5-2.37
		c0.52-0.52,1.13-0.935,1.83-1.245c0.7-0.31,1.5-0.465,2.4-0.465c1.02,0,1.854,0.175,2.505,0.525
		c0.649,0.35,1.164,0.725,1.545,1.125c0.399,0.42,0.72,0.875,0.96,1.364c0.24,0.49,0.42,0.976,0.54,1.455
		c0.12,0.48,0.194,0.94,0.225,1.38c0.03,0.44,0.045,0.82,0.045,1.141v0.359h-9.06c0.04,0.461,0.149,0.921,0.33,1.38
		c0.18,0.461,0.43,0.851,0.75,1.171c0.34,0.34,0.709,0.56,1.109,0.659c0.4,0.101,0.78,0.15,1.141,0.15c0.779,0,1.449-0.21,2.01-0.63
		c0.26-0.2,0.484-0.42,0.675-0.66s0.355-0.479,0.495-0.72L307.629,795.704z M304.719,790.574c-0.12-0.7-0.42-1.271-0.899-1.71
		c-0.2-0.181-0.461-0.346-0.78-0.495c-0.32-0.15-0.72-0.226-1.2-0.226c-0.521,0-0.945,0.086-1.274,0.256
		c-0.33,0.17-0.596,0.354-0.796,0.555c-0.439,0.4-0.739,0.94-0.899,1.62H304.719z"/>
	<path fill="#333332" d="M317.408,780.734c0-0.54,0.18-0.99,0.54-1.351c0.36-0.359,0.81-0.54,1.35-0.54s0.99,0.181,1.351,0.54
		c0.359,0.36,0.54,0.811,0.54,1.351s-0.181,0.989-0.54,1.35c-0.36,0.36-0.811,0.54-1.351,0.54s-0.989-0.18-1.35-0.54
		S317.408,781.274,317.408,780.734z M320.769,785.954v12.63h-3v-12.63H320.769z"/>
	<path fill="#333332" d="M333.608,776.714h3v21.87h-3v-1.32c-0.318,0.381-0.651,0.681-0.999,0.9c-0.348,0.221-0.69,0.39-1.029,0.51
		c-0.338,0.12-0.655,0.2-0.953,0.24c-0.299,0.04-0.558,0.06-0.775,0.06c-0.975,0-1.839-0.185-2.595-0.555s-1.392-0.87-1.908-1.5
		s-0.909-1.345-1.178-2.145s-0.402-1.64-0.402-2.521c0-1.02,0.163-1.939,0.491-2.76s0.771-1.516,1.327-2.085
		c0.557-0.57,1.202-1.01,1.938-1.32c0.735-0.31,1.521-0.465,2.355-0.465c0.238,0,0.507,0.021,0.806,0.06
		c0.298,0.041,0.615,0.126,0.953,0.256c0.339,0.13,0.677,0.314,1.015,0.555s0.656,0.55,0.954,0.93V776.714z M330.249,788.264
		c-0.536,0-1.017,0.105-1.443,0.315c-0.426,0.21-0.788,0.5-1.085,0.87c-0.298,0.37-0.531,0.8-0.699,1.29
		c-0.169,0.49-0.253,1.015-0.253,1.575c0,0.539,0.084,1.055,0.253,1.545c0.168,0.49,0.401,0.92,0.699,1.29
		c0.297,0.37,0.659,0.659,1.085,0.869c0.427,0.21,0.907,0.315,1.443,0.315c0.455,0,0.896-0.085,1.323-0.255s0.804-0.42,1.131-0.75
		s0.589-0.745,0.787-1.245c0.199-0.5,0.298-1.08,0.298-1.74c0-0.68-0.099-1.279-0.298-1.8c-0.198-0.52-0.46-0.945-0.787-1.275
		c-0.327-0.329-0.704-0.579-1.131-0.75C331.146,788.35,330.704,788.264,330.249,788.264z"/>
	<path fill="#333332" d="M351.638,795.704c-0.28,0.479-0.605,0.92-0.975,1.32c-0.371,0.399-0.756,0.729-1.155,0.989
		c-0.521,0.341-1.101,0.585-1.74,0.735s-1.3,0.225-1.979,0.225c-0.84,0-1.61-0.12-2.311-0.359c-0.7-0.24-1.35-0.66-1.95-1.261
		c-0.6-0.6-1.06-1.314-1.38-2.145s-0.479-1.725-0.479-2.685c0-0.98,0.17-1.921,0.51-2.82c0.34-0.9,0.84-1.69,1.5-2.37
		c0.52-0.52,1.13-0.935,1.83-1.245c0.7-0.31,1.5-0.465,2.4-0.465c1.02,0,1.854,0.175,2.505,0.525
		c0.649,0.35,1.164,0.725,1.545,1.125c0.399,0.42,0.72,0.875,0.96,1.364c0.24,0.49,0.42,0.976,0.54,1.455
		c0.12,0.48,0.194,0.94,0.225,1.38c0.03,0.44,0.045,0.82,0.045,1.141v0.359h-9.06c0.04,0.461,0.149,0.921,0.33,1.38
		c0.18,0.461,0.43,0.851,0.75,1.171c0.34,0.34,0.709,0.56,1.109,0.659c0.4,0.101,0.78,0.15,1.141,0.15c0.779,0,1.449-0.21,2.01-0.63
		c0.26-0.2,0.484-0.42,0.675-0.66s0.355-0.479,0.495-0.72L351.638,795.704z M348.728,790.574c-0.12-0.7-0.42-1.271-0.899-1.71
		c-0.2-0.181-0.461-0.346-0.78-0.495c-0.32-0.15-0.72-0.226-1.2-0.226c-0.521,0-0.945,0.086-1.274,0.256
		c-0.33,0.17-0.596,0.354-0.796,0.555c-0.439,0.4-0.739,0.94-0.899,1.62H348.728z"/>
	<path fill="#333332" d="M354.758,785.954h3v1.17c0.317-0.36,0.64-0.64,0.968-0.84c0.327-0.2,0.64-0.35,0.938-0.45
		c0.298-0.1,0.576-0.16,0.834-0.18s0.476-0.03,0.655-0.03c0.575,0,1.076,0.065,1.503,0.195s0.784,0.284,1.072,0.465
		c0.287,0.18,0.521,0.365,0.699,0.555c0.179,0.19,0.317,0.355,0.417,0.495c0.238,0.34,0.427,0.765,0.565,1.275
		c0.139,0.51,0.209,1.255,0.209,2.234v7.74h-3v-7.02c0-0.8-0.069-1.426-0.205-1.875c-0.137-0.45-0.313-0.78-0.527-0.99
		s-0.454-0.335-0.718-0.375c-0.263-0.04-0.531-0.061-0.805-0.061c-0.332,0-0.649,0.03-0.951,0.09
		c-0.303,0.061-0.581,0.23-0.835,0.511s-0.454,0.705-0.6,1.274c-0.146,0.57-0.22,1.365-0.22,2.386v6.06h-3V785.954z"/>
	<path fill="#333332" d="M372.428,788.714v9.87h-3v-9.87h-1.23v-2.76h1.23v-4.62h3v4.62h2.25v2.76H372.428z"/>
	<path fill="#333332" d="M376.237,780.734c0-0.54,0.18-0.99,0.54-1.351c0.36-0.359,0.81-0.54,1.35-0.54s0.99,0.181,1.351,0.54
		c0.359,0.36,0.54,0.811,0.54,1.351s-0.181,0.989-0.54,1.35c-0.36,0.36-0.811,0.54-1.351,0.54s-0.989-0.18-1.35-0.54
		S376.237,781.274,376.237,780.734z M379.598,785.954v12.63h-3v-12.63H379.598z"/>
	<path fill="#333332" d="M386.347,788.714v9.87h-3v-9.87h-1.23v-2.76h1.23v-4.62h3v4.62h2.25v2.76H386.347z"/>
	<path fill="#333332" d="M390.156,780.734c0-0.54,0.18-0.99,0.54-1.351c0.36-0.359,0.81-0.54,1.35-0.54s0.99,0.181,1.351,0.54
		c0.359,0.36,0.54,0.811,0.54,1.351s-0.181,0.989-0.54,1.35c-0.36,0.36-0.811,0.54-1.351,0.54s-0.989-0.18-1.35-0.54
		S390.156,781.274,390.156,780.734z M393.517,785.954v12.63h-3v-12.63H393.517z"/>
	<path fill="#333332" d="M408.485,795.704c-0.28,0.479-0.605,0.92-0.975,1.32c-0.371,0.399-0.756,0.729-1.155,0.989
		c-0.521,0.341-1.101,0.585-1.74,0.735s-1.3,0.225-1.979,0.225c-0.84,0-1.61-0.12-2.311-0.359c-0.7-0.24-1.35-0.66-1.95-1.261
		c-0.6-0.6-1.06-1.314-1.38-2.145s-0.479-1.725-0.479-2.685c0-0.98,0.17-1.921,0.51-2.82c0.34-0.9,0.84-1.69,1.5-2.37
		c0.52-0.52,1.13-0.935,1.83-1.245c0.7-0.31,1.5-0.465,2.4-0.465c1.02,0,1.854,0.175,2.505,0.525
		c0.649,0.35,1.164,0.725,1.545,1.125c0.399,0.42,0.72,0.875,0.96,1.364c0.24,0.49,0.42,0.976,0.54,1.455
		c0.12,0.48,0.194,0.94,0.225,1.38c0.03,0.44,0.045,0.82,0.045,1.141v0.359h-9.06c0.04,0.461,0.149,0.921,0.33,1.38
		c0.18,0.461,0.43,0.851,0.75,1.171c0.34,0.34,0.709,0.56,1.109,0.659c0.4,0.101,0.78,0.15,1.141,0.15c0.779,0,1.449-0.21,2.01-0.63
		c0.26-0.2,0.484-0.42,0.675-0.66s0.355-0.479,0.495-0.72L408.485,795.704z M405.575,790.574c-0.12-0.7-0.42-1.271-0.899-1.71
		c-0.2-0.181-0.461-0.346-0.78-0.495c-0.32-0.15-0.72-0.226-1.2-0.226c-0.521,0-0.945,0.086-1.274,0.256
		c-0.33,0.17-0.596,0.354-0.796,0.555c-0.439,0.4-0.739,0.94-0.899,1.62H405.575z"/>
	<path fill="#333332" d="M417.155,789.284c-0.16-0.24-0.385-0.48-0.675-0.72c-0.29-0.24-0.665-0.36-1.125-0.36
		c-0.38,0-0.681,0.11-0.9,0.33c-0.18,0.18-0.27,0.4-0.27,0.66c0,0.3,0.14,0.54,0.42,0.72c0.1,0.06,0.21,0.12,0.33,0.18
		c0.12,0.061,0.34,0.17,0.66,0.33l1.5,0.75c0.34,0.16,0.66,0.33,0.96,0.51c0.3,0.181,0.569,0.4,0.81,0.66
		c0.34,0.341,0.58,0.705,0.72,1.096c0.14,0.39,0.21,0.805,0.21,1.244c0,0.581-0.1,1.11-0.3,1.591c-0.2,0.479-0.47,0.91-0.81,1.29
		c-0.5,0.539-1.05,0.91-1.65,1.109c-0.6,0.2-1.229,0.3-1.89,0.3c-0.4,0-0.84-0.05-1.32-0.149c-0.479-0.101-0.95-0.32-1.41-0.66
		c-0.359-0.28-0.68-0.62-0.96-1.021c-0.28-0.399-0.5-0.829-0.66-1.29l2.4-1.14c0.08,0.221,0.18,0.445,0.3,0.675
		c0.12,0.23,0.25,0.405,0.391,0.525c0.1,0.101,0.255,0.205,0.465,0.314c0.21,0.11,0.484,0.165,0.825,0.165
		c0.22,0,0.439-0.034,0.659-0.104c0.221-0.07,0.4-0.175,0.54-0.315c0.28-0.279,0.42-0.609,0.42-0.989c0-0.36-0.13-0.68-0.39-0.96
		c-0.18-0.181-0.375-0.33-0.585-0.45s-0.435-0.229-0.675-0.33l-1.08-0.51c-0.28-0.14-0.58-0.295-0.9-0.466
		c-0.319-0.169-0.6-0.375-0.84-0.614c-0.34-0.32-0.575-0.655-0.705-1.005c-0.13-0.351-0.194-0.726-0.194-1.125
		c0-0.521,0.09-1.016,0.27-1.485s0.439-0.875,0.78-1.215c0.279-0.3,0.67-0.575,1.17-0.825s1.14-0.375,1.92-0.375
		c0.46,0,0.875,0.05,1.245,0.15c0.37,0.1,0.734,0.27,1.095,0.51c0.22,0.14,0.46,0.335,0.72,0.585s0.5,0.575,0.721,0.975
		L417.155,789.284z"/>
	<path fill="#333332" d="M423.936,794.834l2.64,1.02l-3.72,7.41l-1.98-0.81L423.936,794.834z"/>
	<path fill="#333332" d="M440.659,785.954l3.27,7.229l3.54-8.31l3.54,8.31l3.271-7.229h3.3l-6.57,13.53l-3.54-8.07l-3.54,8.07
		l-6.569-13.53H440.659z"/>
	<path fill="#333332" d="M470.584,795.704c-0.28,0.479-0.605,0.92-0.975,1.32c-0.371,0.399-0.756,0.729-1.155,0.989
		c-0.521,0.341-1.101,0.585-1.74,0.735s-1.3,0.225-1.979,0.225c-0.84,0-1.61-0.12-2.311-0.359c-0.7-0.24-1.35-0.66-1.95-1.261
		c-0.6-0.6-1.06-1.314-1.38-2.145s-0.479-1.725-0.479-2.685c0-0.98,0.17-1.921,0.51-2.82c0.34-0.9,0.84-1.69,1.5-2.37
		c0.52-0.52,1.13-0.935,1.83-1.245c0.7-0.31,1.5-0.465,2.4-0.465c1.02,0,1.854,0.175,2.505,0.525
		c0.649,0.35,1.164,0.725,1.545,1.125c0.399,0.42,0.72,0.875,0.96,1.364c0.24,0.49,0.42,0.976,0.54,1.455
		c0.12,0.48,0.194,0.94,0.225,1.38c0.03,0.44,0.045,0.82,0.045,1.141v0.359h-9.06c0.04,0.461,0.149,0.921,0.33,1.38
		c0.18,0.461,0.43,0.851,0.75,1.171c0.34,0.34,0.709,0.56,1.109,0.659c0.4,0.101,0.78,0.15,1.141,0.15c0.779,0,1.449-0.21,2.01-0.63
		c0.26-0.2,0.484-0.42,0.675-0.66s0.355-0.479,0.495-0.72L470.584,795.704z M467.674,790.574c-0.12-0.7-0.42-1.271-0.899-1.71
		c-0.2-0.181-0.461-0.346-0.78-0.495c-0.32-0.15-0.72-0.226-1.2-0.226c-0.521,0-0.945,0.086-1.274,0.256
		c-0.33,0.17-0.596,0.354-0.796,0.555c-0.439,0.4-0.739,0.94-0.899,1.62H467.674z"/>
	<path fill="#333332" d="M476.734,787.424c0.298-0.38,0.615-0.689,0.953-0.93c0.339-0.24,0.677-0.425,1.015-0.555
		s0.656-0.215,0.954-0.256c0.298-0.039,0.566-0.06,0.806-0.06c0.834,0,1.619,0.155,2.355,0.465c0.735,0.311,1.381,0.75,1.938,1.32
		c0.557,0.569,0.999,1.265,1.327,2.085s0.492,1.74,0.492,2.76c0,0.881-0.135,1.721-0.403,2.521s-0.661,1.515-1.178,2.145
		s-1.152,1.13-1.908,1.5s-1.62,0.555-2.594,0.555c-0.219,0-0.478-0.02-0.775-0.06s-0.616-0.12-0.954-0.24s-0.681-0.289-1.028-0.51
		c-0.349-0.22-0.682-0.52-0.999-0.9v1.32h-3v-21.87h3V787.424z M480.094,788.264c-0.456,0-0.897,0.086-1.324,0.255
		c-0.427,0.171-0.803,0.421-1.13,0.75c-0.327,0.33-0.59,0.756-0.788,1.275c-0.198,0.521-0.298,1.12-0.298,1.8
		c0,0.66,0.1,1.24,0.298,1.74s0.461,0.915,0.788,1.245s0.703,0.58,1.13,0.75s0.868,0.255,1.324,0.255
		c0.535,0,1.016-0.105,1.442-0.315s0.788-0.499,1.086-0.869c0.297-0.37,0.53-0.8,0.699-1.29c0.168-0.49,0.253-1.006,0.253-1.545
		c0-0.561-0.085-1.085-0.253-1.575c-0.169-0.49-0.402-0.92-0.699-1.29c-0.298-0.37-0.659-0.66-1.086-0.87
		S480.629,788.264,480.094,788.264z"/>
	<path fill="#333332" d="M495.154,789.284c-0.16-0.24-0.385-0.48-0.675-0.72c-0.29-0.24-0.665-0.36-1.125-0.36
		c-0.38,0-0.681,0.11-0.9,0.33c-0.18,0.18-0.27,0.4-0.27,0.66c0,0.3,0.14,0.54,0.42,0.72c0.1,0.06,0.21,0.12,0.33,0.18
		c0.12,0.061,0.34,0.17,0.66,0.33l1.5,0.75c0.34,0.16,0.66,0.33,0.96,0.51c0.3,0.181,0.569,0.4,0.81,0.66
		c0.34,0.341,0.58,0.705,0.72,1.096c0.14,0.39,0.21,0.805,0.21,1.244c0,0.581-0.1,1.11-0.3,1.591c-0.2,0.479-0.47,0.91-0.81,1.29
		c-0.5,0.539-1.05,0.91-1.65,1.109c-0.6,0.2-1.229,0.3-1.89,0.3c-0.4,0-0.84-0.05-1.32-0.149c-0.479-0.101-0.95-0.32-1.41-0.66
		c-0.359-0.28-0.68-0.62-0.96-1.021c-0.28-0.399-0.5-0.829-0.66-1.29l2.4-1.14c0.08,0.221,0.18,0.445,0.3,0.675
		c0.12,0.23,0.25,0.405,0.391,0.525c0.1,0.101,0.255,0.205,0.465,0.314c0.21,0.11,0.484,0.165,0.825,0.165
		c0.22,0,0.439-0.034,0.659-0.104c0.221-0.07,0.4-0.175,0.54-0.315c0.28-0.279,0.42-0.609,0.42-0.989c0-0.36-0.13-0.68-0.39-0.96
		c-0.18-0.181-0.375-0.33-0.585-0.45s-0.435-0.229-0.675-0.33l-1.08-0.51c-0.28-0.14-0.58-0.295-0.9-0.466
		c-0.319-0.169-0.6-0.375-0.84-0.614c-0.34-0.32-0.575-0.655-0.705-1.005c-0.13-0.351-0.194-0.726-0.194-1.125
		c0-0.521,0.09-1.016,0.27-1.485s0.439-0.875,0.78-1.215c0.279-0.3,0.67-0.575,1.17-0.825s1.14-0.375,1.92-0.375
		c0.46,0,0.875,0.05,1.245,0.15c0.37,0.1,0.734,0.27,1.095,0.51c0.22,0.14,0.46,0.335,0.72,0.585s0.5,0.575,0.721,0.975
		L495.154,789.284z"/>
	<path fill="#333332" d="M500.074,780.734c0-0.54,0.18-0.99,0.54-1.351c0.36-0.359,0.81-0.54,1.35-0.54s0.99,0.181,1.351,0.54
		c0.359,0.36,0.54,0.811,0.54,1.351s-0.181,0.989-0.54,1.35c-0.36,0.36-0.811,0.54-1.351,0.54s-0.989-0.18-1.35-0.54
		S500.074,781.274,500.074,780.734z M503.435,785.954v12.63h-3v-12.63H503.435z"/>
	<path fill="#333332" d="M510.184,788.714v9.87h-3v-9.87h-1.23v-2.76h1.23v-4.62h3v4.62h2.25v2.76H510.184z"/>
	<path fill="#333332" d="M525.663,795.704c-0.28,0.479-0.605,0.92-0.975,1.32c-0.371,0.399-0.756,0.729-1.155,0.989
		c-0.521,0.341-1.101,0.585-1.74,0.735s-1.3,0.225-1.979,0.225c-0.84,0-1.61-0.12-2.311-0.359c-0.7-0.24-1.35-0.66-1.95-1.261
		c-0.6-0.6-1.06-1.314-1.38-2.145s-0.479-1.725-0.479-2.685c0-0.98,0.17-1.921,0.51-2.82c0.34-0.9,0.84-1.69,1.5-2.37
		c0.52-0.52,1.13-0.935,1.83-1.245c0.7-0.31,1.5-0.465,2.4-0.465c1.02,0,1.854,0.175,2.505,0.525
		c0.649,0.35,1.164,0.725,1.545,1.125c0.399,0.42,0.72,0.875,0.96,1.364c0.24,0.49,0.42,0.976,0.54,1.455
		c0.12,0.48,0.194,0.94,0.225,1.38c0.03,0.44,0.045,0.82,0.045,1.141v0.359h-9.06c0.04,0.461,0.149,0.921,0.33,1.38
		c0.18,0.461,0.43,0.851,0.75,1.171c0.34,0.34,0.709,0.56,1.109,0.659c0.4,0.101,0.78,0.15,1.141,0.15c0.779,0,1.449-0.21,2.01-0.63
		c0.26-0.2,0.484-0.42,0.675-0.66s0.355-0.479,0.495-0.72L525.663,795.704z M522.753,790.574c-0.12-0.7-0.42-1.271-0.899-1.71
		c-0.2-0.181-0.461-0.346-0.78-0.495c-0.32-0.15-0.72-0.226-1.2-0.226c-0.521,0-0.945,0.086-1.274,0.256
		c-0.33,0.17-0.596,0.354-0.796,0.555c-0.439,0.4-0.739,0.94-0.899,1.62H522.753z"/>
	<path fill="#333332" d="M534.333,789.284c-0.16-0.24-0.385-0.48-0.675-0.72c-0.29-0.24-0.665-0.36-1.125-0.36
		c-0.38,0-0.681,0.11-0.9,0.33c-0.18,0.18-0.27,0.4-0.27,0.66c0,0.3,0.14,0.54,0.42,0.72c0.1,0.06,0.21,0.12,0.33,0.18
		c0.12,0.061,0.34,0.17,0.66,0.33l1.5,0.75c0.34,0.16,0.66,0.33,0.96,0.51c0.3,0.181,0.569,0.4,0.81,0.66
		c0.34,0.341,0.58,0.705,0.72,1.096c0.14,0.39,0.21,0.805,0.21,1.244c0,0.581-0.1,1.11-0.3,1.591c-0.2,0.479-0.47,0.91-0.81,1.29
		c-0.5,0.539-1.05,0.91-1.65,1.109c-0.6,0.2-1.229,0.3-1.89,0.3c-0.4,0-0.84-0.05-1.32-0.149c-0.479-0.101-0.95-0.32-1.41-0.66
		c-0.359-0.28-0.68-0.62-0.96-1.021c-0.28-0.399-0.5-0.829-0.66-1.29l2.4-1.14c0.08,0.221,0.18,0.445,0.3,0.675
		c0.12,0.23,0.25,0.405,0.391,0.525c0.1,0.101,0.255,0.205,0.465,0.314c0.21,0.11,0.484,0.165,0.825,0.165
		c0.22,0,0.439-0.034,0.659-0.104c0.221-0.07,0.4-0.175,0.54-0.315c0.28-0.279,0.42-0.609,0.42-0.989c0-0.36-0.13-0.68-0.39-0.96
		c-0.18-0.181-0.375-0.33-0.585-0.45s-0.435-0.229-0.675-0.33l-1.08-0.51c-0.28-0.14-0.58-0.295-0.9-0.466
		c-0.319-0.169-0.6-0.375-0.84-0.614c-0.34-0.32-0.575-0.655-0.705-1.005c-0.13-0.351-0.194-0.726-0.194-1.125
		c0-0.521,0.09-1.016,0.27-1.485s0.439-0.875,0.78-1.215c0.279-0.3,0.67-0.575,1.17-0.825s1.14-0.375,1.92-0.375
		c0.46,0,0.875,0.05,1.245,0.15c0.37,0.1,0.734,0.27,1.095,0.51c0.22,0.14,0.46,0.335,0.72,0.585s0.5,0.575,0.721,0.975
		L534.333,789.284z"/>
	<path fill="#333332" d="M84.118,819.954h3v12.63h-3v-1.32c-0.318,0.381-0.651,0.681-0.999,0.9c-0.348,0.221-0.69,0.39-1.029,0.51
		c-0.338,0.12-0.655,0.2-0.953,0.24c-0.299,0.04-0.558,0.06-0.775,0.06c-0.975,0-1.839-0.185-2.595-0.555s-1.392-0.87-1.908-1.5
		s-0.909-1.345-1.178-2.145s-0.402-1.64-0.402-2.521c0-1.02,0.163-1.939,0.491-2.76s0.771-1.516,1.327-2.085
		c0.557-0.57,1.202-1.01,1.938-1.32c0.735-0.31,1.521-0.465,2.355-0.465c0.238,0,0.507,0.021,0.806,0.06
		c0.298,0.041,0.615,0.126,0.953,0.256c0.339,0.13,0.677,0.314,1.015,0.555s0.656,0.55,0.954,0.93V819.954z M80.759,822.264
		c-0.536,0-1.017,0.105-1.443,0.315c-0.426,0.21-0.788,0.5-1.085,0.87c-0.298,0.37-0.531,0.8-0.699,1.29
		c-0.169,0.49-0.253,1.015-0.253,1.575c0,0.539,0.084,1.055,0.253,1.545c0.168,0.49,0.401,0.92,0.699,1.29
		c0.297,0.37,0.659,0.659,1.085,0.869c0.427,0.21,0.907,0.315,1.443,0.315c0.455,0,0.896-0.085,1.323-0.255s0.804-0.42,1.131-0.75
		s0.589-0.745,0.787-1.245c0.199-0.5,0.298-1.08,0.298-1.74c0-0.68-0.099-1.279-0.298-1.8c-0.198-0.52-0.46-0.945-0.787-1.275
		c-0.327-0.329-0.704-0.579-1.131-0.75C81.655,822.35,81.214,822.264,80.759,822.264z"/>
	<path fill="#333332" d="M90.809,819.954h3v1.17c0.317-0.36,0.64-0.64,0.968-0.84c0.327-0.2,0.64-0.35,0.938-0.45
		c0.298-0.1,0.576-0.16,0.834-0.18s0.476-0.03,0.655-0.03c0.575,0,1.076,0.065,1.503,0.195s0.784,0.284,1.072,0.465
		c0.287,0.18,0.521,0.365,0.699,0.555c0.179,0.19,0.317,0.355,0.417,0.495c0.238,0.34,0.427,0.765,0.565,1.275
		c0.139,0.51,0.209,1.255,0.209,2.234v7.74h-3v-7.02c0-0.8-0.069-1.426-0.205-1.875c-0.137-0.45-0.313-0.78-0.527-0.99
		s-0.454-0.335-0.718-0.375c-0.263-0.04-0.531-0.061-0.805-0.061c-0.332,0-0.649,0.03-0.951,0.09
		c-0.303,0.061-0.581,0.23-0.835,0.511s-0.454,0.705-0.6,1.274c-0.146,0.57-0.22,1.365-0.22,2.386v6.06h-3V819.954z"/>
	<path fill="#333332" d="M114.567,810.714h3v21.87h-3v-1.32c-0.318,0.381-0.651,0.681-0.999,0.9c-0.348,0.221-0.69,0.39-1.029,0.51
		c-0.338,0.12-0.655,0.2-0.953,0.24c-0.299,0.04-0.558,0.06-0.775,0.06c-0.975,0-1.839-0.185-2.595-0.555s-1.392-0.87-1.908-1.5
		s-0.909-1.345-1.178-2.145s-0.402-1.64-0.402-2.521c0-1.02,0.163-1.939,0.491-2.76s0.771-1.516,1.327-2.085
		c0.557-0.57,1.202-1.01,1.938-1.32c0.735-0.31,1.521-0.465,2.355-0.465c0.238,0,0.507,0.021,0.806,0.06
		c0.298,0.041,0.615,0.126,0.953,0.256c0.339,0.13,0.677,0.314,1.015,0.555s0.656,0.55,0.954,0.93V810.714z M111.208,822.264
		c-0.536,0-1.017,0.105-1.443,0.315c-0.426,0.21-0.788,0.5-1.085,0.87c-0.298,0.37-0.531,0.8-0.699,1.29
		c-0.169,0.49-0.253,1.015-0.253,1.575c0,0.539,0.084,1.055,0.253,1.545c0.168,0.49,0.401,0.92,0.699,1.29
		c0.297,0.37,0.659,0.659,1.085,0.869c0.427,0.21,0.907,0.315,1.443,0.315c0.455,0,0.896-0.085,1.323-0.255s0.804-0.42,1.131-0.75
		s0.589-0.745,0.787-1.245c0.199-0.5,0.298-1.08,0.298-1.74c0-0.68-0.099-1.279-0.298-1.8c-0.198-0.52-0.46-0.945-0.787-1.275
		c-0.327-0.329-0.704-0.579-1.131-0.75C112.104,822.35,111.663,822.264,111.208,822.264z"/>
	<path fill="#333332" d="M137.457,819.954h3v12.63h-3v-1.32c-0.318,0.381-0.651,0.681-0.999,0.9c-0.348,0.221-0.69,0.39-1.029,0.51
		c-0.338,0.12-0.655,0.2-0.953,0.24c-0.299,0.04-0.558,0.06-0.775,0.06c-0.975,0-1.839-0.185-2.595-0.555s-1.392-0.87-1.908-1.5
		s-0.909-1.345-1.178-2.145s-0.402-1.64-0.402-2.521c0-1.02,0.163-1.939,0.491-2.76s0.771-1.516,1.327-2.085
		c0.557-0.57,1.202-1.01,1.938-1.32c0.735-0.31,1.521-0.465,2.355-0.465c0.238,0,0.507,0.021,0.806,0.06
		c0.298,0.041,0.615,0.126,0.953,0.256c0.339,0.13,0.677,0.314,1.015,0.555s0.656,0.55,0.954,0.93V819.954z M134.098,822.264
		c-0.536,0-1.017,0.105-1.443,0.315c-0.426,0.21-0.788,0.5-1.085,0.87c-0.298,0.37-0.531,0.8-0.699,1.29
		c-0.169,0.49-0.253,1.015-0.253,1.575c0,0.539,0.084,1.055,0.253,1.545c0.168,0.49,0.401,0.92,0.699,1.29
		c0.297,0.37,0.659,0.659,1.085,0.869c0.427,0.21,0.907,0.315,1.443,0.315c0.455,0,0.896-0.085,1.323-0.255s0.804-0.42,1.131-0.75
		s0.589-0.745,0.787-1.245c0.199-0.5,0.298-1.08,0.298-1.74c0-0.68-0.099-1.279-0.298-1.8c-0.198-0.52-0.46-0.945-0.787-1.275
		c-0.327-0.329-0.704-0.579-1.131-0.75C134.994,822.35,134.553,822.264,134.098,822.264z"/>
	<path fill="#333332" d="M144.147,819.954h3v1.17c0.317-0.36,0.64-0.64,0.968-0.84c0.327-0.2,0.64-0.35,0.938-0.45
		c0.298-0.1,0.576-0.16,0.834-0.18s0.476-0.03,0.655-0.03c0.575,0,1.076,0.065,1.503,0.195s0.784,0.284,1.072,0.465
		c0.287,0.18,0.521,0.365,0.699,0.555c0.179,0.19,0.317,0.355,0.417,0.495c0.238,0.34,0.427,0.765,0.565,1.275
		c0.139,0.51,0.209,1.255,0.209,2.234v7.74h-3v-7.02c0-0.8-0.069-1.426-0.205-1.875c-0.137-0.45-0.313-0.78-0.527-0.99
		s-0.454-0.335-0.718-0.375c-0.263-0.04-0.531-0.061-0.805-0.061c-0.332,0-0.649,0.03-0.951,0.09
		c-0.303,0.061-0.581,0.23-0.835,0.511s-0.454,0.705-0.6,1.274c-0.146,0.57-0.22,1.365-0.22,2.386v6.06h-3V819.954z"/>
	<path fill="#333332" d="M158.367,814.734c0-0.54,0.18-0.99,0.54-1.351c0.36-0.359,0.81-0.54,1.35-0.54s0.99,0.181,1.351,0.54
		c0.359,0.36,0.54,0.811,0.54,1.351s-0.181,0.989-0.54,1.35c-0.36,0.36-0.811,0.54-1.351,0.54s-0.989-0.18-1.35-0.54
		S158.367,815.274,158.367,814.734z M161.728,819.954v12.63h-3v-12.63H161.728z"/>
	<path fill="#333332" d="M165.387,819.954h3v1.17c0.494-0.6,1.012-1,1.556-1.2c0.544-0.199,1.052-0.3,1.526-0.3
		c0.652,0,1.265,0.155,1.838,0.465c0.573,0.311,1.037,0.775,1.394,1.396c0.517-0.74,1.129-1.235,1.834-1.485
		c0.706-0.25,1.338-0.375,1.896-0.375c0.755,0,1.452,0.17,2.089,0.51c0.636,0.341,1.134,0.83,1.491,1.47
		c0.119,0.221,0.259,0.575,0.418,1.065s0.238,1.195,0.238,2.115v7.8h-3v-6.96c0-0.7-0.029-1.215-0.087-1.545
		c-0.059-0.33-0.117-0.565-0.175-0.705c-0.098-0.24-0.269-0.484-0.511-0.735c-0.243-0.25-0.617-0.375-1.122-0.375
		c-0.35,0-0.671,0.086-0.962,0.255c-0.292,0.171-0.535,0.396-0.729,0.676c-0.253,0.359-0.408,0.795-0.467,1.305
		c-0.058,0.51-0.087,1.035-0.087,1.575v6.51h-3v-6.96c0-0.7-0.029-1.215-0.088-1.545c-0.058-0.33-0.116-0.565-0.175-0.705
		c-0.098-0.24-0.268-0.484-0.511-0.735c-0.242-0.25-0.616-0.375-1.122-0.375c-0.35,0-0.67,0.086-0.962,0.255
		c-0.291,0.171-0.534,0.396-0.729,0.676c-0.253,0.359-0.409,0.795-0.467,1.305c-0.059,0.51-0.087,1.035-0.087,1.575v6.51h-3V819.954
		z"/>
	<path fill="#333332" d="M195.626,819.954h3v12.63h-3v-1.32c-0.318,0.381-0.651,0.681-0.999,0.9c-0.348,0.221-0.69,0.39-1.029,0.51
		c-0.338,0.12-0.655,0.2-0.953,0.24c-0.299,0.04-0.558,0.06-0.775,0.06c-0.975,0-1.839-0.185-2.595-0.555s-1.392-0.87-1.908-1.5
		s-0.909-1.345-1.178-2.145s-0.402-1.64-0.402-2.521c0-1.02,0.163-1.939,0.491-2.76s0.771-1.516,1.327-2.085
		c0.557-0.57,1.202-1.01,1.938-1.32c0.735-0.31,1.521-0.465,2.355-0.465c0.238,0,0.507,0.021,0.806,0.06
		c0.298,0.041,0.615,0.126,0.953,0.256c0.339,0.13,0.677,0.314,1.015,0.555s0.656,0.55,0.954,0.93V819.954z M192.267,822.264
		c-0.536,0-1.017,0.105-1.443,0.315c-0.426,0.21-0.788,0.5-1.085,0.87c-0.298,0.37-0.531,0.8-0.699,1.29
		c-0.169,0.49-0.253,1.015-0.253,1.575c0,0.539,0.084,1.055,0.253,1.545c0.168,0.49,0.401,0.92,0.699,1.29
		c0.297,0.37,0.659,0.659,1.085,0.869c0.427,0.21,0.907,0.315,1.443,0.315c0.455,0,0.896-0.085,1.323-0.255s0.804-0.42,1.131-0.75
		s0.589-0.745,0.787-1.245c0.199-0.5,0.298-1.08,0.298-1.74c0-0.68-0.099-1.279-0.298-1.8c-0.198-0.52-0.46-0.945-0.787-1.275
		c-0.327-0.329-0.704-0.579-1.131-0.75C193.163,822.35,192.722,822.264,192.267,822.264z"/>
	<path fill="#333332" d="M205.437,822.714v9.87h-3v-9.87h-1.23v-2.76h1.23v-4.62h3v4.62h2.25v2.76H205.437z"/>
	<path fill="#333332" d="M209.246,814.734c0-0.54,0.18-0.99,0.54-1.351c0.36-0.359,0.81-0.54,1.35-0.54s0.99,0.181,1.351,0.54
		c0.359,0.36,0.54,0.811,0.54,1.351s-0.181,0.989-0.54,1.35c-0.36,0.36-0.811,0.54-1.351,0.54s-0.989-0.18-1.35-0.54
		S209.246,815.274,209.246,814.734z M212.606,819.954v12.63h-3v-12.63H212.606z"/>
	<path fill="#333332" d="M222.355,819.624c0.96,0,1.85,0.165,2.67,0.495c0.819,0.33,1.53,0.79,2.13,1.38s1.075,1.29,1.425,2.1
		c0.35,0.811,0.525,1.706,0.525,2.686c0,0.96-0.176,1.85-0.525,2.67s-0.825,1.53-1.425,2.13s-1.311,1.065-2.13,1.395
		c-0.82,0.33-1.71,0.495-2.67,0.495s-1.851-0.165-2.67-0.495c-0.82-0.329-1.53-0.795-2.13-1.395c-0.601-0.6-1.076-1.31-1.426-2.13
		s-0.524-1.71-0.524-2.67c0-0.979,0.175-1.875,0.524-2.686c0.35-0.81,0.825-1.51,1.426-2.1c0.6-0.59,1.31-1.05,2.13-1.38
		C220.505,819.789,221.396,819.624,222.355,819.624z M222.355,830.334c1.159,0,2.074-0.364,2.745-1.095
		c0.67-0.73,1.005-1.705,1.005-2.925c0-0.721-0.11-1.336-0.33-1.846c-0.221-0.51-0.506-0.93-0.855-1.26s-0.75-0.57-1.199-0.72
		c-0.45-0.15-0.905-0.226-1.365-0.226c-0.461,0-0.915,0.075-1.365,0.226c-0.45,0.149-0.851,0.39-1.2,0.72s-0.635,0.75-0.854,1.26
		c-0.221,0.51-0.33,1.125-0.33,1.846c0,1.22,0.335,2.194,1.005,2.925S221.195,830.334,222.355,830.334z"/>
	<path fill="#333332" d="M232.136,819.954h3v1.17c0.317-0.36,0.64-0.64,0.968-0.84c0.327-0.2,0.64-0.35,0.938-0.45
		c0.298-0.1,0.576-0.16,0.834-0.18s0.476-0.03,0.655-0.03c0.575,0,1.076,0.065,1.503,0.195s0.784,0.284,1.072,0.465
		c0.287,0.18,0.521,0.365,0.699,0.555c0.179,0.19,0.317,0.355,0.417,0.495c0.238,0.34,0.427,0.765,0.565,1.275
		c0.139,0.51,0.209,1.255,0.209,2.234v7.74h-3v-7.02c0-0.8-0.069-1.426-0.205-1.875c-0.137-0.45-0.313-0.78-0.527-0.99
		s-0.454-0.335-0.718-0.375c-0.263-0.04-0.531-0.061-0.805-0.061c-0.332,0-0.649,0.03-0.951,0.09
		c-0.303,0.061-0.581,0.23-0.835,0.511s-0.454,0.705-0.6,1.274c-0.146,0.57-0.22,1.365-0.22,2.386v6.06h-3V819.954z"/>
	<path fill="#333332" d="M252.234,823.284c-0.16-0.24-0.385-0.48-0.675-0.72c-0.29-0.24-0.665-0.36-1.125-0.36
		c-0.38,0-0.681,0.11-0.9,0.33c-0.18,0.18-0.27,0.4-0.27,0.66c0,0.3,0.14,0.54,0.42,0.72c0.1,0.06,0.21,0.12,0.33,0.18
		c0.12,0.061,0.34,0.17,0.66,0.33l1.5,0.75c0.34,0.16,0.66,0.33,0.96,0.51c0.3,0.181,0.569,0.4,0.81,0.66
		c0.34,0.341,0.58,0.705,0.72,1.096c0.14,0.39,0.21,0.805,0.21,1.244c0,0.581-0.1,1.11-0.3,1.591c-0.2,0.479-0.47,0.91-0.81,1.29
		c-0.5,0.539-1.05,0.91-1.65,1.109c-0.6,0.2-1.229,0.3-1.89,0.3c-0.4,0-0.84-0.05-1.32-0.149c-0.479-0.101-0.95-0.32-1.41-0.66
		c-0.359-0.28-0.68-0.62-0.96-1.021c-0.28-0.399-0.5-0.829-0.66-1.29l2.4-1.14c0.08,0.221,0.18,0.445,0.3,0.675
		c0.12,0.23,0.25,0.405,0.391,0.525c0.1,0.101,0.255,0.205,0.465,0.314c0.21,0.11,0.484,0.165,0.825,0.165
		c0.22,0,0.439-0.034,0.659-0.104c0.221-0.07,0.4-0.175,0.54-0.315c0.28-0.279,0.42-0.609,0.42-0.989c0-0.36-0.13-0.68-0.39-0.96
		c-0.18-0.181-0.375-0.33-0.585-0.45s-0.435-0.229-0.675-0.33l-1.08-0.51c-0.28-0.14-0.58-0.295-0.9-0.466
		c-0.319-0.169-0.6-0.375-0.84-0.614c-0.34-0.32-0.575-0.655-0.705-1.005c-0.13-0.351-0.194-0.726-0.194-1.125
		c0-0.521,0.09-1.016,0.27-1.485s0.439-0.875,0.78-1.215c0.279-0.3,0.67-0.575,1.17-0.825s1.14-0.375,1.92-0.375
		c0.46,0,0.875,0.05,1.245,0.15c0.37,0.1,0.734,0.27,1.095,0.51c0.22,0.14,0.46,0.335,0.72,0.585s0.5,0.575,0.721,0.975
		L252.234,823.284z"/>
	<path fill="#333332" d="M267.594,822.714v9.87h-3v-9.87h-1.23v-2.76h1.23v-4.62h3v4.62h2.25v2.76H267.594z"/>
	<path fill="#333332" d="M271.764,810.714h3v10.32c0.635-0.64,1.26-1.035,1.875-1.186c0.615-0.149,1.111-0.225,1.489-0.225
		c0.575,0,1.071,0.065,1.488,0.195s0.774,0.284,1.071,0.465c0.298,0.18,0.536,0.37,0.715,0.569c0.179,0.2,0.317,0.36,0.417,0.48
		c0.396,0.58,0.63,1.195,0.699,1.845c0.069,0.65,0.104,1.205,0.104,1.665v7.74h-3v-7.47c0-0.38-0.024-0.76-0.073-1.141
		c-0.049-0.379-0.21-0.729-0.482-1.05c-0.156-0.18-0.371-0.335-0.645-0.465s-0.596-0.195-0.966-0.195
		c-0.488,0-0.913,0.105-1.273,0.315c-0.361,0.21-0.64,0.455-0.835,0.735c-0.215,0.3-0.366,0.7-0.453,1.199
		c-0.089,0.5-0.132,1.16-0.132,1.98v6.09h-3V810.714z"/>
	<path fill="#333332" d="M295.523,819.954h3v12.63h-3v-1.32c-0.318,0.381-0.651,0.681-0.999,0.9c-0.348,0.221-0.69,0.39-1.029,0.51
		c-0.338,0.12-0.655,0.2-0.953,0.24c-0.299,0.04-0.558,0.06-0.775,0.06c-0.975,0-1.839-0.185-2.595-0.555s-1.392-0.87-1.908-1.5
		s-0.909-1.345-1.178-2.145s-0.402-1.64-0.402-2.521c0-1.02,0.163-1.939,0.491-2.76s0.771-1.516,1.327-2.085
		c0.557-0.57,1.202-1.01,1.938-1.32c0.735-0.31,1.521-0.465,2.355-0.465c0.238,0,0.507,0.021,0.806,0.06
		c0.298,0.041,0.615,0.126,0.953,0.256c0.339,0.13,0.677,0.314,1.015,0.555s0.656,0.55,0.954,0.93V819.954z M292.164,822.264
		c-0.536,0-1.017,0.105-1.443,0.315c-0.426,0.21-0.788,0.5-1.085,0.87c-0.298,0.37-0.531,0.8-0.699,1.29
		c-0.169,0.49-0.253,1.015-0.253,1.575c0,0.539,0.084,1.055,0.253,1.545c0.168,0.49,0.401,0.92,0.699,1.29
		c0.297,0.37,0.659,0.659,1.085,0.869c0.427,0.21,0.907,0.315,1.443,0.315c0.455,0,0.896-0.085,1.323-0.255s0.804-0.42,1.131-0.75
		s0.589-0.745,0.787-1.245c0.199-0.5,0.298-1.08,0.298-1.74c0-0.68-0.099-1.279-0.298-1.8c-0.198-0.52-0.46-0.945-0.787-1.275
		c-0.327-0.329-0.704-0.579-1.131-0.75C293.061,822.35,292.619,822.264,292.164,822.264z"/>
	<path fill="#333332" d="M305.334,822.714v9.87h-3v-9.87h-1.23v-2.76h1.23v-4.62h3v4.62h2.25v2.76H305.334z"/>
	<path fill="#333332" d="M316.493,810.714h3v10.32c0.635-0.64,1.26-1.035,1.875-1.186c0.615-0.149,1.111-0.225,1.489-0.225
		c0.575,0,1.071,0.065,1.488,0.195s0.774,0.284,1.071,0.465c0.298,0.18,0.536,0.37,0.715,0.569c0.179,0.2,0.317,0.36,0.417,0.48
		c0.396,0.58,0.63,1.195,0.699,1.845c0.069,0.65,0.104,1.205,0.104,1.665v7.74h-3v-7.47c0-0.38-0.024-0.76-0.073-1.141
		c-0.049-0.379-0.21-0.729-0.482-1.05c-0.156-0.18-0.371-0.335-0.645-0.465s-0.596-0.195-0.966-0.195
		c-0.488,0-0.913,0.105-1.273,0.315c-0.361,0.21-0.64,0.455-0.835,0.735c-0.215,0.3-0.366,0.7-0.453,1.199
		c-0.089,0.5-0.132,1.16-0.132,1.98v6.09h-3V810.714z"/>
	<path fill="#333332" d="M342.053,829.704c-0.28,0.479-0.605,0.92-0.975,1.32c-0.371,0.399-0.756,0.729-1.155,0.989
		c-0.521,0.341-1.101,0.585-1.74,0.735s-1.3,0.225-1.979,0.225c-0.84,0-1.61-0.12-2.311-0.359c-0.7-0.24-1.35-0.66-1.95-1.261
		c-0.6-0.6-1.06-1.314-1.38-2.145s-0.479-1.725-0.479-2.685c0-0.98,0.17-1.921,0.51-2.82c0.34-0.9,0.84-1.69,1.5-2.37
		c0.52-0.52,1.13-0.935,1.83-1.245c0.7-0.31,1.5-0.465,2.4-0.465c1.02,0,1.854,0.175,2.505,0.525
		c0.649,0.35,1.164,0.725,1.545,1.125c0.399,0.42,0.72,0.875,0.96,1.364c0.24,0.49,0.42,0.976,0.54,1.455
		c0.12,0.48,0.194,0.94,0.225,1.38c0.03,0.44,0.045,0.82,0.045,1.141v0.359h-9.06c0.04,0.461,0.149,0.921,0.33,1.38
		c0.18,0.461,0.43,0.851,0.75,1.171c0.34,0.34,0.709,0.56,1.109,0.659c0.4,0.101,0.78,0.15,1.141,0.15c0.779,0,1.449-0.21,2.01-0.63
		c0.26-0.2,0.484-0.42,0.675-0.66s0.355-0.479,0.495-0.72L342.053,829.704z M339.143,824.574c-0.12-0.7-0.42-1.271-0.899-1.71
		c-0.2-0.181-0.461-0.346-0.78-0.495c-0.32-0.15-0.72-0.226-1.2-0.226c-0.521,0-0.945,0.086-1.274,0.256
		c-0.33,0.17-0.596,0.354-0.796,0.555c-0.439,0.4-0.739,0.94-0.899,1.62H339.143z"/>
	<path fill="#333332" d="M348.203,810.714v21.87h-3v-21.87H348.203z"/>
	<path fill="#333332" d="M354.862,839.454h-3v-19.5h3v1.38c0.536-0.64,1.133-1.085,1.789-1.335c0.655-0.25,1.302-0.375,1.938-0.375
		c0.834,0,1.619,0.155,2.355,0.465c0.735,0.311,1.381,0.75,1.938,1.32c0.557,0.569,0.999,1.26,1.327,2.069
		c0.328,0.811,0.492,1.716,0.492,2.716c0,1.06-0.18,2.01-0.537,2.85c-0.358,0.84-0.82,1.55-1.387,2.13s-1.218,1.025-1.953,1.335
		s-1.471,0.465-2.206,0.465c-0.18,0-0.413-0.02-0.701-0.06s-0.602-0.125-0.939-0.255s-0.695-0.32-1.073-0.57
		s-0.726-0.574-1.043-0.975V839.454z M358.222,822.264c-0.456,0-0.897,0.086-1.324,0.255c-0.427,0.171-0.803,0.421-1.13,0.75
		c-0.327,0.33-0.59,0.756-0.788,1.275c-0.198,0.521-0.298,1.12-0.298,1.8c0,0.66,0.1,1.24,0.298,1.74s0.461,0.915,0.788,1.245
		s0.703,0.58,1.13,0.75s0.868,0.255,1.324,0.255c0.535,0,1.016-0.105,1.442-0.315s0.788-0.499,1.086-0.869
		c0.297-0.37,0.53-0.8,0.699-1.29c0.168-0.49,0.253-1.006,0.253-1.545c0-0.561-0.085-1.085-0.253-1.575
		c-0.169-0.49-0.402-0.92-0.699-1.29c-0.298-0.37-0.659-0.66-1.086-0.87S358.757,822.264,358.222,822.264z"/>
	<path fill="#333332" d="M377.752,821.424c0.298-0.38,0.615-0.689,0.953-0.93c0.339-0.24,0.677-0.425,1.015-0.555
		s0.656-0.215,0.954-0.256c0.298-0.039,0.566-0.06,0.806-0.06c0.834,0,1.619,0.155,2.355,0.465c0.735,0.311,1.381,0.75,1.938,1.32
		c0.557,0.569,0.999,1.265,1.327,2.085s0.492,1.74,0.492,2.76c0,0.881-0.135,1.721-0.403,2.521s-0.661,1.515-1.178,2.145
		s-1.152,1.13-1.908,1.5s-1.62,0.555-2.594,0.555c-0.219,0-0.478-0.02-0.775-0.06s-0.616-0.12-0.954-0.24s-0.681-0.289-1.028-0.51
		c-0.349-0.22-0.682-0.52-0.999-0.9v1.32h-3v-21.87h3V821.424z M381.111,822.264c-0.456,0-0.897,0.086-1.324,0.255
		c-0.427,0.171-0.803,0.421-1.13,0.75c-0.327,0.33-0.59,0.756-0.788,1.275c-0.198,0.521-0.298,1.12-0.298,1.8
		c0,0.66,0.1,1.24,0.298,1.74s0.461,0.915,0.788,1.245s0.703,0.58,1.13,0.75s0.868,0.255,1.324,0.255
		c0.535,0,1.016-0.105,1.442-0.315s0.788-0.499,1.086-0.869c0.297-0.37,0.53-0.8,0.699-1.29c0.168-0.49,0.253-1.006,0.253-1.545
		c0-0.561-0.085-1.085-0.253-1.575c-0.169-0.49-0.402-0.92-0.699-1.29c-0.298-0.37-0.659-0.66-1.086-0.87
		S381.646,822.264,381.111,822.264z"/>
	<path fill="#333332" d="M390.652,819.954h3v1.14c0.157-0.199,0.346-0.395,0.563-0.585c0.217-0.189,0.435-0.345,0.652-0.465
		c0.276-0.16,0.559-0.27,0.846-0.33c0.286-0.06,0.598-0.09,0.934-0.09c0.356,0,0.727,0.039,1.112,0.117
		c0.386,0.079,0.776,0.235,1.172,0.47l-1.187,2.623c-0.336-0.22-0.628-0.35-0.875-0.39s-0.449-0.061-0.607-0.061
		c-0.317,0-0.628,0.04-0.935,0.121s-0.599,0.271-0.875,0.573c-0.396,0.442-0.628,0.936-0.697,1.479s-0.104,1.026-0.104,1.448v6.579
		h-3V819.954z"/>
	<path fill="#333332" d="M409.161,819.954h3v12.63h-3v-1.32c-0.318,0.381-0.651,0.681-0.999,0.9c-0.348,0.221-0.69,0.39-1.029,0.51
		c-0.338,0.12-0.655,0.2-0.953,0.24c-0.299,0.04-0.558,0.06-0.775,0.06c-0.975,0-1.839-0.185-2.595-0.555s-1.392-0.87-1.908-1.5
		s-0.909-1.345-1.178-2.145s-0.402-1.64-0.402-2.521c0-1.02,0.163-1.939,0.491-2.76s0.771-1.516,1.327-2.085
		c0.557-0.57,1.202-1.01,1.938-1.32c0.735-0.31,1.521-0.465,2.355-0.465c0.238,0,0.507,0.021,0.806,0.06
		c0.298,0.041,0.615,0.126,0.953,0.256c0.339,0.13,0.677,0.314,1.015,0.555s0.656,0.55,0.954,0.93V819.954z M405.802,822.264
		c-0.536,0-1.017,0.105-1.443,0.315c-0.426,0.21-0.788,0.5-1.085,0.87c-0.298,0.37-0.531,0.8-0.699,1.29
		c-0.169,0.49-0.253,1.015-0.253,1.575c0,0.539,0.084,1.055,0.253,1.545c0.168,0.49,0.401,0.92,0.699,1.29
		c0.297,0.37,0.659,0.659,1.085,0.869c0.427,0.21,0.907,0.315,1.443,0.315c0.455,0,0.896-0.085,1.323-0.255s0.804-0.42,1.131-0.75
		s0.589-0.745,0.787-1.245c0.199-0.5,0.298-1.08,0.298-1.74c0-0.68-0.099-1.279-0.298-1.8c-0.198-0.52-0.46-0.945-0.787-1.275
		c-0.327-0.329-0.704-0.579-1.131-0.75C406.698,822.35,406.257,822.264,405.802,822.264z"/>
	<path fill="#333332" d="M415.852,819.954h3v1.17c0.317-0.36,0.64-0.64,0.968-0.84c0.327-0.2,0.64-0.35,0.938-0.45
		c0.298-0.1,0.576-0.16,0.834-0.18s0.476-0.03,0.655-0.03c0.575,0,1.076,0.065,1.503,0.195s0.784,0.284,1.072,0.465
		c0.287,0.18,0.521,0.365,0.699,0.555c0.179,0.19,0.317,0.355,0.417,0.495c0.238,0.34,0.427,0.765,0.565,1.275
		c0.139,0.51,0.209,1.255,0.209,2.234v7.74h-3v-7.02c0-0.8-0.069-1.426-0.205-1.875c-0.137-0.45-0.313-0.78-0.527-0.99
		s-0.454-0.335-0.718-0.375c-0.263-0.04-0.531-0.061-0.805-0.061c-0.332,0-0.649,0.03-0.951,0.09
		c-0.303,0.061-0.581,0.23-0.835,0.511s-0.454,0.705-0.6,1.274c-0.146,0.57-0.22,1.365-0.22,2.386v6.06h-3V819.954z"/>
	<path fill="#333332" d="M439.611,810.714h3v21.87h-3v-1.32c-0.318,0.381-0.651,0.681-0.999,0.9c-0.348,0.221-0.69,0.39-1.029,0.51
		c-0.338,0.12-0.655,0.2-0.953,0.24c-0.299,0.04-0.558,0.06-0.775,0.06c-0.975,0-1.839-0.185-2.595-0.555s-1.392-0.87-1.908-1.5
		s-0.909-1.345-1.178-2.145s-0.402-1.64-0.402-2.521c0-1.02,0.163-1.939,0.491-2.76s0.771-1.516,1.327-2.085
		c0.557-0.57,1.202-1.01,1.938-1.32c0.735-0.31,1.521-0.465,2.355-0.465c0.238,0,0.507,0.021,0.806,0.06
		c0.298,0.041,0.615,0.126,0.953,0.256c0.339,0.13,0.677,0.314,1.015,0.555s0.656,0.55,0.954,0.93V810.714z M436.252,822.264
		c-0.536,0-1.017,0.105-1.443,0.315c-0.426,0.21-0.788,0.5-1.085,0.87c-0.298,0.37-0.531,0.8-0.699,1.29
		c-0.169,0.49-0.253,1.015-0.253,1.575c0,0.539,0.084,1.055,0.253,1.545c0.168,0.49,0.401,0.92,0.699,1.29
		c0.297,0.37,0.659,0.659,1.085,0.869c0.427,0.21,0.907,0.315,1.443,0.315c0.455,0,0.896-0.085,1.323-0.255s0.804-0.42,1.131-0.75
		s0.589-0.745,0.787-1.245c0.199-0.5,0.298-1.08,0.298-1.74c0-0.68-0.099-1.279-0.298-1.8c-0.198-0.52-0.46-0.945-0.787-1.275
		c-0.327-0.329-0.704-0.579-1.131-0.75C437.148,822.35,436.707,822.264,436.252,822.264z"/>
	<path fill="#333332" d="M451.851,823.284c-0.16-0.24-0.385-0.48-0.675-0.72c-0.29-0.24-0.665-0.36-1.125-0.36
		c-0.38,0-0.681,0.11-0.9,0.33c-0.18,0.18-0.27,0.4-0.27,0.66c0,0.3,0.14,0.54,0.42,0.72c0.1,0.06,0.21,0.12,0.33,0.18
		c0.12,0.061,0.34,0.17,0.66,0.33l1.5,0.75c0.34,0.16,0.66,0.33,0.96,0.51c0.3,0.181,0.569,0.4,0.81,0.66
		c0.34,0.341,0.58,0.705,0.72,1.096c0.14,0.39,0.21,0.805,0.21,1.244c0,0.581-0.1,1.11-0.3,1.591c-0.2,0.479-0.47,0.91-0.81,1.29
		c-0.5,0.539-1.05,0.91-1.65,1.109c-0.6,0.2-1.229,0.3-1.89,0.3c-0.4,0-0.84-0.05-1.32-0.149c-0.479-0.101-0.95-0.32-1.41-0.66
		c-0.359-0.28-0.68-0.62-0.96-1.021c-0.28-0.399-0.5-0.829-0.66-1.29l2.4-1.14c0.08,0.221,0.18,0.445,0.3,0.675
		c0.12,0.23,0.25,0.405,0.391,0.525c0.1,0.101,0.255,0.205,0.465,0.314c0.21,0.11,0.484,0.165,0.825,0.165
		c0.22,0,0.439-0.034,0.659-0.104c0.221-0.07,0.4-0.175,0.54-0.315c0.28-0.279,0.42-0.609,0.42-0.989c0-0.36-0.13-0.68-0.39-0.96
		c-0.18-0.181-0.375-0.33-0.585-0.45s-0.435-0.229-0.675-0.33l-1.08-0.51c-0.28-0.14-0.58-0.295-0.9-0.466
		c-0.319-0.169-0.6-0.375-0.84-0.614c-0.34-0.32-0.575-0.655-0.705-1.005c-0.13-0.351-0.194-0.726-0.194-1.125
		c0-0.521,0.09-1.016,0.27-1.485s0.439-0.875,0.78-1.215c0.279-0.3,0.67-0.575,1.17-0.825s1.14-0.375,1.92-0.375
		c0.46,0,0.875,0.05,1.245,0.15c0.37,0.1,0.734,0.27,1.095,0.51c0.22,0.14,0.46,0.335,0.72,0.585s0.5,0.575,0.721,0.975
		L451.851,823.284z"/>
	<path fill="#333332" d="M467.21,822.714v9.87h-3v-9.87h-1.23v-2.76h1.23v-4.62h3v4.62h2.25v2.76H467.21z"/>
	<path fill="#333332" d="M471.38,810.714h3v10.32c0.635-0.64,1.26-1.035,1.875-1.186c0.615-0.149,1.111-0.225,1.489-0.225
		c0.575,0,1.071,0.065,1.488,0.195s0.774,0.284,1.071,0.465c0.298,0.18,0.536,0.37,0.715,0.569c0.179,0.2,0.317,0.36,0.417,0.48
		c0.396,0.58,0.63,1.195,0.699,1.845c0.069,0.65,0.104,1.205,0.104,1.665v7.74h-3v-7.47c0-0.38-0.024-0.76-0.073-1.141
		c-0.049-0.379-0.21-0.729-0.482-1.05c-0.156-0.18-0.371-0.335-0.645-0.465s-0.596-0.195-0.966-0.195
		c-0.488,0-0.913,0.105-1.273,0.315c-0.361,0.21-0.64,0.455-0.835,0.735c-0.215,0.3-0.366,0.7-0.453,1.199
		c-0.089,0.5-0.132,1.16-0.132,1.98v6.09h-3V810.714z"/>
	<path fill="#333332" d="M485.96,819.954h3v1.14c0.157-0.199,0.346-0.395,0.563-0.585c0.217-0.189,0.435-0.345,0.652-0.465
		c0.276-0.16,0.559-0.27,0.846-0.33c0.286-0.06,0.598-0.09,0.934-0.09c0.356,0,0.727,0.039,1.112,0.117
		c0.386,0.079,0.776,0.235,1.172,0.47l-1.187,2.623c-0.336-0.22-0.628-0.35-0.875-0.39s-0.449-0.061-0.607-0.061
		c-0.317,0-0.628,0.04-0.935,0.121s-0.599,0.271-0.875,0.573c-0.396,0.442-0.628,0.936-0.697,1.479s-0.104,1.026-0.104,1.448v6.579
		h-3V819.954z"/>
	<path fill="#333332" d="M495.56,814.734c0-0.54,0.18-0.99,0.54-1.351c0.36-0.359,0.81-0.54,1.35-0.54s0.99,0.181,1.351,0.54
		c0.359,0.36,0.54,0.811,0.54,1.351s-0.181,0.989-0.54,1.35c-0.36,0.36-0.811,0.54-1.351,0.54s-0.989-0.18-1.35-0.54
		S495.56,815.274,495.56,814.734z M498.92,819.954v12.63h-3v-12.63H498.92z"/>
	<path fill="#333332" d="M504.214,819.954l3.24,7.2l3.239-7.2h3.301l-6.54,13.53l-6.54-13.53H504.214z"/>
	<path fill="#333332" d="M526.969,829.704c-0.28,0.479-0.605,0.92-0.975,1.32c-0.371,0.399-0.756,0.729-1.155,0.989
		c-0.521,0.341-1.101,0.585-1.74,0.735s-1.3,0.225-1.979,0.225c-0.84,0-1.61-0.12-2.311-0.359c-0.7-0.24-1.35-0.66-1.95-1.261
		c-0.6-0.6-1.06-1.314-1.38-2.145s-0.479-1.725-0.479-2.685c0-0.98,0.17-1.921,0.51-2.82c0.34-0.9,0.84-1.69,1.5-2.37
		c0.52-0.52,1.13-0.935,1.83-1.245c0.7-0.31,1.5-0.465,2.4-0.465c1.02,0,1.854,0.175,2.505,0.525
		c0.649,0.35,1.164,0.725,1.545,1.125c0.399,0.42,0.72,0.875,0.96,1.364c0.24,0.49,0.42,0.976,0.54,1.455
		c0.12,0.48,0.194,0.94,0.225,1.38c0.03,0.44,0.045,0.82,0.045,1.141v0.359h-9.06c0.04,0.461,0.149,0.921,0.33,1.38
		c0.18,0.461,0.43,0.851,0.75,1.171c0.34,0.34,0.709,0.56,1.109,0.659c0.4,0.101,0.78,0.15,1.141,0.15c0.779,0,1.449-0.21,2.01-0.63
		c0.26-0.2,0.484-0.42,0.675-0.66s0.355-0.479,0.495-0.72L526.969,829.704z M524.059,824.574c-0.12-0.7-0.42-1.271-0.899-1.71
		c-0.2-0.181-0.461-0.346-0.78-0.495c-0.32-0.15-0.72-0.226-1.2-0.226c-0.521,0-0.945,0.086-1.274,0.256
		c-0.33,0.17-0.596,0.354-0.796,0.555c-0.439,0.4-0.739,0.94-0.899,1.62H524.059z"/>
</g>
<rect x="245.044" y="703.318" fill="#333332" width="117.248" height="21.983"/>
<g>
	<g>
		<path fill="#F8F1E9" d="M71.444,190.005v16.161c-7.899-6.608-16.072-9.913-24.52-9.913c-9.307,0-17.146,3.343-23.521,10.03
			c-6.414,6.648-9.619,14.782-9.619,24.401c0,9.502,3.205,17.519,9.619,24.049c6.414,6.531,14.273,9.796,23.581,9.796
			c4.81,0,8.896-0.782,12.259-2.346c1.878-0.782,3.822-1.838,5.838-3.167c2.014-1.329,4.135-2.933,6.363-4.81v16.511
			c-7.822,4.439-16.034,6.658-24.637,6.658c-12.943,0-23.99-4.517-33.141-13.55C4.555,254.715,0,243.727,0,230.861
			c0-11.536,3.813-21.821,11.438-30.854c9.385-11.066,21.526-16.6,36.426-16.6C55.997,183.407,63.856,185.606,71.444,190.005z"/>
		<path fill="#F8F1E9" d="M83.47,246.757c0-8.25,2.951-15.27,8.856-21.058c5.903-5.787,13.101-8.681,21.586-8.681
			c8.524,0,15.759,2.913,21.703,8.74c5.866,5.827,8.799,12.983,8.799,21.468c0,8.564-2.953,15.74-8.858,21.527
			c-5.943,5.749-13.236,8.623-21.879,8.623c-8.563,0-15.74-2.933-21.526-8.799C86.362,262.79,83.47,255.517,83.47,246.757z
			 M96.96,246.991c0,5.71,1.525,10.227,4.575,13.55c3.128,3.364,7.254,5.045,12.377,5.045c5.161,0,9.286-1.662,12.377-4.986
			c3.089-3.323,4.634-7.762,4.634-13.315c0-5.552-1.545-9.991-4.634-13.315c-3.129-3.363-7.255-5.044-12.377-5.044
			c-5.044,0-9.131,1.682-12.259,5.044C98.524,237.333,96.96,241.673,96.96,246.991z"/>
		<path fill="#F8F1E9" d="M158.374,218.601h13.256v5.279c4.614-4.576,9.816-6.863,15.604-6.863c6.647,0,11.828,2.092,15.545,6.276
			c3.205,3.559,4.809,9.366,4.809,17.421v35.019h-13.256v-31.87c0-5.624-0.783-9.51-2.347-11.658
			c-1.525-2.187-4.302-3.281-8.329-3.281c-4.38,0-7.488,1.445-9.326,4.335c-1.799,2.852-2.699,7.831-2.699,14.939v27.534h-13.256
			V218.601z"/>
		<path fill="#F8F1E9" d="M257.446,228.338l-10.91,5.807c-1.721-3.48-3.853-5.22-6.395-5.22c-1.213,0-2.248,0.4-3.108,1.201
			c-0.86,0.801-1.29,1.826-1.29,3.075c0,2.188,2.541,4.355,7.625,6.504c6.999,3.008,11.711,5.78,14.137,8.319
			c2.424,2.539,3.637,5.957,3.637,10.252c0,5.507-2.033,10.117-6.101,13.827c-3.95,3.516-8.722,5.272-14.313,5.272
			c-9.581,0-16.365-4.672-20.354-14.019l11.264-5.22c1.563,2.738,2.756,4.478,3.578,5.22c1.602,1.487,3.519,2.229,5.748,2.229
			c4.457,0,6.687-2.033,6.687-6.101c0-2.346-1.722-4.536-5.161-6.569c-1.331-0.665-2.66-1.31-3.989-1.936
			c-1.33-0.625-2.679-1.271-4.048-1.936c-3.832-1.877-6.531-3.753-8.095-5.631c-1.994-2.385-2.991-5.455-2.991-9.209
			c0-4.966,1.701-9.072,5.104-12.318c3.479-3.245,7.703-4.868,12.67-4.868C248.45,217.018,253.888,220.792,257.446,228.338z"/>
		<path fill="#F8F1E9" d="M270.997,194.845c0-2.307,0.84-4.302,2.521-5.983c1.682-1.681,3.695-2.522,6.041-2.522
			c2.386,0,4.42,0.841,6.102,2.522c1.68,1.643,2.521,3.657,2.521,6.042s-0.842,4.419-2.521,6.1
			c-1.643,1.682-3.656,2.522-6.042,2.522s-4.419-0.841-6.101-2.522C271.837,199.323,270.997,197.271,270.997,194.845z
			 M286.188,218.601v57.132h-13.197v-57.132H286.188z"/>
		<path fill="#F8F1E9" d="M345.021,176.661h13.257v99.072h-13.257v-5.983c-5.201,5.084-11.086,7.625-17.655,7.625
			c-7.821,0-14.312-2.854-19.474-8.564c-5.124-5.826-7.685-13.1-7.685-21.82c0-8.524,2.561-15.641,7.685-21.351
			c5.082-5.749,11.477-8.623,19.181-8.623c6.687,0,12.669,2.737,17.948,8.212V176.661z M313.698,246.991
			c0,5.475,1.467,9.933,4.399,13.374c3.011,3.481,6.804,5.221,11.379,5.221c4.888,0,8.838-1.681,11.85-5.045
			c3.011-3.48,4.517-7.898,4.517-13.257c0-5.356-1.506-9.775-4.517-13.256c-3.012-3.402-6.922-5.103-11.731-5.103
			c-4.537,0-8.329,1.721-11.379,5.162C315.202,237.567,313.698,241.869,313.698,246.991z"/>
		<path fill="#F8F1E9" d="M426.966,250.276h-40.943c0.352,4.693,1.877,8.428,4.576,11.204c2.697,2.738,6.158,4.106,10.381,4.106
			c3.285,0,6.003-0.782,8.154-2.347c2.111-1.563,4.516-4.458,7.215-8.681l11.145,6.217c-1.722,2.933-3.539,5.446-5.455,7.538
			c-1.916,2.093-3.97,3.813-6.158,5.162c-2.191,1.349-4.557,2.336-7.098,2.962c-2.543,0.625-5.3,0.938-8.271,0.938
			c-8.525,0-15.368-2.736-20.529-8.212c-5.162-5.514-7.743-12.826-7.743-21.938c0-9.033,2.503-16.345,7.508-21.938
			c5.044-5.514,11.731-8.271,20.062-8.271c8.406,0,15.055,2.679,19.943,8.036c4.848,5.318,7.272,12.69,7.272,22.113L426.966,250.276
			z M413.415,239.483c-1.838-7.039-6.276-10.558-13.314-10.558c-1.604,0-3.108,0.245-4.518,0.733
			c-1.406,0.489-2.688,1.193-3.842,2.111c-1.153,0.919-2.141,2.023-2.961,3.314c-0.822,1.291-1.447,2.757-1.879,4.399H413.415z"/>
		<path fill="#F8F1E9" d="M441.396,218.601h13.197v5.103c2.425-2.542,4.576-4.282,6.453-5.22c1.915-0.977,4.184-1.466,6.803-1.466
			c3.48,0,7.117,1.135,10.91,3.402l-6.041,12.083c-2.503-1.798-4.947-2.698-7.332-2.698c-7.195,0-10.793,5.436-10.793,16.307v29.622
			h-13.197V218.601z"/>
		<path fill="#F8F1E9" d="M537.534,250.276h-40.943c0.352,4.693,1.878,8.428,4.576,11.204c2.698,2.738,6.159,4.106,10.383,4.106
			c3.284,0,6.002-0.782,8.152-2.347c2.111-1.563,4.516-4.458,7.215-8.681l11.145,6.217c-1.721,2.933-3.539,5.446-5.455,7.538
			c-1.916,2.093-3.969,3.813-6.158,5.162c-2.191,1.349-4.557,2.336-7.098,2.962c-2.543,0.625-5.299,0.938-8.271,0.938
			c-8.525,0-15.367-2.736-20.529-8.212c-5.162-5.514-7.742-12.826-7.742-21.938c0-9.033,2.502-16.345,7.508-21.938
			c5.044-5.514,11.73-8.271,20.061-8.271c8.407,0,15.055,2.679,19.943,8.036c4.848,5.318,7.273,12.69,7.273,22.113L537.534,250.276z
			 M523.984,239.483c-1.839-7.039-6.276-10.558-13.315-10.558c-1.604,0-3.108,0.245-4.517,0.733
			c-1.407,0.489-2.688,1.193-3.843,2.111c-1.152,0.919-2.141,2.023-2.961,3.314c-0.822,1.291-1.447,2.757-1.877,4.399H523.984z"/>
		<path fill="#F8F1E9" d="M594.08,176.661h13.257v99.072H594.08v-5.983c-5.202,5.084-11.087,7.625-17.656,7.625
			c-7.821,0-14.312-2.854-19.474-8.564c-5.124-5.826-7.685-13.1-7.685-21.82c0-8.524,2.561-15.641,7.685-21.351
			c5.082-5.749,11.477-8.623,19.181-8.623c6.687,0,12.67,2.737,17.949,8.212V176.661z M562.757,246.991
			c0,5.475,1.467,9.933,4.399,13.374c3.011,3.481,6.804,5.221,11.379,5.221c4.888,0,8.838-1.681,11.849-5.045
			c3.012-3.48,4.518-7.898,4.518-13.257c0-5.356-1.506-9.775-4.518-13.256c-3.011-3.402-6.92-5.103-11.73-5.103
			c-4.537,0-8.329,1.721-11.379,5.162C564.261,237.567,562.757,241.869,562.757,246.991z"/>
	</g>
	<g>
		<path fill="#F8F1E9" d="M77.779,296.791h13.257v99.072H77.779v-5.983c-5.202,5.084-11.086,7.625-17.655,7.625
			c-7.822,0-14.313-2.854-19.475-8.564c-5.123-5.826-7.684-13.1-7.684-21.82c0-8.524,2.561-15.641,7.684-21.351
			c5.083-5.749,11.477-8.623,19.182-8.623c6.686,0,12.669,2.737,17.948,8.212V296.791z M46.456,367.121
			c0,5.475,1.467,9.933,4.4,13.374c3.01,3.481,6.803,5.221,11.379,5.221c4.888,0,8.838-1.681,11.849-5.045
			c3.011-3.48,4.517-7.898,4.517-13.257c0-5.356-1.506-9.775-4.517-13.256c-3.011-3.402-6.921-5.103-11.731-5.103
			c-4.537,0-8.329,1.721-11.379,5.162C47.961,357.697,46.456,361.999,46.456,367.121z"/>
		<path fill="#F8F1E9" d="M159.724,370.406H118.78c0.353,4.693,1.878,8.428,4.576,11.204c2.698,2.738,6.158,4.106,10.382,4.106
			c3.285,0,6.003-0.782,8.153-2.347c2.111-1.563,4.516-4.458,7.215-8.681l11.145,6.217c-1.721,2.933-3.539,5.446-5.455,7.538
			c-1.916,2.093-3.969,3.813-6.158,5.162c-2.191,1.349-4.557,2.336-7.098,2.962c-2.543,0.625-5.299,0.938-8.271,0.938
			c-8.525,0-15.367-2.736-20.529-8.212c-5.162-5.514-7.742-12.826-7.742-21.938c0-9.033,2.502-16.345,7.508-21.938
			c5.044-5.514,11.731-8.271,20.061-8.271c8.407,0,15.055,2.679,19.943,8.036c4.848,5.318,7.273,12.69,7.273,22.113L159.724,370.406
			z M146.173,359.613c-1.838-7.039-6.275-10.558-13.314-10.558c-1.604,0-3.108,0.245-4.516,0.733
			c-1.408,0.489-2.689,1.193-3.844,2.111c-1.152,0.919-2.141,2.023-2.961,3.314c-0.822,1.291-1.447,2.757-1.878,4.399H146.173z"/>
		<path fill="#F8F1E9" d="M207.353,348.468l-10.908,5.807c-1.723-3.48-3.854-5.22-6.395-5.22c-1.213,0-2.25,0.4-3.109,1.201
			c-0.86,0.801-1.29,1.826-1.29,3.075c0,2.188,2.542,4.355,7.626,6.504c6.998,3.008,11.711,5.78,14.136,8.319
			c2.424,2.539,3.638,5.957,3.638,10.252c0,5.507-2.034,10.117-6.102,13.827c-3.949,3.516-8.721,5.272-14.313,5.272
			c-9.581,0-16.365-4.672-20.354-14.019l11.262-5.22c1.564,2.738,2.758,4.478,3.578,5.22c1.604,1.487,3.52,2.229,5.748,2.229
			c4.458,0,6.688-2.033,6.688-6.101c0-2.346-1.721-4.536-5.162-6.57c-1.33-0.665-2.66-1.31-3.988-1.936
			c-1.33-0.625-2.679-1.271-4.047-1.936c-3.834-1.877-6.531-3.754-8.096-5.631c-1.994-2.385-2.99-5.455-2.99-9.209
			c0-4.966,1.701-9.072,5.102-12.318c3.48-3.245,7.704-4.868,12.671-4.868C198.358,337.147,203.794,340.921,207.353,348.468z"/>
		<path fill="#F8F1E9" d="M220.903,314.975c0-2.307,0.84-4.301,2.521-5.983c1.682-1.681,3.695-2.522,6.042-2.522
			c2.385,0,4.419,0.841,6.101,2.522c1.681,1.643,2.522,3.657,2.522,6.042c0,2.385-0.842,4.419-2.522,6.1
			c-1.643,1.682-3.656,2.522-6.041,2.522c-2.387,0-4.42-0.84-6.102-2.522C221.743,319.453,220.903,317.4,220.903,314.975z
			 M236.095,338.731v57.132h-13.197v-57.132H236.095z"/>
		<path fill="#F8F1E9" d="M308.067,394.514c0,2.698-0.088,5.074-0.264,7.126c-0.176,2.053-0.421,3.861-0.733,5.426
			c-0.938,4.301-2.776,7.996-5.513,11.086c-5.162,5.943-12.26,8.916-21.293,8.916c-7.627,0-13.902-2.063-18.83-6.188
			c-5.084-4.243-8.017-10.099-8.799-17.567h13.257c0.509,2.815,1.349,4.986,2.522,6.511c2.737,3.558,6.726,5.338,11.967,5.338
			c9.658,0,14.488-5.905,14.488-17.714v-7.978c-5.241,5.358-11.283,8.036-18.125,8.036c-7.783,0-14.156-2.815-19.123-8.446
			c-5.006-5.709-7.508-12.846-7.508-21.41c0-8.33,2.326-15.407,6.98-21.234c5.005-6.178,11.613-9.268,19.826-9.268
			c7.194,0,13.178,2.679,17.949,8.036v-6.453h13.197V394.514z M295.397,367.444c0-5.544-1.486-9.975-4.457-13.294
			c-3.013-3.397-6.863-5.095-11.557-5.095c-5.006,0-8.955,1.855-11.848,5.563c-2.621,3.32-3.93,7.615-3.93,12.885
			c0,5.193,1.309,9.449,3.93,12.767c2.854,3.631,6.804,5.446,11.848,5.446c5.045,0,9.033-1.835,11.967-5.505
			C294.05,376.892,295.397,372.637,295.397,367.444z"/>
		<path fill="#F8F1E9" d="M324.727,338.731h13.257v5.279c4.613-4.576,9.814-6.863,15.602-6.863c6.648,0,11.83,2.092,15.545,6.276
			c3.206,3.559,4.811,9.366,4.811,17.421v35.019h-13.258v-31.87c0-5.624-0.782-9.51-2.346-11.658
			c-1.525-2.187-4.302-3.281-8.329-3.281c-4.38,0-7.489,1.445-9.327,4.335c-1.799,2.852-2.697,7.831-2.697,14.939v27.534h-13.257
			V338.731z"/>
		<path fill="#F8F1E9" d="M441.337,351.049v44.814H428.08v-44.814h-4.692v-12.318h4.692v-22.055c0-7.195,1.251-12.278,3.755-15.25
			c3.439-4.145,8.446-6.218,15.016-6.218c2.346,0,5.299,0.685,8.857,2.053v13.491l-1.35-0.704c-2.854-1.446-5.201-2.17-7.039-2.17
			c-2.346,0-3.93,0.841-4.751,2.522c-0.82,1.643-1.231,4.81-1.231,9.503v18.829h14.371v12.318H441.337z"/>
		<path fill="#F8F1E9" d="M462.101,366.887c0-8.25,2.953-15.27,8.857-21.058c5.904-5.787,13.1-8.681,21.586-8.681
			c8.524,0,15.759,2.913,21.703,8.74c5.866,5.827,8.799,12.983,8.799,21.468c0,8.564-2.953,15.74-8.857,21.527
			c-5.944,5.749-13.237,8.623-21.879,8.623c-8.564,0-15.74-2.933-21.527-8.798C464.994,382.92,462.101,375.646,462.101,366.887z
			 M475.593,367.121c0,5.71,1.524,10.227,4.574,13.55c3.129,3.364,7.254,5.045,12.377,5.045c5.162,0,9.287-1.662,12.377-4.986
			c3.088-3.323,4.635-7.762,4.635-13.315c0-5.552-1.547-9.991-4.635-13.315c-3.129-3.363-7.255-5.044-12.377-5.044
			c-5.044,0-9.131,1.682-12.259,5.044C477.155,357.463,475.593,361.803,475.593,367.121z"/>
		<path fill="#F8F1E9" d="M537.007,338.731h13.197v5.103c2.425-2.542,4.576-4.282,6.453-5.22c1.915-0.977,4.184-1.466,6.804-1.466
			c3.479,0,7.116,1.135,10.91,3.402l-6.042,12.083c-2.503-1.798-4.947-2.698-7.332-2.698c-7.195,0-10.793,5.436-10.793,16.307
			v29.622h-13.197V338.731z"/>
	</g>
	<g>
		<path fill="#F8F1E9" d="M141.716,462.472v17.538c-3.012-3.675-5.71-6.197-8.095-7.566c-2.347-1.408-5.104-2.111-8.271-2.111
			c-4.967,0-9.092,1.74-12.377,5.22c-3.285,3.481-4.928,7.841-4.928,13.081c0,5.357,1.584,9.757,4.752,13.197
			c3.206,3.442,7.293,5.162,12.26,5.162c3.167,0,5.963-0.684,8.387-2.053c2.348-1.329,5.104-3.91,8.271-7.743v17.422
			c-5.357,2.775-10.715,4.164-16.072,4.164c-8.838,0-16.229-2.854-22.172-8.563c-5.945-5.749-8.916-12.885-8.916-21.41
			c0-8.524,3.011-15.721,9.033-21.586c6.021-5.865,13.412-8.799,22.172-8.799C131.392,458.424,136.71,459.773,141.716,462.472z"/>
		<path fill="#F8F1E9" d="M154.503,460.008H167.7v5.104c2.425-2.542,4.576-4.282,6.453-5.221c1.916-0.977,4.184-1.467,6.805-1.467
			c3.479,0,7.116,1.135,10.91,3.402l-6.043,12.084c-2.502-1.799-4.946-2.699-7.331-2.699c-7.196,0-10.794,5.437-10.794,16.308
			v29.621h-13.197V460.008z"/>
		<path fill="#F8F1E9" d="M249.936,491.683h-40.942c0.352,4.692,1.877,8.428,4.574,11.204c2.699,2.737,6.16,4.105,10.383,4.105
			c3.285,0,6.003-0.781,8.153-2.346c2.112-1.564,4.517-4.458,7.215-8.682l11.146,6.218c-1.722,2.933-3.54,5.445-5.455,7.537
			c-1.917,2.093-3.97,3.813-6.16,5.162c-2.189,1.349-4.555,2.336-7.097,2.962c-2.542,0.625-5.3,0.938-8.271,0.938
			c-8.525,0-15.369-2.736-20.53-8.212c-5.162-5.514-7.743-12.826-7.743-21.938c0-9.033,2.502-16.346,7.508-21.938
			c5.045-5.514,11.732-8.271,20.062-8.271c8.407,0,15.055,2.68,19.943,8.037c4.849,5.318,7.273,12.689,7.273,22.113L249.936,491.683
			z M236.386,480.89c-1.838-7.038-6.276-10.558-13.315-10.558c-1.603,0-3.108,0.244-4.517,0.732
			c-1.408,0.49-2.689,1.193-3.842,2.111c-1.154,0.92-2.141,2.024-2.963,3.314c-0.82,1.291-1.446,2.757-1.877,4.399H236.386z"/>
		<path fill="#F8F1E9" d="M307.188,460.008h13.257v57.132h-13.257v-5.982c-5.436,5.084-11.282,7.625-17.538,7.625
			c-7.899,0-14.43-2.854-19.592-8.563c-5.123-5.826-7.684-13.101-7.684-21.82c0-8.564,2.561-15.701,7.684-21.41
			s11.535-8.564,19.24-8.564c6.647,0,12.611,2.738,17.89,8.213V460.008z M275.865,488.398c0,5.475,1.466,9.933,4.399,13.373
			c3.01,3.481,6.804,5.221,11.379,5.221c4.888,0,8.838-1.681,11.849-5.044c3.011-3.48,4.517-7.899,4.517-13.257
			s-1.506-9.775-4.517-13.257c-3.011-3.401-6.921-5.103-11.731-5.103c-4.537,0-8.329,1.721-11.379,5.161
			C277.37,478.975,275.865,483.275,275.865,488.398z"/>
		<path fill="#F8F1E9" d="M350.712,472.326v44.813h-13.199v-44.813h-5.631v-12.318h5.631v-20.94h13.199v20.94h10.264v12.318H350.712
			z"/>
		<path fill="#F8F1E9" d="M367.956,436.252c0-2.307,0.841-4.301,2.523-5.983c1.681-1.681,3.695-2.522,6.041-2.522
			c2.385,0,4.418,0.842,6.101,2.522c1.681,1.643,2.522,3.657,2.522,6.042c0,2.386-0.842,4.42-2.522,6.1
			c-1.643,1.682-3.657,2.523-6.042,2.523c-2.386,0-4.419-0.842-6.1-2.523C368.797,440.73,367.956,438.677,367.956,436.252z
			 M383.149,460.008v57.132H369.95v-57.132H383.149z"/>
		<path fill="#F8F1E9" d="M406.257,460.008l14.781,32.086l14.723-32.086h14.842l-29.682,61.063l-29.445-61.063H406.257z"/>
		<path fill="#F8F1E9" d="M510.2,491.683h-40.943c0.353,4.692,1.877,8.428,4.576,11.204c2.697,2.737,6.159,4.105,10.382,4.105
			c3.285,0,6.003-0.781,8.153-2.346c2.111-1.564,4.517-4.458,7.215-8.682l11.145,6.218c-1.721,2.933-3.539,5.445-5.455,7.537
			c-1.916,2.093-3.969,3.813-6.158,5.162c-2.19,1.349-4.557,2.336-7.098,2.962c-2.543,0.625-5.299,0.938-8.271,0.938
			c-8.526,0-15.368-2.736-20.53-8.212c-5.162-5.514-7.742-12.826-7.742-21.938c0-9.033,2.502-16.346,7.508-21.938
			c5.044-5.514,11.73-8.271,20.061-8.271c8.407,0,15.055,2.68,19.943,8.037c4.849,5.318,7.273,12.689,7.273,22.113L510.2,491.683z
			 M496.65,480.89c-1.839-7.038-6.276-10.558-13.315-10.558c-1.604,0-3.109,0.244-4.517,0.732c-1.407,0.49-2.688,1.193-3.843,2.111
			c-1.153,0.92-2.141,2.024-2.961,3.314c-0.822,1.291-1.447,2.757-1.877,4.399H496.65z"/>
		<path fill="#F8F1E9" d="M122.591,592.456v44.813h-13.198v-44.813h-5.63v-12.318h5.63v-20.94h13.198v20.94h10.266v12.318H122.591z"
			/>
		<path fill="#F8F1E9" d="M144.942,538.198h13.197v46.69c4.693-4.223,9.873-6.335,15.545-6.335c6.451,0,11.613,2.093,15.484,6.276
			c3.285,3.637,4.928,9.444,4.928,17.422v35.018h-13.197v-33.786c0-4.575-0.813-7.89-2.435-9.942
			c-1.624-2.053-4.233-3.079-7.831-3.079c-4.615,0-7.86,1.428-9.737,4.281c-1.839,2.895-2.757,7.86-2.757,14.899v27.627h-13.197
			V538.198z"/>
		<path fill="#F8F1E9" d="M208.819,556.382c0-2.307,0.841-4.302,2.522-5.983c1.681-1.681,3.695-2.522,6.042-2.522
			c2.385,0,4.418,0.842,6.1,2.522c1.682,1.643,2.523,3.657,2.523,6.042c0,2.386-0.842,4.419-2.523,6.101
			c-1.643,1.682-3.656,2.522-6.041,2.522c-2.386,0-4.42-0.841-6.101-2.522C209.66,560.859,208.819,558.807,208.819,556.382z
			 M224.013,580.138v57.132h-13.199v-57.132H224.013z"/>
		<path fill="#F8F1E9" d="M240.729,580.138h13.256v5.279c4.614-4.575,9.815-6.863,15.604-6.863c6.646,0,11.828,2.093,15.543,6.276
			c3.207,3.559,4.811,9.366,4.811,17.422v35.018h-13.256V605.4c0-5.623-0.783-9.51-2.347-11.658c-1.525-2.187-4.302-3.28-8.329-3.28
			c-4.381,0-7.489,1.445-9.327,4.335c-1.798,2.852-2.698,7.83-2.698,14.939v27.533h-13.256V580.138z"/>
		<path fill="#F8F1E9" d="M319.799,538.198v60.417l18.595-18.478h17.715l-24.813,23.991l26.631,33.141h-17.129l-18.887-24.107
			l-2.112,2.111v21.996h-13.198v-99.071H319.799z"/>
		<path fill="#F8F1E9" d="M416.524,611.813h-40.942c0.352,4.692,1.877,8.428,4.575,11.204c2.698,2.737,6.158,4.105,10.383,4.105
			c3.284,0,6.002-0.781,8.152-2.346c2.112-1.564,4.518-4.458,7.215-8.682l11.146,6.218c-1.722,2.933-3.54,5.445-5.456,7.537
			c-1.916,2.093-3.969,3.813-6.158,5.162c-2.19,1.349-4.557,2.336-7.098,2.962c-2.542,0.625-5.299,0.938-8.271,0.938
			c-8.525,0-15.368-2.736-20.53-8.212c-5.162-5.514-7.742-12.825-7.742-21.938c0-9.033,2.502-16.346,7.508-21.938
			c5.045-5.515,11.731-8.271,20.061-8.271c8.407,0,15.055,2.68,19.943,8.036c4.849,5.318,7.273,12.69,7.273,22.114L416.524,611.813z
			 M402.975,601.02c-1.839-7.038-6.276-10.558-13.315-10.558c-1.604,0-3.108,0.244-4.516,0.732
			c-1.408,0.489-2.689,1.193-3.843,2.112s-2.141,2.023-2.962,3.313c-0.821,1.291-1.447,2.757-1.877,4.399H402.975z"/>
		<path fill="#F8F1E9" d="M430.954,580.138h13.198v5.104c2.424-2.542,4.575-4.282,6.452-5.221c1.916-0.978,4.184-1.467,6.805-1.467
			c3.48,0,7.116,1.135,10.91,3.402l-6.042,12.084c-2.503-1.799-4.947-2.698-7.333-2.698c-7.195,0-10.792,5.436-10.792,16.307v29.621
			h-13.198V580.138z"/>
		<path fill="#F8F1E9" d="M509.085,589.875l-10.91,5.807c-1.721-3.479-3.852-5.22-6.393-5.22c-1.213,0-2.25,0.4-3.109,1.201
			c-0.86,0.801-1.291,1.826-1.291,3.075c0,2.188,2.543,4.355,7.626,6.504c6.999,3.008,11.712,5.78,14.137,8.318
			c2.424,2.539,3.636,5.957,3.636,10.252c0,5.508-2.033,10.117-6.1,13.827c-3.95,3.516-8.721,5.272-14.313,5.272
			c-9.581,0-16.365-4.672-20.354-14.019l11.262-5.221c1.564,2.737,2.757,4.478,3.578,5.221c1.604,1.486,3.52,2.229,5.748,2.229
			c4.459,0,6.688-2.033,6.688-6.101c0-2.346-1.721-4.535-5.162-6.569c-1.33-0.664-2.66-1.31-3.988-1.936
			c-1.33-0.625-2.68-1.271-4.048-1.936c-3.833-1.877-6.53-3.754-8.095-5.631c-1.994-2.386-2.991-5.455-2.991-9.21
			c0-4.966,1.701-9.071,5.103-12.317c3.48-3.246,7.704-4.869,12.67-4.869C500.091,578.554,505.526,582.328,509.085,589.875z"/>
	</g>
</g>
<g>
	<g>
		<path fill="#F8F1E9" d="M245.28,57.458c-0.068-0.151-0.148-0.299-0.242-0.443c-0.096-0.145-0.216-0.285-0.365-0.423
			c-0.404-0.33-0.889-0.495-1.455-0.495c-0.633,0-1.109,0.162-1.426,0.486s-0.475,0.702-0.475,1.135
			c0,0.108,0.014,0.227,0.041,0.354s0.091,0.267,0.191,0.415c0.1,0.149,0.248,0.298,0.443,0.446c0.193,0.148,0.453,0.29,0.775,0.425
			l1.35,0.541c0.617,0.253,1.131,0.526,1.541,0.82c0.41,0.293,0.734,0.607,0.977,0.94c0.242,0.334,0.41,0.684,0.504,1.051
			s0.142,0.737,0.142,1.11c0,0.641-0.106,1.221-0.319,1.741c-0.215,0.521-0.512,0.971-0.891,1.351
			c-0.381,0.38-0.834,0.674-1.361,0.881c-0.527,0.206-1.104,0.31-1.73,0.31c-0.775,0-1.404-0.127-1.893-0.38
			c-0.486-0.253-0.904-0.573-1.25-0.961c-0.361-0.399-0.627-0.816-0.801-1.25c-0.173-0.434-0.279-0.884-0.32-1.352l2.021-0.439
			c0,0.339,0.053,0.657,0.162,0.955c0.107,0.299,0.242,0.556,0.402,0.772c0.189,0.244,0.428,0.44,0.717,0.59
			s0.637,0.224,1.041,0.224c0.633,0,1.16-0.203,1.584-0.61c0.424-0.406,0.637-0.95,0.637-1.631c0-0.333-0.061-0.623-0.182-0.87
			s-0.271-0.461-0.453-0.641c-0.182-0.181-0.389-0.33-0.625-0.45c-0.234-0.12-0.461-0.227-0.676-0.32l-1.289-0.54
			c-0.281-0.121-0.58-0.269-0.896-0.443c-0.314-0.174-0.611-0.398-0.887-0.674s-0.502-0.598-0.684-0.967
			c-0.182-0.368-0.273-0.809-0.273-1.318c0-0.456,0.088-0.896,0.262-1.318c0.172-0.423,0.422-0.798,0.75-1.127
			c0.326-0.329,0.732-0.594,1.221-0.795c0.486-0.201,1.043-0.302,1.67-0.302c0.721,0,1.295,0.104,1.723,0.31
			c0.427,0.207,0.746,0.404,0.959,0.591c0.188,0.16,0.367,0.354,0.541,0.58c0.174,0.228,0.334,0.48,0.48,0.761L245.28,57.458z"/>
		<path fill="#F8F1E9" d="M252.013,61.26v6.584h-2V61.26h-0.82v-1.841h0.82v-3.082h2v3.082h1.502v1.841H252.013z"/>
		<path fill="#F8F1E9" d="M257.317,59.419v4.822c0,0.254,0.016,0.514,0.049,0.781c0.031,0.267,0.133,0.514,0.303,0.74
			c0.129,0.174,0.301,0.313,0.516,0.42c0.215,0.107,0.459,0.16,0.732,0.16s0.518-0.053,0.732-0.16
			c0.216-0.106,0.387-0.246,0.518-0.42c0.17-0.227,0.27-0.474,0.303-0.74c0.033-0.268,0.049-0.527,0.049-0.781v-4.822h2.002v4.883
			c0,0.547-0.055,1.048-0.16,1.501c-0.107,0.453-0.354,0.874-0.74,1.261c-0.389,0.387-0.824,0.657-1.313,0.811
			c-0.486,0.153-0.963,0.229-1.43,0.229c-0.428,0-0.881-0.076-1.361-0.229s-0.914-0.424-1.301-0.811s-0.633-0.808-0.74-1.261
			s-0.16-0.954-0.16-1.501v-4.883H257.317z"/>
		<path fill="#F8F1E9" d="M271.493,53.255h2v14.589h-2v-0.881c-0.212,0.254-0.436,0.454-0.666,0.601
			c-0.232,0.147-0.461,0.261-0.688,0.34c-0.225,0.08-0.438,0.134-0.637,0.16c-0.197,0.027-0.371,0.04-0.516,0.04
			c-0.65,0-1.227-0.123-1.73-0.37c-0.506-0.246-0.93-0.58-1.273-1c-0.346-0.421-0.607-0.897-0.785-1.432
			c-0.18-0.533-0.27-1.094-0.27-1.681c0-0.681,0.109-1.294,0.328-1.841s0.514-1.011,0.885-1.391
			c0.371-0.381,0.803-0.674,1.293-0.881s1.016-0.311,1.572-0.311c0.158,0,0.338,0.014,0.537,0.04
			c0.199,0.027,0.41,0.084,0.637,0.171c0.226,0.087,0.449,0.21,0.676,0.37c0.225,0.16,0.438,0.367,0.637,0.62V53.255z
			 M269.251,60.96c-0.357,0-0.677,0.069-0.961,0.21c-0.285,0.14-0.527,0.333-0.725,0.58c-0.198,0.247-0.354,0.534-0.467,0.86
			c-0.113,0.327-0.168,0.678-0.168,1.051c0,0.36,0.055,0.704,0.168,1.03c0.113,0.327,0.269,0.614,0.467,0.861
			c0.197,0.247,0.439,0.439,0.725,0.58c0.284,0.14,0.604,0.21,0.961,0.21c0.305,0,0.6-0.057,0.883-0.17
			c0.285-0.113,0.537-0.28,0.756-0.5c0.217-0.221,0.393-0.497,0.525-0.831c0.131-0.333,0.198-0.721,0.198-1.16
			c0-0.454-0.067-0.854-0.198-1.201c-0.133-0.347-0.309-0.63-0.525-0.851c-0.219-0.22-0.471-0.387-0.756-0.5
			C269.851,61.017,269.556,60.96,269.251,60.96z"/>
		<path fill="#F8F1E9" d="M276.136,55.937c0-0.36,0.121-0.66,0.359-0.9c0.24-0.24,0.541-0.36,0.902-0.36c0.359,0,0.66,0.12,0.9,0.36
			s0.359,0.54,0.359,0.9s-0.119,0.66-0.359,0.9s-0.541,0.36-0.9,0.36c-0.361,0-0.662-0.12-0.902-0.36
			C276.257,56.597,276.136,56.297,276.136,55.937z M278.378,59.419v8.425h-2.002v-8.425H278.378z"/>
		<path fill="#F8F1E9" d="M285.222,59.199c0.642,0,1.234,0.11,1.781,0.33c0.547,0.221,1.021,0.527,1.422,0.921
			s0.717,0.86,0.951,1.401c0.232,0.54,0.35,1.137,0.35,1.791c0,0.64-0.117,1.233-0.35,1.78c-0.234,0.548-0.551,1.021-0.951,1.421
			c-0.4,0.4-0.875,0.711-1.422,0.931c-0.547,0.221-1.14,0.33-1.781,0.33c-0.639,0-1.232-0.109-1.779-0.33
			c-0.549-0.22-1.021-0.53-1.422-0.931c-0.4-0.399-0.717-0.873-0.951-1.421c-0.232-0.547-0.35-1.141-0.35-1.78
			c0-0.654,0.117-1.251,0.35-1.791c0.234-0.541,0.551-1.008,0.951-1.401s0.873-0.7,1.422-0.921
			C283.989,59.309,284.583,59.199,285.222,59.199z M285.222,66.343c0.775,0,1.385-0.243,1.832-0.73
			c0.447-0.486,0.67-1.137,0.67-1.951c0-0.48-0.072-0.891-0.219-1.23c-0.148-0.341-0.338-0.62-0.57-0.841
			c-0.234-0.22-0.502-0.38-0.801-0.48c-0.301-0.1-0.604-0.149-0.912-0.149c-0.307,0-0.609,0.05-0.91,0.149
			c-0.299,0.101-0.566,0.261-0.801,0.48c-0.232,0.221-0.422,0.5-0.57,0.841c-0.146,0.34-0.219,0.75-0.219,1.23
			c0,0.814,0.223,1.465,0.67,1.951C283.839,66.1,284.449,66.343,285.222,66.343z"/>
		<path fill="#F8F1E9" d="M299.591,54.497v11.427h3.963v1.921h-5.965V54.497H299.591z"/>
		<path fill="#F8F1E9" d="M309.63,59.199c0.641,0,1.235,0.11,1.781,0.33c0.547,0.221,1.021,0.527,1.422,0.921
			s0.717,0.86,0.951,1.401c0.232,0.54,0.35,1.137,0.35,1.791c0,0.64-0.117,1.233-0.35,1.78c-0.234,0.548-0.551,1.021-0.951,1.421
			c-0.4,0.4-0.875,0.711-1.422,0.931c-0.546,0.221-1.141,0.33-1.781,0.33c-0.639,0-1.232-0.109-1.779-0.33
			c-0.549-0.22-1.021-0.53-1.422-0.931c-0.4-0.399-0.717-0.873-0.951-1.421c-0.232-0.547-0.35-1.141-0.35-1.78
			c0-0.654,0.117-1.251,0.35-1.791c0.234-0.541,0.551-1.008,0.951-1.401s0.873-0.7,1.422-0.921
			C308.397,59.309,308.991,59.199,309.63,59.199z M309.63,66.343c0.775,0,1.385-0.243,1.832-0.73c0.447-0.486,0.67-1.137,0.67-1.951
			c0-0.48-0.072-0.891-0.219-1.23c-0.148-0.341-0.338-0.62-0.57-0.841c-0.234-0.22-0.502-0.38-0.801-0.48
			c-0.301-0.1-0.604-0.149-0.912-0.149c-0.306,0-0.609,0.05-0.91,0.149c-0.299,0.101-0.566,0.261-0.801,0.48
			c-0.232,0.221-0.422,0.5-0.57,0.841c-0.146,0.34-0.219,0.75-0.219,1.23c0,0.814,0.223,1.465,0.67,1.951
			C308.247,66.1,308.856,66.343,309.63,66.343z"/>
		<path fill="#F8F1E9" d="M317.292,59.419l2.162,4.803l2.161-4.803h2.2l-4.361,9.025l-4.363-9.025H317.292z"/>
		<path fill="#F8F1E9" d="M332.747,65.923c-0.188,0.32-0.404,0.613-0.65,0.88c-0.248,0.268-0.504,0.487-0.771,0.661
			c-0.346,0.227-0.732,0.39-1.16,0.49c-0.428,0.1-0.867,0.149-1.32,0.149c-0.561,0-1.074-0.08-1.541-0.24
			c-0.467-0.159-0.9-0.439-1.301-0.84s-0.707-0.877-0.92-1.431c-0.215-0.554-0.32-1.151-0.32-1.791c0-0.654,0.113-1.281,0.34-1.882
			c0.227-0.6,0.561-1.127,1-1.581c0.348-0.347,0.754-0.623,1.222-0.83c0.466-0.207,1-0.311,1.601-0.311
			c0.68,0,1.236,0.117,1.67,0.351s0.777,0.483,1.031,0.75c0.268,0.28,0.48,0.584,0.641,0.911s0.279,0.65,0.359,0.971
			s0.131,0.627,0.15,0.92c0.02,0.294,0.031,0.548,0.031,0.761v0.24h-6.045c0.027,0.307,0.101,0.613,0.221,0.921
			c0.119,0.307,0.287,0.566,0.5,0.78c0.227,0.227,0.473,0.373,0.74,0.44c0.268,0.066,0.521,0.1,0.762,0.1
			c0.52,0,0.967-0.14,1.34-0.42c0.174-0.134,0.324-0.28,0.451-0.44c0.125-0.16,0.236-0.32,0.33-0.48L332.747,65.923z
			 M330.806,62.501c-0.08-0.467-0.281-0.848-0.6-1.141c-0.134-0.12-0.309-0.23-0.521-0.331c-0.213-0.1-0.48-0.149-0.801-0.149
			c-0.346,0-0.629,0.057-0.85,0.17s-0.396,0.237-0.531,0.37c-0.293,0.267-0.492,0.627-0.6,1.081H330.806z"/>
		<path fill="#F8F1E9" d="M337.269,53.255v14.589h-2.002V53.255H337.269z"/>
		<path fill="#F8F1E9" d="M344.199,59.199c0.64,0,1.233,0.11,1.78,0.33c0.547,0.221,1.021,0.527,1.422,0.921s0.717,0.86,0.951,1.401
			c0.232,0.54,0.35,1.137,0.35,1.791c0,0.64-0.117,1.233-0.35,1.78c-0.234,0.548-0.551,1.021-0.951,1.421
			c-0.4,0.4-0.875,0.711-1.422,0.931c-0.547,0.221-1.141,0.33-1.78,0.33s-1.233-0.109-1.78-0.33c-0.549-0.22-1.021-0.53-1.422-0.931
			c-0.4-0.399-0.717-0.873-0.951-1.421c-0.232-0.547-0.349-1.141-0.349-1.78c0-0.654,0.116-1.251,0.349-1.791
			c0.234-0.541,0.551-1.008,0.951-1.401s0.873-0.7,1.422-0.921C342.966,59.309,343.56,59.199,344.199,59.199z M344.199,66.343
			c0.774,0,1.384-0.243,1.831-0.73c0.447-0.486,0.67-1.137,0.67-1.951c0-0.48-0.072-0.891-0.219-1.23
			c-0.148-0.341-0.338-0.62-0.57-0.841c-0.234-0.22-0.502-0.38-0.801-0.48c-0.301-0.1-0.604-0.149-0.911-0.149
			s-0.61,0.05-0.911,0.149c-0.299,0.101-0.566,0.261-0.801,0.48c-0.232,0.221-0.422,0.5-0.57,0.841
			c-0.146,0.34-0.219,0.75-0.219,1.23c0,0.814,0.223,1.465,0.67,1.951C342.815,66.1,343.425,66.343,344.199,66.343z"/>
		<path fill="#F8F1E9" d="M357.616,62c-0.455-0.44-0.889-0.724-1.301-0.851c-0.414-0.126-0.773-0.189-1.082-0.189
			c-0.467,0-0.846,0.076-1.141,0.229c-0.293,0.154-0.533,0.324-0.719,0.511c-0.188,0.187-0.354,0.44-0.502,0.761
			c-0.146,0.319-0.219,0.714-0.219,1.181c0,0.493,0.08,0.907,0.24,1.24c0.16,0.334,0.332,0.594,0.52,0.78
			c0.227,0.214,0.49,0.381,0.791,0.501c0.299,0.12,0.631,0.18,0.99,0.18c0.4,0,0.816-0.083,1.25-0.25s0.824-0.443,1.172-0.831v2.182
			c-0.24,0.147-0.564,0.294-0.971,0.44c-0.408,0.146-0.938,0.22-1.592,0.22c-0.707,0-1.316-0.1-1.83-0.3s-0.971-0.514-1.371-0.94
			c-0.307-0.307-0.584-0.717-0.83-1.23c-0.248-0.514-0.371-1.157-0.371-1.932c0-0.801,0.137-1.468,0.41-2.001
			s0.564-0.954,0.871-1.261c0.334-0.333,0.77-0.624,1.311-0.871c0.541-0.246,1.23-0.37,2.07-0.37c0.32,0,0.672,0.037,1.052,0.11
			s0.796,0.237,1.251,0.49V62z"/>
		<path fill="#F8F1E9" d="M362.13,53.255v8.985l2.701-2.821h2.602l-3.621,3.502l3.883,4.923h-2.482l-2.762-3.603l-0.32,0.36v3.242
			h-2V53.255H362.13z"/>
	</g>
	<g>
		<path fill="#F8F1E9" d="M313.567,0c-3.878,0-7.39,1.55-9.941,4.081l-0.05,40.059l20.029-20.071
			c2.532-2.553,4.087-6.064,4.087-9.943C327.692,6.325,321.369,0,313.567,0z M308.868,9.325c1.231-1.223,2.927-1.981,4.8-1.981
			c3.765,0,6.817,3.051,6.817,6.816c0,1.873-0.758,3.569-1.984,4.802L308.868,9.325z"/>
		<path fill="#F8F1E9" d="M293.544,7.344c-3.765,0-6.816,3.051-6.816,6.816c0,1.875,0.76,3.573,1.986,4.806l-5.103,5.102
			c-2.53-2.553-4.093-6.064-4.093-9.943c0-7.8,6.324-14.125,14.125-14.125c3.878,0,7.431,1.55,9.982,4.081L298.35,9.33
			C297.116,8.104,295.419,7.344,293.544,7.344z"/>
		<path fill="#F8F1E9" d="M288.759,36.142c3.765,0,6.816-3.05,6.816-6.816c0-1.875-0.76-3.573-1.986-4.806l5.103-5.102
			c2.53,2.553,4.093,6.065,4.093,9.943c0,7.799-6.324,14.124-14.125,14.124c-3.878,0-7.389-1.562-9.941-4.093l5.235-5.235
			C285.187,35.382,286.884,36.142,288.759,36.142z"/>
	</g>
	<g>
		<line fill="none" stroke="#F8F1E9" stroke-miterlimit="10" x1="390.548" y1="62.5" x2="514.548" y2="62.5"/>
		<line fill="none" stroke="#F8F1E9" stroke-miterlimit="10" x1="90.548" y1="62.5" x2="214.548" y2="62.5"/>
	</g>
</g>
</svg>
